<svg width="582" height="436" viewBox="0 0 582 436" fill="none" xmlns="http://www.w3.org/2000/svg">
<g clip-path="url(#clip0_3_770)">
<path d="M582 0H0V436H582V0Z" fill="white"/>
<path fill-rule="evenodd" clip-rule="evenodd" d="M255.191 190.451C250.018 194.196 250.842 201.565 252.399 206.919C254.691 214.803 259.258 222.101 264.468 228.392C273.71 239.552 289.4 252.083 303.862 242.285C316.741 233.56 324.865 215.953 327.669 201.123C328.536 196.54 329.691 189.711 325.618 186.266C319.598 181.173 308.979 182.099 301.711 182.755C296.925 183.186 292.307 184.652 287.577 183.964C276.588 182.364 264.357 183.813 255.191 190.451Z" fill="#7ED321"/>
<path fill-rule="evenodd" clip-rule="evenodd" d="M478.003 248.851C467.525 262.127 449.712 264.225 433.891 264.094C424.39 264.016 414.872 263.301 405.558 261.368C400.537 260.325 395.549 258.944 390.697 257.285C387.493 256.188 382.722 255.64 381.358 252.21C377.761 243.161 380.408 231.812 381.889 222.626C382.642 217.954 383.208 213.254 383.941 208.578C384.41 205.587 384.634 202.277 385.89 199.478C387.359 196.199 389.216 196.854 392.324 197.76C396.606 199.009 401.003 199.528 405.406 200.199C416.152 201.838 425.527 205.143 435.293 209.828C444.95 214.459 454.317 219.031 462.93 225.472C467.294 228.736 471.055 232.278 474.558 236.438C477.264 239.652 481.303 244.669 478.003 248.851ZM432.202 307.818C432.118 309.248 415.697 304.932 413.536 304.448C399.357 301.271 384.897 297.654 371.512 291.914C359.018 286.557 348.009 280.428 338.177 270.91C333.594 266.474 329.472 261.802 325.528 256.827C323.551 254.333 320.85 254.622 318.646 252.513C316.663 250.614 315.142 249.131 315.762 246.292C320.717 247.596 329.866 255.794 335.003 251.654C337.931 249.295 333.87 246.83 331.995 245.463C328.471 242.892 325.458 239.72 322.657 236.391C327.466 237.322 331.944 239.122 336.13 241.626C337.989 242.739 344.364 246.774 345.848 242.928C346.761 240.559 342.439 237.584 341.091 236.274C337.782 233.058 334.209 229.303 332.453 224.979C336.796 223.973 340.891 227.326 343.849 230.057C347.133 233.089 351.158 236.272 353.911 239.766C355.332 241.569 355.641 243.697 356.75 245.641C357.999 247.828 359.996 249.703 361.905 251.321C365.583 254.439 369.884 256.735 374.299 258.634C384.388 262.972 395.202 266.043 405.956 268.197C411.232 269.254 416.378 269.741 421.733 269.92C425.894 270.06 427.736 271.302 429.325 275.132C433.625 285.496 432.844 296.898 432.202 307.818ZM308.708 228.85C306.302 231.099 303.176 232.509 300.66 234.671C298.447 236.574 295.894 238.603 293.425 240.142C290.788 241.783 288.817 240.633 286.443 239.147C283.656 237.404 280.452 236.697 277.581 235.137C267.656 229.742 255.513 216.52 257.366 204.38C258.151 199.235 260.815 194.172 265.651 191.838C270.043 189.718 276.427 188.541 281.126 190.313C283.777 191.313 285.673 193.52 287.371 195.69C289.352 198.219 290.11 197.82 292.127 195.381C295.735 191.017 301.686 187.188 307.569 187.28C310.493 187.327 313.397 187.942 316.031 189.154C316.388 189.319 316.587 189.816 316.945 189.985C317.385 190.192 318.107 189.761 318.413 189.955C319.184 190.442 319.954 191.966 320.399 192.739C322.184 195.84 325.397 201.923 322.159 204.534C322.157 204.535 322.303 208.067 322.259 208.47C322.03 210.577 321.301 212.317 320.361 214.244C317.54 220.033 313.374 224.49 308.708 228.85ZM313.506 277.832C311.226 278.539 308.771 271.405 310.958 270.266C313.042 269.179 315.57 277.192 313.506 277.832ZM277.706 269.301C276.916 271.996 276.583 275.055 274.653 277.248C272.885 275.153 272.711 271.288 274.425 269.134C275.404 267.906 278.569 266.356 277.706 269.301ZM350.647 222.078C350.634 222.147 353.389 223.463 352.045 224.902C350.208 226.868 350.461 223.042 350.647 222.078ZM362.034 200.112C362.002 202.838 356.226 202.18 356.268 199.439C356.318 196.066 362.067 197.224 362.034 200.112ZM355.139 177.337C355.711 174.842 365.757 171.371 365.484 175.719C365.346 177.9 353.927 182.641 355.139 177.337ZM252.15 261.951C251.024 263.303 249.424 263.836 248.074 264.874C246.659 265.962 245.647 267.373 244.411 268.65C241.016 272.157 236.928 275.038 233.266 278.259C226.532 284.18 220.081 290.545 212.615 295.567C199.272 304.539 183.8 309.447 168.44 313.744C167.168 314.1 163.503 315.537 162.244 314.467C160.886 313.313 161.576 309.251 161.639 307.715C161.894 301.419 162.628 295.048 162.549 288.762C162.516 286.179 161.759 282.508 163.108 280.146C164.614 277.507 168.819 276.735 171.42 275.741C179.326 272.723 186.942 267.632 193.926 262.916C202.511 257.119 211.182 251.225 220.017 245.814C228.673 240.512 238.22 236.962 247.876 233.934C248.323 234.872 243.716 237.894 243.189 238.317C240.663 240.349 237.915 242.454 236.04 245.135C234.712 247.034 233.351 251.329 237.017 251.439C238.794 251.493 241.42 249.776 243.031 249.22C245.693 248.303 248.435 247.659 251.218 247.24C248.825 249.872 240.714 254.6 242.19 258.977C243.622 263.225 251.904 258.268 254.755 258.268C254.288 259.749 253.113 260.794 252.15 261.951ZM154.299 273.806C148.994 275.669 143.557 276.728 138.083 277.931C132.865 279.078 128.042 279.942 122.697 279.271C115.317 278.344 107.151 275.291 106.216 266.915C105.106 256.992 112.123 247.873 118.148 240.753C125.48 232.091 133.714 224.347 142.637 217.335C151.55 210.33 161.17 204.154 171.249 198.94C178.917 194.974 187.577 192.565 195.684 189.589C197.227 189.023 201.493 187.033 202.936 188.682C204.102 190.015 202.515 192.237 201.983 193.475C200.947 195.889 200.804 198.319 200.536 200.911C199.341 212.485 197.902 224.056 197.24 235.681C197.056 238.92 196.731 242.309 196.92 245.551C197.025 247.346 197.96 249.633 197.337 251.387C196.14 254.757 190.656 256.987 187.749 258.493C182.546 261.187 177.036 263.198 171.78 265.776C166.007 268.607 160.386 271.666 154.299 273.806ZM227.862 198.598C229.319 198.399 231.5 198.003 232.798 198.945C234.49 200.174 234.046 201.883 232.483 202.774C231.248 203.478 228.359 203.671 227.139 203.032C225.061 201.944 225.413 198.935 227.862 198.598ZM235.926 225.4C234.749 227.357 230.45 228.641 230.824 224.988C231.145 221.861 238.093 221.796 235.926 225.4ZM234.33 170.259C236.221 170.991 239.654 171.617 240.215 174.047C240.737 176.31 238.591 176.16 237.042 175.537C235.769 175.026 230.095 170.22 234.33 170.259ZM530.669 256.545C529.565 252.251 530.406 247.497 529.796 243.099C529.205 238.836 528.141 234.918 526.614 230.9C523.233 222.005 519.359 213.998 513.878 206.192C503.556 191.491 491.58 178.542 477.119 167.804C462.843 157.204 447.034 148.589 430.287 142.552C412.529 136.149 394.654 133.92 375.927 132.693C370.335 132.327 364.747 131.892 359.187 131.187C355.122 130.671 350.028 130.036 346.009 131.279C343.485 132.061 342.074 134.26 344.825 135.703C346.774 136.726 349.327 136.848 351.481 137.12C348.879 145.375 344.647 153.658 337.939 159.342C331.391 164.891 322.628 166.794 314.363 168.201C309.881 168.964 304.863 169.554 300.312 169.225C297.435 169.018 295.19 167.687 294.029 170.647C293.223 172.704 292.842 174.961 291.78 171.855C290.524 168.184 289.907 168.207 285.999 167.164C278.008 165.032 268.846 163.086 261.874 158.474C254.641 153.69 252.125 145.949 248.087 138.742C247.088 136.96 244.076 133.355 245.615 131.313C247.023 129.447 251.6 129.633 253.696 129.438C255.908 129.233 258.134 129.224 260.353 129.138C261.639 129.088 264.225 129.615 263.708 127.696C262.928 124.805 254.566 125.176 252.489 125.129C248.628 125.042 244.713 125.131 240.871 125.556C221.821 127.66 202.6 131.551 184.166 136.74C148.4 146.807 113.761 165.356 87.6595 192.079C62.6047 217.731 54.6669 260.418 70.0697 293.17C78.0742 310.192 95.4457 317.185 112.285 322.832C121.167 325.811 130.573 328.141 140.015 327.579C144.546 327.309 148.845 326.09 153.264 325.172C155.191 324.772 157.384 324.133 159.364 324.294C160.862 324.416 162.302 325.79 163.707 325.06C164.705 324.542 165.139 323.055 166.358 322.421C167.821 321.661 169.596 321.386 171.177 321.003C175.571 319.936 179.826 318.207 184.121 316.79C188.563 315.324 192.754 313.435 197.016 311.526C199.168 310.562 204.147 306.642 205.55 309.508C206.189 310.816 205.917 313.339 206.072 314.71C206.345 317.11 206.666 319.503 207.016 321.892C207.788 327.152 208.712 332.389 209.659 337.62C211.369 347.059 213.571 356.095 217.254 364.973C220.195 372.063 222.776 380.098 228.237 385.737C230.621 388.199 233.873 389.307 237.292 388.533C241.181 387.653 243.117 384.125 245.478 381.272C250.672 374.993 259.248 370.183 267.167 368.451C276.864 366.331 286.31 369.433 295.566 372.069C305.356 374.857 315.324 377.514 324.934 380.866C333.889 383.99 343.558 388.604 353.27 388.202C361.739 387.852 369.65 380.967 375.758 375.719C381.893 370.448 389.563 362.731 398.384 363.352C402.764 363.66 406.756 365.77 411.022 366.629C415.706 367.571 420.689 367.704 425.452 368.055C431.364 368.491 444.592 366.951 446.779 359.847C447.103 358.793 447.105 356.623 445.712 356.201C444.43 355.813 443.775 357.31 442.561 357.242C440.09 357.103 438.16 352.8 436.803 351.134C431.325 344.409 423.812 339.394 417.666 333.318C410.725 326.46 404.8 318.149 399.571 309.953C401.935 309.339 404.486 310.358 406.774 310.842C409.554 311.43 412.263 312.142 415.003 312.895C418.023 313.725 421.085 314.296 424.15 314.929C426.437 315.401 429.472 315.543 431.535 316.689C433.337 317.689 434.343 318.763 436.58 319.053C438.854 319.348 441.189 319.1 443.475 319.084C449.655 319.043 455.823 318.928 461.975 318.275C483.711 315.969 506.752 306.785 519.822 288.56C523.377 283.603 526.241 278.111 528.051 272.283C529.463 267.734 531.899 261.322 530.669 256.545Z" fill="black"/>
<path fill-rule="evenodd" clip-rule="evenodd" d="M326.8 46.5569C332.513 46.6376 337.867 48.3295 343.189 50.253C347.87 51.9442 352.86 53.5089 356.645 56.8847C363.452 62.9571 365.225 73.0117 366.339 81.6139C367.729 92.3482 363.105 101.354 359.213 111.066C355.573 120.148 348.892 127.506 340.951 133.113C336.79 136.05 332.192 137.823 327.381 139.377C322.494 140.956 317.762 143.071 312.534 143.063C304.594 143.051 294.429 139.284 291.047 131.471C289.507 127.913 291.006 127.275 294.088 129.208C298.558 132.013 302.867 135.04 308.09 136.285C318.221 138.699 330.354 134.959 339.237 130.025C348.117 125.092 354.078 117.681 358.062 108.454C362.082 99.1448 363.644 89.9719 362.093 79.9361C360.78 71.4315 358.167 63.6631 350.494 59.0463C333.93 49.0813 311.614 49.8842 296.884 62.8346C294.864 64.61 292.867 66.3376 290.785 68.0328C289.462 69.1103 287.903 70.4031 288.096 72.2667C288.26 73.8623 291.667 80.0149 287.565 78.1251C284.24 76.5927 282.433 73.5972 278.405 73.2264C274.118 72.8313 269.004 76.1209 267.722 80.2612C266.499 84.2117 268.68 89.6165 272.096 91.8825C274.212 93.2857 276.54 93.069 278.943 93.0125C280.135 92.9842 283.455 92.5972 284.244 93.8564C285.64 96.0833 280.714 98.424 279.125 98.9167C275.256 100.115 270.685 98.7047 268.461 95.2556C266.2 91.7492 264.653 87.6911 264.342 83.5138C264.044 79.5115 264.954 75.4594 267.317 72.1731C269.832 68.6783 274.957 64.7601 279.552 65.9742C281.546 66.5011 283.148 68.5591 285.105 68.9501C286.34 69.1965 285.821 69.3728 286.844 68.4582C287.493 67.8781 288.107 66.8073 288.707 66.1195C292.155 62.165 295.565 57.9446 299.786 54.7795C307.353 49.1041 317.412 46.4236 326.8 46.5569ZM305.873 124.96C306.768 122.864 308.412 126.603 308.899 127.228C309.861 128.464 312.124 129.426 312.026 131.25C311.865 134.261 307.756 133.703 306.386 132.132C304.827 130.344 304.99 127.029 305.873 124.96ZM335.065 110.703C337.282 114.154 334.58 117.878 332.828 120.932C331.152 123.852 329.596 127.153 327.645 129.898C324.406 134.456 317.361 129.525 317.152 124.841C316.992 121.255 319.535 122.816 321.167 124.155C322.847 125.535 323.643 125.878 325.404 124.372C328.947 121.339 330.538 116.27 332.988 112.431C333.473 111.67 334.353 111.212 335.065 110.703ZM341.384 111.813C341.956 113.481 340.756 117.903 344.09 117.461C345.932 117.217 346.325 114.576 347.293 113.424C350.55 109.551 349.551 116.877 348.7 118.711C346.825 122.752 341.575 125.536 338.972 120.409C338.004 118.502 338.008 116.095 338.5 114.045C338.768 112.929 340.329 108.731 341.384 111.813ZM311.658 103.91C311.363 105.857 309.531 109.736 311.768 111.128C313.736 112.355 317.164 109.692 318.679 108.58C320.254 107.425 323.823 104.111 323.963 108.235C324.035 110.337 321.928 112.86 320.425 114.071C317.217 116.653 310.553 118.97 308.19 114.109C306.902 111.461 307.606 107.691 308.458 105.022C309.147 102.859 312.371 99.2072 311.658 103.91ZM353.724 93.2506C355.029 94.7646 358.123 98.1565 356.441 100.312C354.474 102.833 351.279 98.2089 350.019 96.9219C348.884 95.7626 346.496 92.4614 347.514 90.7104C349.2 87.8128 352.578 91.9214 353.724 93.2506ZM333.209 86.7317C337.475 89.5079 331.866 91.5069 329.436 91.7554C326.495 92.055 322.735 92.2538 320.034 90.8123C316.205 88.769 317.481 85.6825 321.192 84.9436C324.998 84.1866 329.898 84.5768 333.209 86.7317ZM277.746 77.8939C280.883 78.5037 284.467 79.2973 285.535 82.7138C286.639 86.2447 285.053 87.4165 281.849 86.6216C278.884 85.8859 274.455 85.1456 272.779 82.2527C270.776 78.7965 274.837 77.3292 277.746 77.8939Z" fill="black"/>
<path fill-rule="evenodd" clip-rule="evenodd" d="M105.116 153.764C104.063 157.16 98.7343 159.413 96.0769 161.477C86.7817 168.7 77.6988 176.221 69.2955 184.464C64.9338 188.743 61.6325 193.918 57.8501 198.677C56.9273 199.838 55.2924 202.44 53.4825 202.195C51.4966 201.928 51.0952 198.512 51.1585 197.02C51.3754 191.932 56.0274 187.019 59.3449 183.515C63.0767 179.576 67.0665 175.737 71.1412 172.15C75.6274 168.201 80.4956 164.807 85.4567 161.484C90.3283 158.221 94.9991 154.451 100.065 151.495C102.452 150.103 106.415 149.574 105.116 153.764ZM430.033 121.51C433.913 121.632 437.699 122.903 441.358 124.084C449.407 126.68 457.073 130.281 464.632 134.045C477.885 140.643 490.638 148.627 502.329 157.704C504.773 159.601 507.278 161.138 509.935 162.689C511.636 163.683 514.061 164.895 514.716 166.92C516.381 172.068 507.98 166.901 506.788 166.162L505.111 165.124C480.237 149.725 455.392 134.764 427.257 125.934C425.758 125.463 425.292 124.128 426.078 122.804C426.931 121.37 428.592 121.465 430.033 121.51ZM103.984 132.284C103.804 133.852 102.027 134.208 100.828 134.712C96.3549 136.588 91.7703 138.189 87.3094 140.097C79.0298 143.637 71.4264 148.776 62.7844 151.463C60.8095 152.078 60.5181 150.088 61.0468 148.733C61.6357 147.221 63.4044 146.159 64.6836 145.285C68.3737 142.76 72.5588 140.944 76.6567 139.19C80.7194 137.45 84.9024 136.134 89.0679 134.675C92.9393 133.319 97.4327 130.795 101.59 130.609L101.772 130.6C103.095 130.533 104.194 130.444 103.984 132.284ZM437.095 108.472C433.14 107.36 436.877 104.859 439.227 105.035C441.85 105.231 444.385 106.468 446.872 107.214C454.476 109.494 461.524 111.988 468.627 115.528C469.687 116.057 474.354 118.562 471.267 119.671C469.127 120.44 464.13 117.142 462.293 116.351C454.221 112.874 445.547 110.846 437.095 108.472Z" fill="black"/>
<path fill-rule="evenodd" clip-rule="evenodd" d="M279.41 116.568C279.904 115.119 286.02 99.2791 283.626 98.8014C281.091 98.2949 277.702 107.485 276.966 109.146C274.25 115.278 272.642 121.858 271.381 128.436C270.503 133.016 269.732 137.708 270.04 142.391C270.276 145.99 271.764 146.534 274.216 148.74C274.216 137.809 275.879 126.914 279.41 116.568Z" fill="black"/>
</g>
<defs>
<clipPath id="clip0_3_770">
<rect width="582" height="436" fill="white"/>
</clipPath>
</defs>
</svg>
