<svg width="304" height="228" viewBox="0 0 304 228" fill="none" xmlns="http://www.w3.org/2000/svg">
<g clip-path="url(#clip0_3_638)">
<path fill-rule="evenodd" clip-rule="evenodd" d="M105.513 124.688C105.936 127.528 106.999 130.025 107.896 132.685C108.32 133.942 108.981 135.223 109.63 136.378C110.05 137.126 110.583 138.904 111.354 137.866C111.482 138.408 111.314 138.673 111.492 139.174C111.742 139.881 113.044 140.762 113.61 141.306C114.156 141.831 114.755 142.234 115.343 142.698C115.459 142.789 115.7 142.715 115.794 142.821C115.969 143.02 115.806 143.296 115.879 143.389C116.8 144.545 118.396 145.366 119.593 146.216C121.303 147.43 123.004 148.644 124.671 149.916C125.988 150.922 127.244 151.982 128.55 152.989C129.176 153.472 129.649 153.95 130.115 154.579C130.692 155.359 130.779 155.394 130.378 156.201C129.659 157.642 128.365 158.571 127.5 159.865C126.514 161.34 125.881 162.989 124.542 164.22C123.943 162.87 123.169 164.843 124.163 164.635C123.701 166.004 122.669 167.171 121.98 168.459C121.166 169.982 120.276 171.366 119.312 172.798C119.214 172.443 119.116 172.088 119.017 171.733C118.08 171.957 118.83 172.645 118.899 172.93C118.958 173.171 119.161 173.196 119.016 173.721C118.907 174.116 118.529 174.451 118.288 174.779C117.748 175.516 117.246 176.274 116.736 177.032C116.234 177.777 116.059 178.392 115.735 179.121C115.447 179.771 115.181 179.648 114.716 180.126C114.235 180.621 113.757 181.483 113.328 182.052C112.054 183.748 110.908 185.689 110.038 187.618C109.209 189.457 107.677 190.749 106.977 192.699C106.619 193.695 106.488 194.742 106.178 195.748C105.888 196.687 105.412 197.561 105.233 198.536C105.084 199.345 105.18 200.283 105.107 200.993C105.048 201.572 104.805 202.462 104.877 203.28C105.03 205.002 105.744 206.496 106.597 207.931C102.706 209.25 98.28 209.62 94.1981 209.524C92.112 209.475 89.7346 209.456 87.6934 209.938C86.5129 210.218 85.6062 210.565 84.3664 210.468C83.1276 210.37 81.8899 210.254 80.6516 210.148C81.0132 209.419 82.1936 208.501 82.8562 207.943C83.2388 207.62 83.8696 207.544 84.1622 207.232C84.4976 206.875 84.5999 205.985 84.7193 205.556C85.6376 202.261 86.3155 198.937 86.8907 195.567C87.9067 189.611 88.3006 183.548 88.6759 177.555C88.7029 177.124 88.9135 176.603 88.9027 176.194C88.8857 175.533 88.754 175.161 88.8042 174.531C88.836 174.132 89.3121 173.599 89.2915 173.247C89.2732 172.938 88.7432 173.173 88.744 172.708C88.7453 172.04 89.7006 171.077 89.9001 170.478C89.9771 170.245 89.6928 169.934 89.6648 169.674L89.6633 169.627C89.6757 169.634 89.8859 168.688 89.8945 168.65C89.9641 168.347 90.2371 168.252 90.2233 167.872C90.2114 167.545 89.7316 167.118 89.9909 166.778C90.168 166.546 90.8127 166.918 90.9583 166.654C91.1457 166.314 90.3224 165.153 90.4137 164.626C90.5625 163.77 91.174 162.901 91.3822 162.02C91.4748 161.628 91.3722 161.015 91.6768 160.69C92.1736 160.161 92.6059 160.703 93.3227 160.526C92.5915 159.905 92.4498 159.362 92.6658 158.456C92.8345 157.749 93.171 156.963 93.9443 157.67C93.829 156.614 93.833 156.449 94.6212 155.65C95.0035 155.262 95.4155 154.61 95.8726 154.348C96.0109 154.202 96.1494 154.057 96.2879 153.912C96.4753 154.107 96.6981 154.218 96.9562 154.243C99.1664 154.126 100.27 153.673 102.301 154.998C103.157 155.557 104.01 155.976 104.746 156.704C105.567 157.516 106.229 158.471 107.109 159.23C108.092 160.078 109.062 160.775 109.939 161.748C110.664 162.552 111.361 163.463 112.333 163.955C112.407 162.791 111.771 161.751 111.215 160.734C111.148 160.613 110.664 160.286 110.674 160.322C110.615 160.118 110.839 159.942 110.769 159.761C111.612 160.523 112.482 161.653 113.446 162.223C115.021 163.154 114.321 161.338 114.021 160.404C113.165 157.742 111.613 155.19 109.82 153.042C106.682 149.283 101.447 145.086 96.438 147.452C91.4732 149.797 88.8576 153.736 87.4331 158.974C85.7798 165.055 85.0209 170.865 84.8637 177.164C84.7735 180.77 84.4058 184.347 84.0267 187.933C83.6565 191.432 83.5051 195.223 82.799 198.658C82.3559 198.013 82.0945 197.527 81.8734 196.802C81.7835 196.509 81.8964 196.222 81.743 195.933C81.6723 195.801 81.3137 195.817 81.2467 195.696C80.6967 194.704 79.924 193.338 79.6712 192.196C79.5379 191.595 79.6596 191.243 79.4021 190.696C79.1601 190.183 79.0384 190.669 78.9463 190.036C78.9333 189.948 79.3389 189.803 79.2139 189.393C78.8982 188.357 78.6755 189.339 78.524 189.332C78.2116 189.319 78.9171 187.193 78.8615 186.859C78.7975 186.476 78.6185 186.685 78.5313 186.405C78.4527 186.152 78.3566 185.787 78.2975 185.436C78.1184 184.366 77.7129 184.017 77.6945 182.859C77.6727 181.462 77.1548 180.563 76.9229 179.228C76.8799 178.982 77.1486 178.706 77.1 178.491C76.9993 178.043 76.675 177.672 76.5489 177.199C76.2854 176.209 76.8113 175.356 76.7382 174.403C76.7501 174.559 76.4422 173.702 76.4231 173.626C76.3121 173.191 76.3596 172.607 76.2719 172.133C76.1893 171.688 75.9152 171.094 76.1606 170.678C76.3283 170.393 76.7055 170.47 76.925 170.153C76.1185 169.893 76.2878 170.177 75.9965 169.287C75.7184 168.438 75.6914 167.726 76.6126 168.287C76.3799 167.714 75.9465 167.011 75.852 166.397C75.7659 165.836 75.9722 165.293 75.913 164.735C75.7551 163.24 75.2942 162.33 76.1442 160.88C75.0244 160.307 75.5091 158.313 75.3355 157.228C75.1476 156.051 74.6891 154.925 75.5728 154.152C74.4523 153.347 75.022 150.736 75.0428 149.489C75.0628 148.297 74.9696 147.088 74.9837 145.702C74.9921 144.919 74.7715 144.381 74.5846 143.606C74.3435 142.608 74.5887 141.842 74.5063 140.877C74.4407 140.11 74.151 139.339 74.1118 138.522C74.0716 137.689 74.141 136.753 74.0235 135.935C73.9258 135.257 73.7638 134.772 73.7468 134.04C73.7419 133.823 73.6361 133.433 73.6806 133.231C73.679 133.239 73.9828 132.534 73.9806 132.845C73.9895 131.685 73.409 130.552 73.7133 129.14C73.9636 127.98 74.1734 128.17 75.3436 128.242C76.2667 128.298 77.1896 128.359 78.1147 128.363C79.3129 128.368 83.1665 127.537 84.0337 128.381C84.7519 129.081 84.3345 132.391 84.3834 133.391C84.4625 135.019 82.904 135.516 82.472 137.179C81.6482 140.348 83.0091 144.531 86.7222 144.802C90.1858 145.055 93.5085 142.207 93.033 138.707C92.8421 137.302 92.1949 135.773 90.9731 134.951C89.7913 134.155 87.2808 134.755 86.4578 133.796C86.0739 133.349 86.2262 131.611 86.1816 131.027C86.1168 130.178 85.728 128.48 86.2875 128.078C86.919 127.624 88.8698 127.615 89.5907 127.613C90.6124 127.61 91.5423 127.612 92.5562 127.44C94.7999 127.06 97.0369 127.075 99.2412 126.578C101.43 126.085 103.452 125.569 105.513 124.688ZM132.255 124.688C132.71 124.676 133.69 128.449 133.948 129.114C134.653 130.933 134.942 132.768 135.335 134.681C135.738 136.645 136.099 138.64 136.621 140.575C137.013 142.029 136.925 143.437 137.453 144.901C137.314 145.807 137.439 147.373 136.438 147.762C135.533 148.114 134.945 147.254 134.609 146.509C133.701 144.496 133.992 141.809 133.662 139.644C133.271 137.089 133.248 134.571 132.942 132.012C132.672 129.758 131.758 126.91 132.255 124.688ZM92.7448 72.9882C93.7372 74.1084 95.1947 73.6383 96.502 73.5141C95.9473 74.7746 95.1512 76.1235 95.1215 77.5349C95.1064 78.2671 95.5004 78.9172 95.4961 79.6157C95.4915 80.3084 94.9295 80.9547 94.663 81.5977C93.4658 84.483 93.1763 88.392 93.1315 91.4904C93.0391 97.9 94.9579 104.727 99.0386 109.753C99.8998 110.813 100.868 111.793 101.95 112.629C102.538 113.084 105.248 114.164 105.375 114.803C105.621 116.04 102.84 115.918 102.08 116.028C100.484 116.261 98.9049 116.595 97.3057 116.811C90.8966 117.672 84.5698 118.361 78.1086 118.013C77.3938 117.974 76.057 118.33 75.3814 118.044C74.5874 117.708 74.8583 117.039 74.8775 116.257C74.9269 114.249 74.6382 112.274 74.4697 110.28C74.3333 108.666 74.7027 108.881 75.8858 107.988C77.1092 107.065 78.3052 105.35 78.7046 103.88C79.8426 104.798 79.0184 105.292 79.1804 106.469C79.3781 107.905 80.3489 107.67 80.9892 106.708C81.9825 105.217 81.8947 102.861 80.9663 101.371C80.1348 100.037 77.168 97.9881 75.4848 98.5983C73.2453 99.4108 75.6828 102.136 76.7424 102.727C76.481 103.481 75.0344 104.144 74.3898 104.558C73.4948 105.133 72.3336 105.467 71.299 105.785C68.5389 106.634 65.8564 106.758 63.008 106.341C60.2707 105.942 57.1363 105.05 55.3704 102.807C54.6067 101.837 53.9046 100.36 54.6372 99.1449C55.2972 98.0498 56.9289 97.9741 57.7312 96.9132C58.0777 96.4555 58.2443 95.848 58.5627 95.4045C59.0806 94.6839 58.8721 94.8121 59.8459 94.8948C61.4222 95.0284 63.103 95.13 64.6553 94.7504C65.8219 94.4649 66.958 93.9314 68.0995 93.5912C69.3112 93.2299 70.46 92.4705 71.3971 91.652C73.5583 89.7638 75.6741 87.7118 77.6752 85.6538C79.6646 83.6083 80.9387 80.9754 82.801 78.8062C84.9117 76.3482 86.9411 73.2061 90.0346 71.8529C91.8118 71.0757 91.7794 71.8977 92.7448 72.9882ZM100.26 81.1594C100.561 81.4742 100.369 83.2787 100.656 83.8545C101.759 86.0666 103.687 85.5781 105.683 85.1132C105.855 86.886 105.988 88.8828 106.703 90.535C107.023 91.2727 107.528 91.9062 107.786 92.6773C107.949 93.1658 107.883 93.7859 108.068 94.24C108.267 94.731 108.773 95.1094 109.069 95.5933C109.426 96.178 109.613 96.7237 110.083 97.2353C111.111 98.3544 112.507 99.303 113.294 100.638C113.617 101.186 113.674 101.592 113.664 102.23C113.661 102.459 113.5 103.299 113.572 103.468C113.834 104.089 114.777 104.25 114.882 105.052C114.941 105.503 114.695 105.449 114.611 105.825C114.511 106.277 114.583 106.587 114.418 107.09C114.155 107.89 112.997 109.394 113.117 110.082C111.412 111.02 108.415 111.615 106.505 111.187C104.553 110.749 102.6 108.532 101.34 107.079C98.3822 103.67 96.6599 98.2846 96.4983 93.8246C96.4163 91.5614 96.7179 89.2875 96.8245 87.0281C96.8846 85.7551 96.6128 82.1692 97.6915 81.2776C97.9327 81.0783 100.049 80.9381 100.26 81.1594ZM84.3438 85.4286C81.7127 85.5795 79.4543 89.6989 79.9412 92.1052C80.3411 94.0801 81.0157 92.5529 81.528 91.7046C82.1326 90.7032 83.2269 89.492 84.5258 89.749C85.9695 90.0348 86.3376 91.7932 86.9263 92.908C87.9997 94.9409 88.3341 92.7579 88.572 91.5241C88.3827 89.1111 87.4966 85.2481 84.3438 85.4286Z" fill="#7ED321"/>
<path fill-rule="evenodd" clip-rule="evenodd" d="M242.953 208.523C241.581 208.949 240.295 209.576 238.973 210.136C237.473 210.772 236.425 210.884 234.786 210.881C228.443 210.872 222.165 211.198 215.809 211.326C214.073 211.361 212.311 211.378 210.575 211.346C209.874 211.334 209.187 211.254 208.489 211.197C208.039 211.16 206.073 211.43 205.811 211.272C205.075 210.828 205.512 207.974 205.423 207.059C205.267 205.471 204.865 203.94 204.305 202.448C202.301 197.109 198.931 191.899 194.67 188.089C200.432 185.669 206.717 182.479 213.111 183.914C215.546 184.461 218.773 185.176 220.028 187.532C221.366 190.048 222.538 192.813 224.068 195.221C225.778 197.912 227.594 200.218 230.069 202.236C231.046 203.033 235.969 207.926 235.221 204.149C234.981 202.937 234.095 201.811 233.388 200.822C233.028 200.319 231.087 198.669 231.389 198.086C231.728 197.432 235.227 196.971 235.977 196.763C237.526 196.334 239.067 195.875 240.61 195.425C240.052 196.476 237.017 200.455 238.956 201.472C239.668 201.845 241.511 200.522 242.292 200.29C243.622 199.894 244.838 200.155 246.145 200.547C246.111 201.188 244.85 201.197 244.431 201.635C243.818 202.277 243.387 204.007 243.868 204.775C244.764 206.207 248.229 204.746 249.779 205.289C248.037 207.087 245.304 207.793 242.953 208.523ZM156.389 149.409C156.407 149.446 156.374 149.498 156.166 149.679C156.102 149.45 155.989 149.4 155.85 149.463C155.962 149.341 156.054 149.277 156.166 149.679C156.254 149.603 156.326 149.508 156.389 149.409ZM156.919 148.655C156.877 148.793 156.783 148.857 156.638 148.854C156.646 148.83 156.653 148.807 156.658 148.79C156.754 148.49 156.882 148.541 156.84 147.989C156.897 148.082 156.941 148.175 156.909 148.267C157 148.407 157.003 148.537 156.919 148.655ZM141.499 174.566C141.645 174.213 141.684 173.802 141.873 173.477C141.688 173.807 141.685 174.213 141.499 174.566ZM201.102 211.047C198.805 210.955 196.567 210.996 194.272 211.096C189.366 211.309 184.439 211.341 179.543 211.734C177.148 211.927 174.846 212 172.444 211.92C170.343 211.849 168.236 211.924 166.142 211.748C163.843 211.554 161.69 210.919 159.37 210.885C157.152 210.852 154.51 210.595 152.358 210.919C151.987 210.975 151.787 211.212 151.348 211.269C150.743 211.348 149.89 211.101 149.27 211.059C148.182 210.986 146.979 211.106 145.918 210.853C145.553 210.766 145.298 210.632 144.944 210.489C144.625 210.36 143.91 210.261 143.734 210.215C144.746 209.838 142.502 209.07 142.321 209.028C142.275 209.181 142.376 209.395 142.542 209.603C141.968 209.163 142.583 209.325 141.644 208.879C141.249 208.691 140.502 208.57 140.059 208.52C139.633 208.472 139.403 208.523 139.209 208.512C139.249 208.469 139.287 208.411 139.325 208.333C139.638 207.686 138.683 206.948 138.146 207.382C138.208 207.509 138.309 207.742 138.431 207.972C138.425 207.965 138.421 207.961 138.415 207.954C138.216 207.724 137.842 207.137 137.469 206.741C137.942 206.48 137.364 206.126 137.146 205.762C136.997 205.844 136.832 205.914 136.746 206.028C136.87 205.769 137.178 205.534 136.997 205.03C136.946 204.886 136.809 204.669 136.638 204.517C136.801 204.644 136.97 204.785 137.189 204.755C136.915 204.34 136.815 204.184 136.71 203.769C136.637 203.476 137.046 203.194 136.657 202.929C136.669 202.654 136.833 201.388 136.146 201.83C136.146 201.83 136.146 201.83 136.145 201.83C136.146 201.829 136.146 201.829 136.146 201.828C136.586 200.482 137.334 199.093 137.891 197.777C139.187 194.712 140.519 191.624 141.875 188.586C144.117 183.561 146.458 178.548 149.038 173.658C151.596 168.809 154.388 164.121 156.802 159.205C159.131 154.464 161.847 149.927 164.192 145.192C165.297 142.962 166.777 141.119 167.153 138.528C167.275 137.689 167.314 135.939 166.044 136.254C165.218 136.458 164.062 138.525 163.53 139.197C163.052 138.542 160.359 134.691 159.637 136.985C159.017 138.953 162.896 139.81 161.348 141.791C161.195 141.988 160.56 142.186 160.351 142.368C159.944 142.721 159.573 143.345 159.259 143.771C158.544 144.744 157.952 145.777 157.291 146.782C157.167 146.971 156.712 147.399 156.677 147.621C156.659 147.738 156.757 147.859 156.834 147.982C156.297 148.458 155.618 148.878 155.492 149.649C155.529 149.666 155.564 149.668 155.597 149.662C155.097 150.185 154.464 151.452 154.373 151.584C153.7 152.564 153.039 153.589 152.373 154.623C152.013 155.182 151.384 155.839 151.177 156.467C151.106 156.684 151.315 157.073 151.12 157.277C150.607 157.811 150.105 157.697 149.721 158.772C149.57 159.195 149.556 159.787 149.313 160.15C148.924 160.732 148.367 161.006 148.003 161.633C147.313 162.821 146.485 164.127 146.051 165.326C146.049 165.331 146.049 165.335 146.047 165.34C146.032 165.246 146.011 165.144 145.987 165.033C145.741 165.476 145.495 165.919 145.248 166.362C145.674 166.278 145.903 166.162 146.006 165.973C145.994 166.036 145.974 166.102 145.935 166.171C145.717 166.271 145.488 166.335 145.248 166.362C145.083 166.634 144.929 166.912 144.784 167.197C144.714 167.34 144.476 168.216 144.376 168.879C144.339 168.622 144.302 168.391 144.298 168.36C143.986 168.962 143.673 169.563 143.361 170.164C143.928 169.729 143.896 169.654 144.436 169.644C143.755 169.657 142.726 170.613 142.631 171.531C142.616 171.68 142.707 171.844 142.788 171.998C142.769 171.995 142.751 171.993 142.729 171.991C142.016 171.931 142.225 172.074 141.955 172.668C142.058 172.626 142.658 172.393 142.883 172.21C142.908 172.288 142.912 172.36 142.874 172.421C142.697 172.701 141.254 172.52 142.181 173.143C141.411 172.625 141.026 174.324 141.288 174.908C141.081 175.207 140.834 175.483 140.602 175.76C140.031 176.441 139.715 176.957 139.341 177.786C138.705 179.198 137.945 180.598 137.249 181.983C136.985 182.509 136.677 182.958 136.353 183.446C135.778 184.313 135.879 184.097 136.333 185.042C136.163 184.986 135.911 185.12 135.667 185.315C135.8 185.09 135.968 184.923 136.333 185.042C135.757 183.843 135.263 185.304 134.999 185.99C135.01 185.99 135.02 185.987 135.031 185.987C134.995 186.04 134.968 186.087 134.951 186.125C134.681 186.682 134.362 187.024 134.593 187.608C134.659 187.283 134.923 187.032 135.035 186.752C134.877 187.433 134.134 188.25 133.909 188.701C133.723 189.076 133.696 189.47 133.467 189.877C133.252 190.26 133.058 190.518 132.893 190.956C132.094 193.075 131.705 195.435 131.2 197.66C130.604 200.289 130.359 203.084 130.231 205.775C130.194 206.557 130.174 207.249 130.455 207.991C130.496 208.099 130.935 208.672 130.924 208.882C130.863 209.976 128.807 209.749 128.016 209.717C126.759 209.667 125.903 209.87 124.695 210.045C123.581 210.206 122.488 210.117 121.356 210.391C119.477 210.845 116.679 211.564 114.862 210.567C113.984 210.085 112.878 208.686 112.24 207.902C111.456 206.936 111.192 205.953 111.051 204.723C110.811 202.619 110.795 200.294 111.526 198.283C114.925 188.939 120.756 180.446 125.785 171.942C130.504 163.963 135.794 156.4 140.522 148.442C143.022 144.235 146.029 140.073 149.002 136.185C152.041 132.212 154.209 127.888 156.352 123.39C158.572 124.567 160.923 125.778 163.406 126.311C164.818 126.613 166.22 126.521 167.644 126.619C168.693 126.691 169.571 126.939 170.639 126.966C175.325 127.085 180.74 126.524 185.219 125.14C186.294 124.808 187.255 124.464 188.262 123.985C189.548 123.375 189.896 123.115 189.969 124.535C190.11 127.283 190.559 129.955 190.77 132.687C190.976 135.35 191.512 137.976 191.987 140.607C192.227 141.94 192.486 143.271 192.683 144.611C192.833 145.628 193.284 147.041 193.105 148.057C192.907 149.179 191.844 150.317 191.236 151.274C190.619 152.245 189.998 153.214 189.383 154.187C188.228 156.01 187.079 157.74 185.716 159.412C183.189 162.514 181.037 165.756 178.641 168.959C176.096 172.359 173.981 176.032 171.484 179.467C170.165 181.282 168.816 182.993 167.951 185.037C167.234 186.732 165.791 188.292 164.909 189.969C163.75 192.172 162.276 194.19 161.125 196.403C160.321 197.949 158.77 199.522 158.607 201.319C158.334 204.334 161.2 201.321 161.864 200.481C162.754 199.353 163.729 197.38 165.066 196.769C166.021 196.332 167.416 196.38 168.452 196.038C169.539 195.68 170.604 195.308 171.701 194.981C173.838 194.343 175.899 193.442 177.975 192.631C180.125 191.792 182.274 190.945 184.384 190.013C185.36 189.581 186.183 189.359 187.226 189.171C187.675 189.09 189.281 188.332 189.635 188.396C190.229 188.504 191.048 190.25 191.498 190.699C192.192 191.391 192.973 191.957 193.622 192.702C194.899 194.169 196.252 195.732 197.36 197.326C199.835 200.887 202.149 204.778 203.03 209.068C203.425 210.993 202.963 211.121 201.102 211.047ZM136.737 206.391C136.722 206.358 136.713 206.328 136.707 206.298C136.715 206.328 136.722 206.357 136.737 206.391C137.031 206.217 137.108 206.309 137.138 206.451C136.991 206.357 136.853 206.322 136.737 206.391ZM136.055 204.403C136.043 204.349 136.037 204.299 136.036 204.252C136.04 204.302 136.044 204.352 136.055 204.403C136.215 204.295 136.349 204.326 136.478 204.403C136.341 204.328 136.193 204.31 136.055 204.403ZM136.349 203.101C136.44 203.094 136.542 203.045 136.657 202.929C136.563 203.025 136.474 203.125 136.392 203.229C136.394 203.216 136.396 203.204 136.397 203.191C136.399 203.166 136.378 203.135 136.349 203.101ZM107.169 192.2C106.502 193.773 106.224 195.494 105.658 197.105C105.224 198.337 105.051 199.554 104.938 200.843C105.333 201.134 105.324 201.391 104.911 201.613C104.882 201.893 104.872 202.174 104.881 202.456C104.774 203.277 104.932 203.991 105.149 204.777C105.493 206.024 105.929 206.92 106.569 207.998C102.686 209.316 98.2614 209.687 94.1871 209.591C91.985 209.54 89.5148 209.535 87.3691 210.078C85.0585 210.663 83.0325 210.419 80.6588 210.214C81.0056 209.516 82.3309 208.35 83.002 207.865C83.3436 207.618 83.9055 207.576 84.1647 207.299C84.5343 206.905 84.5778 206.14 84.7212 205.624C85.6369 202.328 86.3145 199.006 86.8896 195.636C87.9029 189.695 88.3737 183.613 88.6725 177.628C88.6978 177.121 88.9594 176.553 88.9467 176.074C88.93 175.444 88.7499 175.237 88.8006 174.604C88.8335 174.191 89.3285 173.631 89.2927 173.263C89.27 173.033 88.7065 173.232 88.7404 172.782C88.793 172.088 89.6909 171.174 89.8948 170.552C89.9854 170.275 89.6475 169.999 89.658 169.696C89.6551 169.782 89.881 168.76 89.8894 168.724C89.9576 168.43 90.2326 168.307 90.2178 167.947C90.204 167.619 89.7276 167.191 89.9856 166.852C90.2466 166.509 90.7873 167.028 90.9517 166.728C91.1389 166.388 90.3165 165.228 90.4079 164.701C90.5678 163.78 91.1947 162.789 91.4401 161.853C91.532 161.502 91.384 161.069 91.6693 160.765C92.1659 160.237 92.5968 160.779 93.313 160.601C92.6025 159.998 92.4461 159.416 92.6569 158.532C92.8279 157.813 93.1577 157.036 93.9337 157.746C93.8315 156.81 93.722 156.716 94.3937 155.934C94.9734 155.26 95.7249 154.452 96.4189 153.936C97.4562 153.163 99.1121 152.766 100.342 152.675C101.685 152.576 103.336 153.295 104.352 154.31C105.588 155.545 107.187 156.445 108.589 157.625C110.087 158.885 111.373 160.381 112.811 161.717C113.107 161.991 113.65 162.758 114.107 162.626C114.851 162.411 114.25 161.3 114.087 160.806C112.927 157.291 110.842 153.75 107.974 151.352C106.495 150.115 105.024 148.55 103.304 147.65C101.916 146.922 100.831 147.036 99.3542 146.984C98.092 146.94 97.8327 146.865 96.7072 147.396C95.9093 147.773 95.1193 148.14 94.3665 148.601C93.1625 149.337 91.9208 150.231 91.031 151.343C88.6622 154.304 87.7377 158.069 86.8069 161.677C85.7825 165.646 85.0774 169.523 84.9531 173.641C84.8269 177.831 84.6328 181.96 84.2197 186.133C84.0048 188.303 83.7575 190.469 83.4771 192.632C83.2188 194.625 83.2053 196.769 82.8035 198.727C82.2974 197.989 82.1402 197.42 81.8609 196.626C81.6724 196.091 81.4812 196.109 81.2083 195.714C80.6302 194.88 79.9076 193.297 79.68 192.266C79.5406 191.636 79.6695 191.32 79.4112 190.766C79.3314 190.595 78.8975 190.729 78.828 190.458C78.7781 190.263 79.0499 190.113 79.0378 190.047C79.0094 189.893 79.4314 189.723 79.0669 189.24C78.5489 188.555 78.814 189.415 78.5343 189.403C78.3014 189.393 79.0005 187.027 78.9183 186.684C78.8892 186.563 78.4928 186.547 78.461 186.434C78.3647 186.093 78.3866 185.599 78.2927 185.229C78.0633 184.325 77.7227 183.963 77.706 182.931C77.6839 181.567 77.1786 180.601 76.9354 179.3C76.8885 179.05 77.1638 178.779 77.1123 178.563C77.0079 178.123 76.6819 177.737 76.5619 177.271C76.3309 176.374 76.6393 175.108 76.5762 174.378C76.5207 173.739 76.3416 172.703 76.2238 171.909C76.0321 170.618 76.3767 171.039 76.9375 170.227C76.1599 169.976 76.2589 170.197 76.0103 169.361C75.7236 168.396 75.75 167.827 76.6256 168.361C76.3929 167.788 75.9609 167.085 75.866 166.471C75.7778 165.9 75.9865 165.376 75.9269 164.809C75.7651 163.276 75.2865 162.443 76.1577 160.955C75.0379 160.381 75.5257 158.406 75.3502 157.304C75.1612 156.114 74.702 155.003 75.5872 154.229C74.6769 153.574 75.0374 151.695 75.0412 150.692C75.0428 150.237 75.197 149.436 75.1579 149.032C75.1307 148.748 74.9374 148.557 74.8813 148.226C74.6745 147 75.1312 145.785 74.8565 144.566C74.5467 143.191 74.5105 142.018 74.4043 140.671C74.3016 139.366 74.0996 138.008 74.0128 136.67C73.9486 135.677 73.5611 134.602 73.7396 133.573C73.7536 133.492 73.9901 132.76 73.9969 132.925C73.9858 132.661 73.7933 132.333 73.7844 132.175C73.721 130.984 73.6984 130.013 73.7493 128.804C73.7469 128.804 73.7442 128.804 73.7418 128.804C73.8893 128.715 73.9688 128.528 73.975 128.238C75.0892 128.13 76.3079 128.402 77.4339 128.432C78.6473 128.464 79.8569 128.404 81.0689 128.348C81.8487 128.312 83.5291 127.942 84.1229 128.593C84.5529 129.065 84.2825 131.492 84.3111 132.124C84.3451 132.87 84.7225 134.04 84.2863 134.693C84.0156 135.098 83.4037 135.26 83.0883 135.704C82.8963 135.975 82.7402 136.428 82.6382 136.722C82.33 137.608 82.2074 138.563 82.2545 139.498C82.477 143.874 85.9842 145.883 89.922 144.12C93.3523 142.584 94.285 137.938 91.3376 135.334C90.6438 134.721 89.9042 134.566 89.0187 134.415C88.456 134.318 86.9201 134.377 86.5523 133.976C86.1872 133.577 86.2762 132.334 86.2358 131.817C86.1708 130.986 85.837 129.752 86.0179 128.951C85.7213 128.284 85.9192 128.001 86.6122 128.104C86.8317 128.06 87.0512 128.015 87.2704 127.971C87.8231 127.871 88.3662 127.75 88.9276 127.712C89.9282 127.643 90.9038 127.762 91.9049 127.628C92.8869 127.497 93.8496 127.251 94.8335 127.124C95.8789 126.989 96.9056 127.139 97.9402 126.962C100.088 126.594 102.395 126.099 104.404 125.255C104.942 125.029 105.854 124.378 106.451 124.486C107.166 124.615 106.975 125.07 107.181 125.75C108.323 129.522 110.697 133.249 113.209 136.247C115.58 139.078 118.706 141.361 121.533 143.735C123.247 145.175 124.893 146.688 126.484 148.261C127.639 149.403 128.878 151.189 130.37 151.847C130.71 151.86 132.021 151.71 132.261 151.956C132.537 152.238 132.52 152.396 132.41 152.573C132.727 151.739 131.219 151.879 130.37 151.847C130.466 152.009 131.42 153.922 131.656 152.858C131.793 152.94 131.93 153.021 132.067 153.103C131.389 154.6 130.511 156.101 129.558 157.441C128.863 158.419 127.965 159.125 127.342 160.138C126.555 161.416 125.899 162.743 124.902 163.881C122.913 166.153 121.806 169.207 120.072 171.727C119.239 172.938 118.804 174.064 117.937 175.269C117.259 176.213 116.161 177.406 115.765 178.492C115.608 178.926 115.777 179.302 115.488 179.704C115.305 179.958 114.764 180.234 114.509 180.497C113.496 181.544 112.706 183.037 111.912 184.268C111.065 185.579 110.475 186.939 109.759 188.304C109.023 189.706 107.806 190.699 107.169 192.2ZM80.805 198.181C80.2781 198.189 80.0807 198.192 80.0219 197.961C80.0047 197.892 79.9993 197.801 80.0017 197.684C79.9993 197.801 80.0047 197.892 80.0219 197.961C80.0807 198.192 80.2781 198.189 80.805 198.181V198.181ZM80.8708 196.219C80.9252 196.367 80.5971 196.617 79.7248 196.524C80.5887 196.616 80.9193 196.368 80.8708 196.219ZM78.7261 201.145C78.8042 201.214 78.88 201.287 78.9539 201.361C78.8803 201.287 78.8042 201.214 78.7261 201.145ZM73.2864 211.446C72.5761 211.198 70.7283 210.759 69.5252 210.24C70.0618 210.39 70.6204 210.514 70.8353 210.589C71.6521 210.874 72.4691 211.16 73.2864 211.446C74.4437 207.274 78.7889 205.684 82.5069 204.144C80.7157 204.069 80.0759 202.514 78.9933 201.402C80.0737 202.511 80.7238 204.069 82.5069 204.144C78.7894 205.684 74.4437 207.275 73.2864 211.446ZM69.2221 207.246C69.1814 207.314 69.1409 207.384 69.1002 207.46C68.9894 207.667 68.572 208.594 68.3967 209.203C68.3614 208.577 68.7327 207.845 69.2221 207.246ZM73.3128 128.035C73.3791 128.008 73.4325 128.004 73.481 128.008C73.2866 128.017 73.2338 128.247 73.2254 128.568C73.0566 128.388 73.0165 128.153 73.3128 128.035ZM86.8079 137.675C88.0742 138.304 89.3029 138.67 90.5109 139.43C89.0289 140.582 84.2976 142.443 84.4389 138.883C84.4556 138.468 84.698 137.353 85.0766 137.106C85.6525 136.731 86.3059 137.426 86.8079 137.675ZM72.3127 121.096C77.8886 123.042 84.3844 122.561 90.0517 121.612C96.1404 120.593 102.22 119.992 108.118 118.084C108.124 118.905 108.48 119.765 107.829 120.442C107.319 120.973 106.213 121.074 105.539 121.297C103.775 121.882 102.261 122.734 100.418 123.083C98.3531 123.475 96.2906 123.467 94.2082 123.698C93.454 123.782 92.7448 123.917 92.0365 124.054C91.0556 124.068 90.2871 124.201 89.3078 124.473C85.8046 124.49 82.3252 124.594 78.8366 124.176C77.0648 123.964 75.3124 123.704 73.536 123.523C71.8724 123.354 72.2439 122.637 72.3127 121.096ZM70.1796 106.129C66.8959 107.036 63.5093 106.765 60.2784 105.727C57.9423 104.976 54.8431 103.876 54.3518 101.033C54.0274 99.1574 55.1515 98.8174 56.4736 98.0388C57.1061 97.6662 57.4138 97.3848 57.8393 96.7538C58.0917 96.3787 58.3187 95.4381 58.6021 95.1818C59.2926 94.5566 61.4721 95.1053 62.5526 95.0571C64.1629 94.9852 65.2544 94.4438 66.7358 93.9662C69.3523 93.1222 71.0082 92.0989 73.0394 90.168C75.0153 88.2899 77.3353 86.3795 78.9329 84.1662C80.7219 81.6878 82.4341 79.2761 84.3831 76.9123C85.8273 75.1607 88.4473 71.6546 91.0386 71.6707C92.3393 71.6789 92.1468 72.9057 93.1798 73.529C94.123 74.0981 95.3568 73.7021 96.3933 73.6035C95.7101 75.1567 94.7623 76.754 95.0977 78.5115C95.2856 79.4958 95.3857 79.8355 95.0012 80.767C94.6498 81.6178 94.2699 82.3719 94.0523 83.2829C93.2048 86.8337 92.8039 90.8301 93.1593 94.4608C93.7746 100.746 95.9282 107.235 100.639 111.672C101.713 112.684 102.895 113.493 104.21 114.158C105.522 114.822 105.631 115.513 104.005 115.81C100.839 116.387 97.6256 116.782 94.4371 117.211C91.2527 117.639 88.0119 118.086 84.8007 118.152C83.2123 118.184 81.6333 118.382 80.0451 118.27C79.2543 118.213 78.4683 118.072 77.6753 118.05C76.9828 118.031 75.949 118.377 75.3046 118.104C74.2959 117.677 74.7974 114.725 74.7235 113.699C74.6383 112.523 73.896 110.317 74.3369 109.205C74.6467 108.424 75.7838 108.096 76.3729 107.489C77.3396 106.492 78.2539 105.309 78.6231 103.95C79.8472 104.938 78.794 105.572 79.1656 106.776C79.5711 108.091 80.3188 107.678 80.9042 106.776C81.8814 105.27 81.8158 102.943 80.8813 101.442C80.3404 100.574 79.4616 99.9212 78.5602 99.457C77.8306 99.0815 76.216 98.3449 75.4081 98.6712C73.2157 99.5572 75.5492 102.175 76.6636 102.797C76.3958 103.57 74.4968 104.686 73.7728 105.017C72.6972 105.508 71.3342 105.811 70.1796 106.129ZM100.271 82.1498C100.3 82.5711 100.345 82.9736 100.484 83.3766C100.768 84.1985 101.335 84.9106 102.117 85.3174C103.633 86.1071 106.709 84.9701 108.042 84.0386C108.042 86.862 108.548 89.1078 109.358 91.7863C110.141 94.3779 111.745 96.4867 113.11 98.7875C113.817 99.9807 114.467 101.212 115.466 102.192C116.481 103.188 116.65 103.569 116.557 105.037C116.405 107.456 115.253 109.105 113.077 110.106C111.352 111.062 107.791 111.839 105.912 111.04C103.937 110.2 102.013 108.026 100.734 106.352C97.8281 102.55 96.3542 96.8224 96.5308 92.0951C96.6228 89.6328 96.753 87.1132 96.9887 84.6597C97.1602 82.8724 97.0976 80.3026 99.6977 81.1081C100.538 81.3682 100.204 81.1741 100.271 82.1498ZM110.248 115.167C110.499 114.657 112.705 114.143 113.089 114.443C113.672 114.897 113.696 117.547 113.901 118.301C114.226 119.498 114.653 120.681 115.167 121.81C116.247 124.178 117.796 126.624 119.635 128.468C121.54 130.379 123.729 131.702 126.041 133.072C126.702 133.463 127.342 133.935 128.021 134.29C128.306 134.44 128.834 134.509 129.058 134.733C129.614 135.288 129.357 136.428 129.35 137.15C129.324 140.045 129.333 142.846 129.717 145.702C127.451 143.948 125.403 141.721 123.386 139.676C121.27 137.532 118.546 136.116 116.54 133.845C114.714 131.779 113.278 129.37 111.937 126.98C111.35 125.933 110.231 124.599 110.19 123.375C110.147 122.055 110.749 120.658 110.756 119.291C110.76 118.324 109.876 115.927 110.248 115.167ZM137.462 144.72C137.324 145.595 137.434 147.469 136.218 147.657C135.381 147.787 134.866 146.992 134.559 146.327C133.632 144.315 133.939 141.632 133.593 139.471C133.184 136.92 133.174 134.405 132.858 131.85C132.58 129.597 131.65 126.755 132.157 124.535C132.616 124.524 133.857 128.868 134.124 129.557C134.676 130.975 135.31 132.168 135.787 133.639C136.418 135.586 136.966 137.446 137.257 139.484C137.461 140.916 138.229 143.46 137.462 144.72ZM144.189 135.116C143.054 136.877 141.829 138.713 140.229 140.183C140.229 139.361 139.615 136.689 140.031 136.054C140.528 135.297 143.343 135.263 144.189 135.116ZM100.167 65.7339C101.131 65.2961 102.207 65.1583 103.18 64.706C104.109 64.2736 104.8 64.0127 105.832 63.9279C109.418 63.6337 113.07 64.5517 116.388 65.5557C118.214 66.1081 119.655 67.3188 121.197 68.3677C122.793 69.4524 123.668 70.3971 124.363 72.2327C125.858 76.1814 126.778 79.9149 127.372 84.0787C127.976 88.3034 126.996 92.5735 127.057 96.8071C127.117 100.984 127.415 105.332 128.742 109.308C129.768 112.383 131.586 117.333 135.418 117.639C139.055 117.93 142.132 114.18 143.636 111.365C147.611 103.921 149.105 95.4122 149.321 87.0582C149.882 84.2626 150.203 81.2484 151.176 78.5675C152.258 80.2593 153.14 82.0749 154.135 83.8187C155.226 85.7328 155.156 87.2943 155.061 89.4691C154.988 91.1601 154.392 92.776 154.174 94.46C153.924 96.404 153.464 98.2994 153.353 100.263C153.224 102.578 153.353 104.917 153.158 107.227C152.994 109.169 152.565 111.119 152.254 113.044C151.952 114.913 151.915 116.754 151.959 118.618C152.002 120.422 152.626 122.174 154.155 123.14C151.883 125.943 149.05 130.072 145.244 130.737C143.968 130.959 142.777 131.133 141.484 131.227C140.434 131.304 139.206 131.894 138.3 131.239C136.741 130.111 136.433 127.598 135.844 125.955C135.436 124.818 131.394 115.509 129.266 118.146C128.887 118.616 128.977 120.341 128.919 121.003C128.835 121.957 128.874 122.927 128.843 123.884C128.804 125.103 128.696 126.339 128.781 127.557C128.832 128.292 129.274 129.085 128.442 129.262C127.671 129.426 126.048 127.896 125.487 127.5C124.735 126.968 123.924 126.569 123.162 126.057C121.596 125.004 120.353 123.678 119.239 122.176C118.117 120.664 117.118 118.967 116.358 117.241C115.973 116.365 115.658 115.467 115.336 114.567C115.343 114.587 114.858 113.453 114.885 113.373C114.97 113.12 115.996 112.698 116.249 112.498C119.143 110.214 119.722 104.534 118.953 101.212C118.488 99.2021 116.947 97.436 115.853 95.7245C114.796 94.0715 113.679 92.4521 112.802 90.6927C111.835 88.7546 111.088 86.7196 110.221 84.7375C109.802 83.781 109.3 83.2888 109.925 82.4128C110.308 81.8757 111.101 81.6557 111.442 81.068C111.786 80.4765 111.821 79.3353 111.203 78.9126C110.527 78.4498 109.545 79.0962 108.926 79.3482C108.099 79.6842 107.274 79.8471 106.43 80.1056C105.473 80.3993 104.611 81.0486 103.594 81.0486C104.141 79.1662 106.502 79.3447 107.269 77.5942C107.792 76.3978 107.724 74.1716 106.092 73.9743C105.165 73.8623 104.434 74.5693 103.745 75.0436C102.838 75.6677 102.153 75.7843 101.091 75.9797C100.7 76.0519 100.064 76.4185 99.6934 76.2939C99.0913 76.092 99.4389 76.2166 99.7541 75.7218C100.223 74.986 101.331 74.2674 102.001 73.7304C103.508 72.5229 105.596 71.6525 106.901 70.2485C107.763 69.3202 108.187 66.1991 106.548 65.701C105.891 65.501 104.821 66.1531 104.178 66.3523C103.089 66.6891 101.981 66.9572 100.907 67.3414C98.9994 68.0236 97.1677 68.834 95.2325 69.4462C96.3351 67.8766 98.4291 66.5233 100.167 65.7339ZM164.669 65.2738C164.669 66.3523 165.08 68.4027 164.616 69.3832C164.197 70.2663 161.654 70.7584 160.756 71.0957C157.848 72.1882 154.963 73.4046 151.99 74.3092C155.054 69.7714 159.607 67.1371 164.669 65.2738ZM164.24 50.6213C163.486 51.7036 162.177 53.1711 160.644 52.6596C158.992 52.1082 157.697 49.5784 158.541 47.973C159.263 46.6016 161.32 45.7411 162.591 46.822C162.868 47.0576 163.049 47.6607 163.315 47.8451C163.485 47.963 163.755 47.6469 163.963 47.7735C164.578 48.1466 164.814 49.0577 165.701 48.9815C166.111 48.9465 167.426 47.8744 167.695 47.6004C168.415 46.8667 168.164 46.1151 168.278 45.151C168.435 43.8229 169.351 43.6191 170.406 42.9339C171.41 42.2813 172.217 41.3081 173.21 40.6795C174.396 39.9289 173.716 40.8806 174.799 40.9748C174.994 40.9918 175.431 40.3427 175.77 40.3534C176.209 40.3674 176.4 40.6601 176.651 40.9791C177.197 41.6724 176.795 41.8899 177.746 42.0514C178.433 42.168 178.858 41.6694 179.445 41.6791C179.925 41.1355 180.636 40.0005 181.494 40.3357C182.075 40.5626 182.283 41.7798 182.408 42.2881C182.879 44.2149 182.844 46.4793 182.861 48.4554C181.757 47.6806 181.614 47.1599 181.269 45.9107C181.045 45.099 180.504 43.9064 179.913 45.1257C179.746 45.4716 179.889 46.0023 179.779 46.3824C179.65 46.8234 179.342 47.0407 179.294 47.5218C179.178 48.6886 180.134 49.0886 180.959 49.6567C180.189 50.4862 177.975 49.8602 178.565 51.6312C179.189 53.5025 181.588 52.4663 182.784 51.9968C183.804 55.8626 179.273 57.7253 176.512 58.7826C174.891 59.4031 174.256 59.7491 174.033 61.642C173.842 63.2643 174.061 64.9257 174.656 66.4411C174.894 67.0485 175.123 67.8788 175.448 68.4409C175.724 68.9172 176.273 68.9503 176.458 69.216C177.14 70.196 176.649 72.3226 176.569 73.4988C176.351 76.715 175.349 79.6438 174.919 82.7824C174.698 84.3875 174.036 85.8903 173.753 87.4769C173.493 88.9326 173.39 90.3067 172.163 91.3475C169.698 93.4391 167.792 90.3503 166.938 88.3201C165.721 85.4281 165.6 81.6275 165.801 78.5438C166.019 75.1917 167.553 71.9712 167.634 68.6439C167.72 65.0856 167.183 61.7074 166.293 58.267C165.904 56.7634 165.337 55.4173 164.857 53.9635C164.464 52.7748 165.114 51.7014 164.24 50.6213ZM170.648 15.4193C170.648 15.422 170.648 15.4245 170.648 15.4271C170.633 15.4097 170.617 15.393 170.6 15.3725C170.618 15.3938 170.633 15.4083 170.648 15.4193ZM170.721 15.086C170.684 14.8349 170.604 14.5188 170.549 14.3766C170.682 14.4588 170.834 14.5277 170.839 14.6138C170.853 14.861 170.782 14.9773 170.721 15.086ZM174.38 15.7206C174.355 15.7351 174.33 15.751 174.304 15.765C174.243 15.765 174.192 15.7521 174.146 15.7319C174.164 15.7357 174.183 15.7386 174.205 15.7403C174.264 15.7446 174.323 15.7357 174.38 15.7206ZM176.293 15.0904C175.951 15.0877 175.59 15.0556 175.189 15.2293C175.253 15.191 175.316 15.1568 175.381 15.134C175.56 15.0704 175.939 15.0774 176.293 15.0904ZM156.892 109.125C156.966 107.515 156.965 107.032 158.23 105.994C159.284 105.128 160.304 104.22 161.37 103.368C163.729 101.48 166.249 99.4815 168.931 98.0719C170.434 97.2822 174.534 95.6909 173.498 98.8082C172.52 101.75 170.633 104.363 169.009 106.977C167.353 109.641 165.696 112.307 163.976 114.93C163.227 116.071 162.438 117.19 161.721 118.352C161.017 119.495 160.944 120.266 159.499 119.792C158.449 119.448 157.263 119.029 156.272 118.582C155.402 118.188 155.454 117.948 155.43 116.926C155.969 114.283 156.767 111.86 156.892 109.125ZM163.623 76.915C163.258 78.3876 160.635 78.5629 159.22 78.8485C158.976 78.8976 157.744 79.2963 157.514 79.1595C157.06 78.8895 157.283 78.109 157.09 77.731C156.03 75.6623 156.015 78.3071 155.713 78.9299C154.887 80.6362 153.622 77.22 153.158 76.3835C152.801 75.7398 152.418 75.4125 152.788 74.8721C153.096 74.4223 154.808 74.1135 155.334 73.9193C157.251 73.211 159.164 72.4898 161.076 71.7677C161.899 71.4568 164.434 69.8288 164.406 71.3935C164.133 73.1938 164.061 75.1537 163.623 76.915ZM162.19 94.4996C161.383 94.7502 159.192 95.7555 158.376 95.2814C157.687 94.8813 158.163 93.4784 158.24 92.7483C158.387 91.372 158.365 89.8746 158.287 88.494C158.172 86.4549 158.002 86.2939 160.014 85.7455C160.792 85.5334 163.165 84.3851 163.743 85.0326C164.013 85.3349 163.898 86.2963 163.958 86.6628C164.086 87.4556 164.308 88.2307 164.597 88.9794C165.098 90.2736 165.829 91.4355 166.593 92.5862C165.222 93.4299 163.723 94.0228 162.19 94.4996ZM157.634 80.081C157.983 79.5803 159.717 79.509 160.29 79.3878C161.303 79.1735 162.316 78.9616 163.33 78.7476C163.384 79.9817 164.082 83.2048 163.194 84.0952C162.695 84.5962 161.025 84.7252 160.319 84.8991C159.549 85.0886 158.777 85.2746 158.006 85.4607C157.919 84.2712 157.846 83.081 157.719 81.8948C157.673 81.4587 157.351 80.4884 157.634 80.081ZM157.835 96.3742C158.368 95.7606 159.81 95.7784 160.612 95.591C161.889 95.2922 163.1 94.8843 164.309 94.3789C164.986 94.0963 166.318 93.1284 167.066 93.3737C167.276 93.4423 167.714 94.3055 167.874 94.4675C168.146 94.7448 168.499 94.9327 168.815 95.1516C169.685 95.755 170.214 95.9426 171.24 96.1469C165.87 98.3492 161.555 102.267 157.113 105.882C156.798 105.617 156.973 103.255 157.008 102.712C157.072 101.706 157.115 100.688 157.191 99.6781C157.252 98.8486 157.268 97.0259 157.835 96.3742ZM174.143 117.799C173.981 118.716 173.957 119.975 173.564 120.821C173.203 121.597 173.247 121.543 172.289 121.566C171.079 121.595 169.691 121.798 168.519 121.43C169.565 119.118 170.436 116.607 171.868 114.498C172.318 113.836 173.186 112.141 174.127 112.242C175.071 112.343 174.864 113.29 174.789 113.975C174.649 115.254 174.367 116.533 174.143 117.799ZM178.858 81.7475C179.585 76.7618 179.523 71.8875 179.523 66.8665C180.683 67.02 181.961 66.9233 183.079 67.2515C182.718 68.4027 181.677 69.4411 182.708 70.5341C183.754 71.6444 186.194 72.1312 187.608 72.5398C189.265 73.0188 190.954 73.6041 192.657 73.8887C193.422 74.0163 194.255 74.1404 195.027 73.992C196.25 73.7573 196.358 73.4329 197.161 74.692C197.165 74.6987 197.172 74.709 197.176 74.7162C196.944 74.583 196.208 74.6632 196.404 74.6689C196.433 74.7704 196.476 74.8713 196.501 74.9653C196.284 74.787 195.805 74.6368 195.738 74.625C194.939 74.4844 193.925 74.843 193.155 75.0207C191.429 75.4195 189.716 75.854 188.044 76.4444C186.637 76.9414 185.243 77.4979 183.901 78.1507C182.865 78.6547 180.472 79.5423 180.144 80.777C179.518 83.1445 185.772 84.9435 187.297 85.745C188.738 86.5017 188.283 87.6241 188.299 89.1278C188.317 90.7609 188.465 92.3786 188.351 94.0082C188.264 95.2709 188.167 95.0752 186.908 95.0525C185.964 95.0356 185.021 94.9976 184.079 95.0536C182.749 95.1328 181.384 95.3169 180.136 95.8004C178.269 96.5236 174.684 99.9664 178.256 101.016C179.728 101.448 181.625 101.29 183.132 101.185C184.44 101.095 186.489 100.5 187.751 100.949C188.409 100.763 188.646 101.002 188.463 101.667C188.493 102.122 188.524 102.578 188.554 103.033C188.615 103.95 188.676 104.866 188.737 105.783C188.862 107.659 188.986 109.535 189.111 111.41C188.014 109.857 186.506 106.791 184.17 107.141C182.165 107.442 180.979 110.551 180.334 112.156C179.809 113.459 179.47 114.826 179.115 116.183C178.774 117.488 178.65 119.332 178.026 120.515C177.412 121.68 176.558 121.289 175.301 121.408C173.729 121.558 174.363 120.678 174.613 119.342C174.993 117.307 176.34 113.796 175.041 111.9C173.383 109.479 171.04 113.965 170.404 115.176C169.808 116.309 169.3 117.483 168.844 118.678C168.55 119.449 168.312 121.115 167.552 121.537C166.621 122.054 165.146 121.227 164.291 120.956C163.287 120.639 162.19 120.506 161.159 120.298C164.094 115.704 167.147 111.178 169.994 106.529C171.418 104.205 173.213 101.765 173.995 99.1356C174.144 98.6375 174.326 98.1618 174.265 97.632C174.213 97.1799 173.533 96.4692 173.576 96.1555C173.64 95.6906 174.574 95.3024 175.01 94.8137C176.527 93.1158 176.908 91.095 177.379 88.9363C177.891 86.5871 178.512 84.1207 178.858 81.7475ZM184.588 67.4984C186.824 67.0167 189.364 68.3012 191.233 69.338C192.466 70.0221 195.758 71.4522 195.885 73.1276C195.85 72.6731 192.823 72.9566 192.225 72.9714C189.668 72.4176 186.94 71.6711 184.554 70.5675C183.685 70.1656 182.665 69.772 182.981 68.7403C183.189 68.0624 183.954 67.6349 184.588 67.4984ZM181.995 100.458C180.582 100.377 175.451 100.433 178.033 97.871C179.65 96.2667 182.626 95.9186 184.777 95.91C185.547 95.9071 186.306 95.9674 187.071 96.046C187.281 96.071 187.491 96.0958 187.701 96.1208C188.342 95.9932 188.542 96.2587 188.302 96.9166C188.416 97.3016 188.601 99.5849 188.262 99.9061C187.814 100.332 186.385 100.144 185.859 100.185C184.566 100.286 183.292 100.466 181.995 100.458ZM189.499 119.865C185.781 120.419 182.069 121.126 178.3 121.185C178.862 118.437 179.518 115.695 180.542 113.077C181.197 111.405 182.386 107.793 184.677 107.971C186.506 108.113 188.641 111.247 189.151 112.847C189.815 114.934 189.499 117.695 189.499 119.865ZM199.047 78.0961C198.973 78.4768 197.304 79.1617 196.947 79.369C194.373 80.8645 192.081 83.0815 190.54 85.6012C190.369 84.6288 190.396 82.7846 189.581 82.0938C188.147 80.8777 188.441 83.602 188.27 84.4341C188.109 85.2146 188.309 85.0883 187.636 85.1578C187.039 85.2192 185.515 84.1011 184.965 83.8195C183.442 83.0406 181.983 82.1931 180.52 81.309C181.732 79.307 185.305 78.3882 187.34 77.5875C190.265 76.4366 193.147 75.8478 196.242 75.3713C196.76 75.6405 196.827 75.0347 197.213 74.899C197.235 74.8678 197.242 74.8414 197.243 74.8169C197.698 75.4924 199.157 77.5288 199.047 78.0961ZM202.833 105.073C204.273 111.691 204.632 118.576 206.451 125.114C208.181 131.329 209.717 137.516 211.715 143.647C212.866 147.178 213.935 150.745 215.473 154.136C216.546 156.501 217.397 161.546 220.011 162.653C221.722 163.377 222.481 162.735 222.298 161C222.14 159.491 221.357 158.542 220.711 157.238C220.486 156.784 219.753 155.502 219.833 155.02C219.932 154.421 220.084 154.485 220.709 154.189C222.035 153.56 223.358 153.134 224.77 152.77C224.2 153.654 223.062 154.918 222.971 155.998C222.895 156.89 223.536 158.526 224.422 158.868C225.259 159.191 226.245 158.509 226.962 158.094C227.792 157.612 228.583 157.478 229.496 157.136C228.332 158.814 226.424 160.15 227.241 162.458C228.112 164.92 230.816 162.906 232.544 162.628C232.05 164.536 229.86 166.71 228.284 167.772C227.227 168.484 226.079 169.127 224.944 169.704C224.504 169.927 223.927 170.063 223.523 170.329C223.37 170.43 223.111 170.86 222.972 170.927C221.011 171.874 218.337 172.115 216.204 172.57C213.853 173.072 211.83 173.195 209.41 173.078C207.408 172.982 205.191 171.752 203.518 170.72C202.246 169.934 202.06 168.975 201.664 167.589C201.008 165.292 200.421 162.98 199.794 160.675C199.254 158.688 199.003 156.779 198.637 154.763C197.862 150.49 197.505 146.15 196.673 141.884C195.847 137.648 195.571 133.356 195.342 129.025C195.232 126.939 194.893 124.811 194.789 122.766C194.705 121.103 194.734 119.428 194.743 117.717C194.749 116.515 194.323 115.313 194.352 114.106C194.378 113.039 194.476 112.078 194.363 111C194.123 108.703 193.935 106.433 193.754 104.133C193.402 99.6495 192.366 95.2251 191.952 90.7606C191.774 88.8297 193.893 86.9783 195.328 85.8537C196.859 84.6554 198.086 82.9725 199.77 82.0291C200.394 89.7725 201.179 97.4761 202.833 105.073ZM177.474 187.862C175.814 188.602 174.154 189.343 172.493 190.082C171.273 190.625 169.671 191.742 168.329 191.641C169.283 190.349 169.884 188.871 170.901 187.615C171.917 186.362 172.755 185.031 173.673 183.707C174.881 185.179 176.114 186.528 177.474 187.862ZM177.827 181.363C180.339 180.039 183.908 177.521 186.852 177.996C188.972 178.338 191.374 179.891 192.654 181.6C193.255 182.402 193.856 183.15 194.543 183.936C195.173 184.656 195.496 184.563 194.945 185.314C194.522 185.892 193.523 186.283 192.873 186.506C192.873 185.242 193.266 183.975 191.748 184.1C191.148 184.149 190.45 184.292 189.852 184.39C189.338 184.474 189.039 184.697 188.601 184.8C188.133 184.911 187.573 184.781 187.088 184.819C186.253 184.884 185.584 185.219 184.792 185.395C183.155 185.757 181.773 186.259 180.179 186.795C179.449 185.679 178.837 184.339 177.846 183.428C176.738 182.409 176.266 182.187 177.827 181.363ZM156.281 14.3939C156.522 14.3686 156.798 14.2186 156.984 13.906C156.658 14.4531 156.466 14.4779 156.281 14.3939ZM148.752 15.2651C149.044 15.3181 149.333 15.383 149.574 15.4963C149.812 15.6078 149.94 15.7349 150.067 15.8463C150.008 15.8205 149.944 15.7928 149.872 15.7626C149.558 15.6315 149.156 15.3948 148.752 15.2651ZM143.731 56.7502C143.711 56.7235 143.693 56.699 143.674 56.6748C143.693 56.699 143.711 56.7235 143.731 56.7502H143.731ZM142.755 56.8921C142.663 56.8584 142.585 56.803 142.524 56.7222C142.585 56.803 142.663 56.8584 142.755 56.8921C142.816 56.9141 142.883 56.9268 142.956 56.9303C142.883 56.9268 142.816 56.9141 142.755 56.8921ZM142.365 56.093C142.364 56.209 142.373 56.3111 142.391 56.4007C142.373 56.3111 142.364 56.209 142.365 56.093ZM143.547 56.5254C143.523 56.5003 143.5 56.4772 143.476 56.4557C143.5 56.4772 143.523 56.5006 143.547 56.5254ZM143.346 56.3501C143.308 56.3248 143.271 56.3019 143.232 56.2828C143.271 56.3019 143.308 56.3248 143.346 56.3501ZM185.098 16.3549C185.152 16.3705 185.199 16.3772 185.242 16.3797C185.183 16.3856 185.135 16.3767 185.098 16.3549ZM186.39 17.2204C186.232 17.0748 186.139 16.9321 186.092 16.7891C186.116 16.8042 186.143 16.818 186.173 16.8298C186.219 16.7835 186.266 16.7372 186.313 16.6906C186.248 16.8112 186.226 16.9275 186.276 17.032C186.517 17.536 186.811 16.7698 187.174 17.1488C186.902 17.1154 186.57 17.2204 186.39 17.2204C185.97 17.796 185.55 18.3719 185.131 18.9475C185.699 19.231 185.877 18.881 186.194 19.3976C186.209 19.4227 186.223 19.4841 186.235 19.5651C186.103 19.1885 185.759 19.2609 185.131 18.9475C185.55 18.3719 185.97 17.796 186.39 17.2204ZM187.476 18.4877C187.515 18.4586 187.539 18.4185 187.554 18.3654C187.564 18.3299 187.57 18.2887 187.574 18.2411C187.57 18.2887 187.564 18.3299 187.554 18.3654C187.539 18.4185 187.515 18.4586 187.476 18.4877C187.451 18.5071 187.418 18.5216 187.376 18.5316C187.418 18.5216 187.451 18.5071 187.476 18.4877ZM187.595 17.8757C187.59 17.9508 187.587 18.0184 187.584 18.079C187.587 18.0184 187.59 17.9508 187.595 17.8757ZM186.975 19.409C186.993 19.4423 187.013 19.4725 187.034 19.5005C187.013 19.4717 186.993 19.4423 186.975 19.409ZM186.344 21.6742C185.744 21.353 186.265 20.9486 186.29 20.4552C186.292 20.4113 186.293 20.3741 186.294 20.3337C186.298 20.453 186.299 20.5507 186.296 20.5987C186.256 21.2959 185.761 21.4901 186.661 21.7014C186.723 21.7159 186.803 21.7235 186.893 21.727C186.663 21.7437 186.462 21.7377 186.344 21.6742ZM195.643 26.8562C195.606 26.5711 196.939 25.9489 197.111 25.8725C196.9 25.9664 195.608 26.5859 195.643 26.8562ZM197.16 24.3314C197.151 24.3277 197.141 24.3266 197.132 24.3225C197.134 24.3015 197.132 24.2819 197.132 24.2614C197.138 24.2873 197.147 24.3112 197.16 24.3314ZM197.87 26.6341C197.877 26.6031 197.892 26.5205 197.907 26.4219C197.931 26.5436 197.957 26.6578 197.981 26.7574C197.952 26.7186 197.917 26.678 197.87 26.6341ZM196.834 26.6166C196.833 26.1333 196.985 26.2365 197.079 26.251C196.993 26.3805 196.833 26.4047 196.834 26.6166ZM195.427 27.6779C195.567 27.6504 195.685 27.7309 195.794 27.8238C195.557 27.7611 195.362 27.6903 195.427 27.6779ZM194.283 30.4382C194.261 30.4458 194.241 30.4506 194.22 30.4565C194.241 30.4506 194.261 30.4458 194.283 30.4382ZM194.398 30.3968C194.382 30.4029 194.369 30.4073 194.354 30.4126C194.369 30.4073 194.382 30.4029 194.398 30.3968ZM194.182 30.4676C194.153 30.4748 194.126 30.4799 194.1 30.4834C194.126 30.4799 194.153 30.4748 194.182 30.4676ZM195.061 47.1723C195.12 47.0727 195.248 47.0399 195.392 47.024C195.211 47.0932 195.071 47.2415 195.038 47.4563C195.002 47.3769 194.993 47.2867 195.061 47.1723ZM196.11 44.0824C196.1 44.0795 196.09 44.0754 196.08 44.0746C195.787 44.0517 195.659 44.2418 195.627 44.5323C195.647 44.279 195.732 44.0722 195.951 44.0049C195.94 43.982 195.93 43.9608 195.919 43.9384C195.975 43.9893 196.04 44.0372 196.11 44.0824ZM195.762 45.6469C195.756 45.6124 195.749 45.5747 195.741 45.5357C195.774 45.6738 195.811 45.8114 195.85 45.9436C195.812 45.8372 195.779 45.7357 195.762 45.6469ZM196.018 40.8364C195.994 40.8475 195.967 40.8571 195.939 40.8655C195.967 40.8571 195.994 40.8477 196.018 40.8364ZM196.09 40.7939C196.073 40.8063 196.054 40.817 196.034 40.8273C196.054 40.817 196.073 40.806 196.09 40.7939ZM195.925 40.8701C195.891 40.8792 195.854 40.8868 195.813 40.8919C195.854 40.8868 195.891 40.8795 195.925 40.8701ZM196.227 37.3583C196.23 37.4881 196.231 37.6176 196.235 37.7401C196.214 37.6197 196.212 37.501 196.227 37.3583ZM254.426 210.558C253.624 209.837 250.937 209.789 249.871 209.587C252.179 207.379 253.914 201.796 249.504 201.08C248.528 200.921 248.252 201.297 248.029 200.192C247.892 199.515 248.171 198.891 247.835 198.216C247.037 196.614 244.005 196.792 242.49 196.562C242.852 195.29 243.74 193.017 242.403 191.985C241.348 191.17 239.152 192.257 238.031 192.606C235.003 193.549 231.926 194.625 229.372 196.523C228.227 194.978 227.03 193.453 226.07 191.782C225.153 190.188 224.586 188.425 223.725 186.802C222.861 185.174 221.945 183.255 220.739 181.856C219.718 180.672 218.318 180.555 216.971 179.989C213.554 178.556 210.593 178.638 207.022 179.168C203.453 179.698 200.359 181.785 197.336 183.606C196.149 179.606 193.405 175.258 189.151 174.025C187.241 173.47 185.233 174.005 183.487 174.876C181.324 175.955 179.624 177.79 177.508 178.811C179.92 174.682 182.965 170.798 185.615 166.899C187.069 164.761 188.906 162.852 190.326 160.672C191.773 158.451 192.84 155.981 193.89 153.556C194.777 155.819 194.927 158.2 195.742 160.471C196.49 162.556 197.002 164.694 197.852 166.744C198.74 168.885 199.524 170.996 200.725 172.988C201.409 174.124 203.096 177.663 204.34 175.393C207.108 177.262 209.779 178.391 213.241 178.309C214.825 178.272 216.59 178.222 218.107 177.867C219.648 177.507 221.12 177.022 222.651 176.676C223.862 176.403 224.969 175.664 226.071 175.116C227.338 174.486 228.594 173.353 229.572 172.36C230.784 171.13 232.036 169.946 233.254 168.724C234.459 167.514 234.372 166.28 235.016 164.777C235.69 163.209 235.978 161.823 235.088 160.24C234.436 159.081 233.282 159.24 233.012 158.066C232.756 156.953 233.005 155.903 232.306 154.881C231.774 154.105 229.864 153.587 229.858 152.795C229.852 152.141 230.532 151.562 230.505 150.777C230.481 150.076 230.138 148.949 229.761 148.356C229.053 147.241 227.975 147.203 226.759 147.544C223.822 148.367 220.942 150.484 218.922 152.708C216.152 145.122 213.971 137.369 211.945 129.61C211.05 126.183 210.349 122.711 209.78 119.216C209.217 115.756 208.364 112.27 207.983 108.792C207.754 106.706 207.112 104.754 206.812 102.694C206.564 100.988 206.398 99.2683 206.154 97.5614C205.613 93.7794 204.862 90.0552 204.278 86.2823C203.955 84.1972 203.226 82.3729 202.665 80.3651C202.184 78.6431 201.898 77.1708 201.094 75.5441C199.56 72.4416 197.983 68.6412 195.004 66.6697C192.354 64.9163 189.784 63.4509 186.554 63.0917C184.66 62.8809 183.133 63.3262 181.281 63.5306C179.641 63.7118 178.236 64.6182 176.636 64.9448C176.636 63.4245 176.488 63.3833 177.875 62.8424C178.675 62.5309 179.454 62.1888 180.269 61.9179C181.126 61.6325 181.776 61.3539 182.508 60.8295C183.371 60.21 182.827 60.4068 183.861 60.6208C185.492 60.9584 185.011 60.5667 186.084 59.7542C186.709 59.2812 187.346 59.5698 188.076 59.6643C188.758 59.7523 189.88 60.0536 190.4 59.44C190.795 58.9734 190.364 58.1728 190.656 57.6655C191.116 56.8649 192.435 56.9015 193.139 56.3636C193.909 55.7753 193.979 55.1122 193.812 54.2076C193.696 53.5814 192.709 52.1904 192.765 51.6516C192.802 51.2928 192.991 51.1878 193.235 51.1584C195.164 51.2559 195.071 50.9651 194.6 49.2558C194.573 49.5089 194.556 49.7243 194.537 49.9098C194.532 49.6443 194.534 49.3964 194.6 49.2558C194.65 49.1498 194.831 49.0814 194.994 48.996C194.951 49.0388 194.906 49.0824 194.853 49.1314C194.936 49.4946 194.96 50.4442 195.308 50.7024C195.558 50.8873 196.434 50.8685 196.61 50.5594C196.98 49.9138 195.709 49.5477 195.659 49.0684C197.118 48.9465 196.621 48.2352 195.858 47.5094C195.828 47.3102 195.943 47.2159 196.206 47.2267C196.075 47.0905 195.914 47.0132 195.753 46.9882C195.867 46.9693 195.966 46.9359 196.018 46.8552C196.063 46.7841 196.066 46.6861 196.049 46.576C196.078 46.6608 196.102 46.7335 196.121 46.7895C197.379 47.2975 196.732 44.6015 196.21 44.1419C196.251 43.394 196.291 42.6461 196.33 41.8982C195.971 42.1351 195.698 42.5045 195.604 42.89C195.617 42.5341 195.825 42.2318 196.33 41.8982C195.521 41.542 195.442 41.4987 196.31 41.4228C197.031 42.0794 196.93 41.5342 197.376 41.1331C197.349 41.1571 198.051 40.3941 198.004 40.5107C198.338 39.6858 197.97 37.945 196.626 38.5119C197.356 39.1651 196.623 39.2854 196.369 39.847C196.36 39.8659 196.353 39.8858 196.346 39.9054C196.36 39.8381 196.378 39.7733 196.406 39.7135C196.856 38.7462 196.962 39.489 196.467 38.3884C196.467 38.3876 196.466 38.3868 196.466 38.3857C196.597 38.4519 196.802 38.4379 197.127 38.3009C197.532 37.8058 197.655 38.0082 197.872 37.3704C198.063 36.8123 197.975 36.4317 197.594 36.2241C197.638 36.2354 197.681 36.248 197.725 36.2591C197.893 35.8299 197.66 35.421 197.271 35.2237C197.114 35.4805 196.957 35.7376 196.801 35.9947C196.872 36.0176 196.943 36.0381 197.014 36.0596C197.013 36.0596 197.013 36.0596 197.012 36.0593C196.514 36.0017 196.312 36.0911 196.237 36.321C196.212 36.2179 196.206 36.1164 196.263 36.0243C196.323 35.9261 196.754 36.0717 196.801 35.9947C197.572 34.7299 196.757 33.677 195.515 33.0327C195.044 32.788 194.114 32.7796 193.947 32.207C193.829 31.8024 194.416 30.8232 194.528 30.3432C195.395 29.9458 193.795 29.7132 193.784 29.7116C193.736 30.2778 193.767 30.5284 194.094 30.4845C193.765 30.5292 193.736 30.2759 193.784 29.7116C194.254 29.7837 195.642 29.6542 196.322 29.1917C197.448 29.2238 198.028 29.4189 198.711 28.4425C198.043 28.1654 197.257 28.3146 196.658 27.8892C196.686 28.0171 196.709 28.1331 196.723 28.2403C196.671 28.082 196.558 27.9457 196.407 27.8165C196.505 27.9005 196.454 27.9274 196.338 27.9237C196.36 27.8938 196.383 27.8593 196.407 27.8165C196.447 27.3427 196.796 27.5357 197.148 27.5653C197.139 27.413 197.079 27.2848 197.014 27.1577C197.078 27.2797 197.139 27.4046 197.148 27.5653C197.372 27.4232 197.595 27.281 197.819 27.1386C197.941 27.1034 198.013 27.0541 198.042 26.9922C198.042 26.9932 198.043 26.9946 198.043 26.9957C199.111 27.3144 198.786 25.0513 198.294 25.0629C198.163 25.0661 198.067 25.1146 197.997 25.1913C198.012 24.9827 198.048 24.7619 198.133 24.4529H198.132H198.133C198.183 24.3199 198.233 24.1869 198.283 24.0539C198.014 24.0711 197.143 23.5507 197.127 24.1715C197.11 24.0595 197.066 23.9551 196.99 23.86C197.068 23.1732 196.663 23.2317 196.037 23.0397C195.804 22.9684 195.548 22.5228 195.285 22.7099C194.892 22.991 195.129 23.2556 195.382 23.4559C195.345 23.6893 195.233 23.8759 195.047 24.0154C195.018 23.9887 194.991 23.9682 194.964 23.9475C195.138 23.8455 195.285 23.6831 195.382 23.4559C194.576 22.8187 194.236 23.2357 193.617 23.7483C193.863 23.9537 194.15 24.0644 194.423 24.0757C194.409 24.1058 194.396 24.1362 194.383 24.1723C194.073 24.1336 193.817 23.9922 193.617 23.7483C194.275 23.2037 194.216 22.8698 193.415 22.5468C193.145 22.4377 192.973 22.6806 192.639 22.5521C192.473 22.4883 192.353 22.1986 192.191 22.1028C190.979 21.3859 189.524 21.794 188.234 21.6241C188.396 21.6034 188.54 21.5832 188.65 21.5687C188.522 21.1239 188.176 20.9314 187.812 20.796C187.812 20.5427 187.813 20.289 187.812 20.0357C187.761 20.0241 187.711 20.0187 187.663 20.0174C187.748 19.9506 187.798 19.8599 187.786 19.7054C187.475 19.8179 187.211 19.735 187.04 19.5096C187.379 19.9423 188.039 19.7159 188.24 19.161C188.452 18.5795 187.999 18.1888 187.605 17.7573C187.615 17.3427 187.438 17.1935 187.211 17.1537C187.622 16.3471 187.714 16.7471 187.273 15.7384C187.237 15.0586 186.66 15.3055 186.271 15.7421C186.312 15.642 186.354 15.5391 186.394 15.432C186.088 15.4113 185.782 15.3905 185.476 15.3693C185.554 15.6175 185.725 16.0596 185.5 16.2704C185.65 16.0547 185.543 15.5836 185.476 15.3693C185.101 15.1603 184.726 14.9514 184.352 14.742C184.383 14.809 184.469 15.0613 184.576 15.3469C184.288 14.9455 184.053 14.6967 183.66 14.2835C183.468 14.0818 182.718 13.114 182.509 13.0537C181.237 12.6848 180.275 15.1733 178.722 14.8327C177.807 14.6319 178.234 14.3949 177.37 14.5629C176.896 13.9478 173.805 14.9151 173.687 15.5004C173.745 15.4848 173.789 15.4783 173.825 15.4772C173.476 15.6021 173.173 15.7944 172.836 15.9244C171.99 16.2507 172.493 16.3358 171.533 15.7866C171.205 15.5992 171.084 15.6579 170.957 15.6406C171.37 15.4549 171.569 14.1691 171.575 13.7106C171.59 12.6151 171.445 12.8073 171.873 12.0217C171.477 12.0156 171.199 11.9819 170.992 12.0759C171.051 11.8896 171.094 11.7068 171.092 11.5299C171.306 10.9505 171.118 10.268 170.456 10.1068C169.455 9.86258 169.259 11.2994 169.984 11.5347C169.29 11.3097 169.569 10.4008 168.624 10.2777C168.971 10.26 169.186 10.3254 169.509 10.7222C169.616 10.5068 169.722 10.2917 169.829 10.0763C169.077 9.99773 168.73 9.93392 168.122 10.2871C167.528 10.3932 167.109 10.8237 166.661 11.244C165.439 12.3884 164.342 13.5054 163.217 14.7471C162.64 13.5601 162.002 12.6959 161.064 14.0242C160.217 15.2231 159.532 16.8801 159.092 18.2742C158.213 17.8706 158.584 17.739 158.215 17.0853C158.598 17.722 158.208 17.8685 159.092 18.2742C159.18 17.9961 159.268 17.7177 159.356 17.4396C158.586 16.5622 158.618 15.6904 157.785 14.7549C157.692 15.0548 157.958 15.4821 158.004 15.7524C158.056 16.052 157.724 16.2601 157.8 16.5824C158.111 16.4685 158.183 16.5372 158.193 16.6618C158.182 16.5374 158.109 16.4693 157.8 16.5824C157.676 16.0561 157.983 15.7763 157.812 15.1886C157.742 14.9512 157.642 14.7775 157.52 14.6095C158.051 13.7224 156.335 13.1078 155.936 13.6357C155.886 13.7022 155.852 13.7642 155.825 13.8239C155.155 13.5227 154.949 14.1637 154.636 14.6451C154.562 14.7956 154.488 14.9463 154.413 15.0971C154.019 15.421 153.653 16.0986 153.356 16.542C152.721 17.4899 152.455 18.8772 151.678 19.6671C151.704 19.1583 151.981 18.0303 151.067 18.4853C151.369 18.335 151.413 18.1525 151.346 17.9409C151.403 17.9729 151.465 18.002 151.536 18.0257C151.664 18.0383 151.793 18.0507 151.922 18.0631C151.906 17.3427 151.433 16.8691 150.875 16.486C150.875 16.6742 150.87 16.8678 150.882 17.0533C150.879 17.0465 150.875 17.0401 150.872 17.0333C150.628 16.4467 150.731 16.2739 150.519 16.094C150.603 16.1139 150.698 16.1282 150.815 16.1339C150.133 14.9797 149.225 14.7953 147.971 15.1205C148.056 15.1407 148.146 15.1579 148.237 15.1749C148.095 15.1752 147.957 15.2005 147.829 15.2632C147.341 15.5004 146.621 16.8637 146.282 17.3365C145.093 19.0003 144.538 21.0388 143.916 22.9619C143.741 23.503 143.475 24.7713 142.798 24.9528C142.012 25.1639 141.179 23.8829 140.487 23.4548C138.273 22.0848 137.171 24.5447 136.83 26.4963C136.321 27.3596 136.438 28.0252 137.172 28.4341C136.967 28.1372 136.872 27.8208 136.833 27.4945C136.931 28.0491 137.394 28.2414 137.477 28.4788C137.523 28.6091 137.586 29.3996 137.585 29.5584C137.963 29.8408 137.992 30.0495 137.67 30.1843C137.474 30.3187 137.289 30.4689 137.118 30.6348C136.587 31.1942 136.592 31.9698 136.107 32.5139C135.558 33.1294 135.054 32.8575 134.795 33.8692C134.351 35.6025 135.444 38.2196 137.412 38.3854C137.179 39.0679 136.876 39.7601 136.702 40.46C136.47 41.3913 136.486 41.4855 136.925 42.3764C133.653 41.8899 133.908 45.3545 135.774 47.0563C136.216 47.4596 136.7 47.7108 137.27 47.8895C137.683 48.019 138.929 47.9469 139.226 48.3383C139.851 49.1638 138.455 50.2369 138.332 51.1579C138.319 51.2521 138.314 51.4139 138.318 51.6018C137.803 52.2326 137.828 52.2849 138.564 52.8747C138.968 53.3943 140.214 53.2699 140.593 53.7669C141.176 54.5318 139.876 55.7629 140.528 56.6565C141.046 57.3667 141.587 56.9241 142.416 57.2251C142.818 57.4084 143.22 57.5923 143.621 57.777C143.808 57.6464 144.014 57.5643 144.237 57.5312C144.706 57.767 144.259 58.1825 144.85 58.3214C145.156 58.4183 145.866 58.7861 146.176 58.5954C145.736 58.8657 145.441 59.5345 145.188 60.2695C144.948 60.6625 144.726 61.0952 144.815 61.4199C144.666 61.87 144.515 62.2806 144.334 62.5665C145.355 62.7221 145.235 63.684 145.942 64.2122C146.897 65.0299 147.056 64.2709 146.831 63.8722C146.926 63.9207 147.024 63.9837 147.126 64.0556C147.145 64.069 146.94 64.5547 147.141 64.668C147.423 64.8271 147.423 64.6675 147.716 64.6643C147.992 64.661 148.393 64.2467 148.73 64.212C148.91 64.1937 149.44 64.4392 149.55 64.3662C149.856 64.1635 149.832 63.9411 149.713 63.6722L149.85 63.9454C150.179 64.8051 150.345 64.6115 150.844 64.3652C150.709 64.4317 151.235 64.0391 151.343 64.0706C151.097 63.3892 150.123 63.4608 149.522 63.2904C149.903 63.3984 150.52 63.4024 150.87 63.5532C151.456 63.8054 151.271 64.062 151.965 64.1406C152.257 64.1737 153.448 63.8501 153.658 63.638C153.678 63.6178 153.692 63.5933 153.703 63.5661C153.811 63.3935 153.919 63.2207 154.027 63.0479C154.467 63.099 153.99 63.7758 154.681 63.5066C155.197 63.305 154.946 63.0247 154.782 62.7189C154.728 62.6187 154.668 62.5474 154.604 62.4959C155.317 62.6666 156.165 63.6267 157.139 63.3577C157.688 63.2062 157.719 62.8314 158.121 62.4809C158.659 62.0127 158.826 62.0848 159.477 61.8584C159.872 61.7211 160.292 61.4182 160.689 61.3477C161.336 61.2327 161.157 61.3041 161.693 61.5765C162.013 61.7394 162.195 62.045 162.6 62.1042C162.969 62.1581 163.549 61.7332 163.848 61.8501C164.662 62.168 164.455 63.3098 164.501 64.0626C160.383 62.752 155.57 64.8468 152.539 67.7234C151.717 68.5034 151.179 69.4282 150.449 70.2762C149.657 71.1964 148.91 71.6145 148.798 72.9256C148.702 74.0561 149.212 74.7348 148.809 75.8209C148.423 76.862 148.002 77.7935 147.72 78.8787C146.371 84.0615 146.329 89.4436 145.33 94.698C144.405 99.5599 143.084 103.891 140.908 108.348C139.899 110.414 139.053 111.679 136.84 112.55C135.05 113.255 133.74 112.331 132.865 110.724C130.51 106.398 130.175 101.95 130.204 97.125C130.217 94.8073 130.482 92.4893 130.705 90.185C130.937 87.7967 130.763 85.5654 130.597 83.1806C130.264 78.3992 129.173 74.2984 127.531 69.8016C126.753 67.6688 126.096 65.5896 124.222 64.202C123.172 63.425 122.117 62.4531 120.886 61.7812C119.902 61.2435 119.316 60.7578 118.193 60.5172C117.454 60.3588 116.781 60.1144 116.068 59.8848C114.385 59.3436 112.438 59.1762 110.673 59.1821C106.551 59.1961 102.028 60.5837 98.3177 62.3629C96.4704 63.249 94.4643 64.5682 93.2474 66.2489C92.7454 66.9427 92.4035 67.7119 92.0624 68.4923C91.6542 69.4252 91.7825 69.5959 90.918 69.5633C90.3766 69.5429 89.771 69.0418 89.1508 69.0152C88.4719 68.9861 87.9749 69.2225 87.3429 69.3977C86.5407 69.6201 85.7865 69.8193 85.0733 70.2803C83.3425 71.3978 81.8787 73.179 80.5561 74.7329C78.1347 77.5773 75.9442 80.7649 73.679 83.662C71.4482 86.5144 68.7384 89.0459 65.2735 90.339C63.9517 90.8325 62.4881 90.9321 61.1386 91.3311C60.5465 91.5061 59.8292 91.9707 59.2088 91.9627C58.2338 91.9503 58.3087 91.4727 57.9711 90.6989C57.5699 89.7798 56.9894 89.0642 56.2641 88.3777C53.0459 85.3309 49.0437 89.8452 49.292 93.3228C49.4374 95.3546 50.9603 96.6948 50.9066 98.6889C50.8562 100.555 50.9673 102.447 51.6328 104.218C52.3796 106.203 54.2164 108.263 55.8361 109.614C57.3367 110.866 59.2161 111.131 61.1062 111.34C61.9726 111.436 62.8716 111.693 63.7093 111.678C64.4271 111.665 65.0799 111.375 65.8128 111.404C67.0558 111.454 67.7221 111.446 68.8869 111.005C69.7509 110.678 70.5304 110.496 71.4712 110.518C71.4712 112.5 71.5968 114.439 71.7672 116.415C71.7896 116.676 71.97 117.353 71.85 117.586C71.702 117.873 71.5262 117.684 71.3417 117.89C70.9017 118.383 70.5827 118.624 70.2532 119.265C69.3494 121.02 69.0727 122.983 69.4249 124.94C69.7012 126.474 70.6035 127.106 70.3902 128.736C70.1394 130.651 69.6729 132.606 69.5829 134.534C69.5397 135.453 69.5289 136.148 69.3343 137.04C69.2218 137.557 68.8435 138.49 68.874 139.013C68.8931 139.337 69.2358 139.48 69.2364 139.776C69.2372 140.034 68.9387 140 68.9182 140.221C68.8557 140.889 68.8193 141.494 68.8335 142.165C68.8524 143.073 68.7637 143.976 68.7977 144.884C68.8236 145.575 68.6626 147.213 69.4389 146.943C69.2318 147.432 69.1768 147.903 69.1563 148.372C69.1458 148.326 69.1412 148.28 69.1452 148.232C69.1927 147.691 69.2086 147.486 69.4389 146.943L68.9959 147.097C68.7249 147.796 69.0576 148.481 69.132 149.177C69.1296 149.247 69.1272 149.316 69.1229 149.386C69.0603 150.397 69.1366 151.386 69.2121 152.395C69.3844 154.697 69.4656 157.263 70.0882 159.332C70.7706 161.599 70.5525 164.45 70.8157 166.947C71.1168 169.805 71.6052 172.618 71.9689 175.465C72.2938 178.008 72.4505 180.767 73.0078 183.243C73.4649 185.271 73.8515 187.246 74.0966 189.378C74.4358 192.334 75.5147 194.586 76.7019 197.272C77.2039 198.408 77.2385 198.39 76.3168 199.221C75.9307 199.568 75.6034 199.975 75.21 200.315C74.4223 200.996 73.5619 201.392 72.5276 201.515C69.9814 201.817 67.409 202.722 65.9786 204.917C64.5962 207.039 65.4919 209.525 66.5265 211.687C65.1611 211.803 61.4684 211.72 62.3323 214.207C62.9228 215.908 66.0716 215.338 67.4624 215.357C69.4947 215.384 71.5413 215.284 73.5557 215.257C74.4728 215.244 74.5663 215.149 75.4594 215.499C76.3009 215.828 76.9432 215.864 77.8538 215.804C78.8234 215.741 79.7925 215.883 80.7322 215.744C81.9167 215.568 82.6536 215.42 83.8435 215.631C84.7037 215.783 85.3931 215.708 86.2514 215.595C87.2027 215.469 88.1036 215.545 89.085 215.519C91.3775 215.457 93.6524 215.5 95.9465 215.526C98.1764 215.551 100.408 215.246 102.623 215.346C106.485 215.52 110.415 215.362 114.295 215.452C116.085 215.493 117.467 216.535 119.261 216.428C121.084 216.319 122.932 216.302 124.741 216.048C127.856 215.609 130.857 214.988 134.022 214.826C136.022 214.724 137.78 215.585 139.662 216.126C140.344 216.322 140.957 216.23 141.595 216.375C142.196 216.512 142.813 216.905 143.449 217.068C144.953 217.453 146.39 217.6 147.712 217.636C147.883 217.952 148.08 217.991 148.304 217.752C148.395 217.7 148.486 217.649 148.577 217.597C148.998 217.541 149.299 217.351 149.741 217.323C150.423 217.28 151.121 217.372 151.753 217.312C153.078 217.184 154.322 217.1 155.787 217.251C156.655 217.34 157.416 217.214 158.271 217.23C158.261 217.229 159.445 217.46 159.471 217.45C159.576 217.409 159.742 217.117 159.81 217.104C159.785 216.825 159.87 216.698 160.063 216.725C160.218 216.692 160.32 216.773 160.369 216.968C160.323 216.974 160.738 217.184 160.767 217.188C160.791 217.192 161.86 217.065 161.935 217.037C162.242 216.922 162.373 216.589 162.617 216.539C162.907 216.479 163.08 216.799 163.331 216.785C163.884 216.756 163.819 216.509 164.244 216.432C165.738 216.163 167.566 216.513 169.109 216.515C170.646 216.518 172.175 216.377 173.655 216.312C175.475 216.232 177.258 216.578 179.092 216.332C180.836 216.099 182.581 215.997 184.338 215.923C188.01 215.769 191.778 215.932 195.416 215.5C199.205 215.051 203.056 215.5 206.85 215.433C210.851 215.361 214.873 215.325 218.872 215.161C222.852 214.998 226.816 214.524 230.78 214.429C231.789 214.404 232.779 214.164 233.784 214.091C234.704 214.024 235.609 214.171 236.536 214.089C238.225 213.942 239.761 214.055 241.458 214.029C243.357 214 245.201 213.71 247.089 213.594C248.998 213.476 250.888 213.746 252.781 213.369C253.816 213.163 255.746 211.746 254.426 210.558Z" fill="black"/>
<path fill-rule="evenodd" clip-rule="evenodd" d="M179.479 41.6943C179.476 41.6943 179.474 41.6946 179.472 41.6943C179.462 41.7053 179.452 41.7171 179.443 41.7275L179.479 41.6943Z" fill="black"/>
<path fill-rule="evenodd" clip-rule="evenodd" d="M195.289 32.9531C195.529 32.1195 194.922 31.5224 194.515 30.875C194.276 32.344 193.54 32.2804 195.289 32.9531Z" fill="black"/>
<path fill-rule="evenodd" clip-rule="evenodd" d="M151.247 64.2486C151.253 64.2655 151.261 64.2804 151.266 64.2982C151.273 64.2688 151.265 64.2537 151.247 64.2486Z" fill="black"/>
<path fill-rule="evenodd" clip-rule="evenodd" d="M144.619 63.1485C144.674 63.2712 144.793 64.1201 144.88 64.1243C145.649 64.1608 144.712 62.7246 144.22 62.6406C143.509 63.0996 144.636 63.1864 144.619 63.1485Z" fill="black"/>
<path fill-rule="evenodd" clip-rule="evenodd" d="M144.578 58.1875C144.527 57.5388 144.309 57.4566 143.688 57.772C143.873 58.1798 144.094 58.1212 144.578 58.1875Z" fill="black"/>
<path fill-rule="evenodd" clip-rule="evenodd" d="M135.969 42.305C136.266 42.3545 136.563 42.4039 136.859 42.4531C136.685 42.0576 136.511 41.6615 136.336 41.2656C136.214 41.6123 136.091 41.9586 135.969 42.305Z" fill="black"/>
<path fill-rule="evenodd" clip-rule="evenodd" d="M142.063 172.631C142.063 172.63 142.063 172.63 142.064 172.629C142.042 172.638 142.038 172.64 142.063 172.631Z" fill="black"/>
<path fill-rule="evenodd" clip-rule="evenodd" d="M81.4958 91.7784C82.1245 90.7269 83.3168 89.4282 84.674 89.8652C85.942 90.2738 86.293 91.9359 86.8394 92.9814C87.9023 95.0142 88.2332 92.8316 88.4688 91.5979C88.2768 89.1271 87.3155 85.1051 84.0635 85.5313C81.5899 85.8559 79.454 89.8294 79.925 92.1787C80.3206 94.1535 80.9887 92.6264 81.4958 91.7784Z" fill="black"/>
<path fill-rule="evenodd" clip-rule="evenodd" d="M175.235 45.2102C174.021 44.7767 174.022 46.0891 173.975 47.0755C173.932 47.9819 174.073 50.108 175.217 50.4318C176.356 50.7547 176.464 48.877 176.641 48.1178C176.375 47.2166 176.228 45.5645 175.235 45.2102Z" fill="black"/>
<path fill-rule="evenodd" clip-rule="evenodd" d="M176.641 43.241C175.749 42.453 175.154 42.2116 174.015 42.7206C173.429 42.9825 172.592 43.5522 172.5 44.2706C172.214 46.5065 175.855 43.6998 176.641 43.241Z" fill="black"/>
<path fill-rule="evenodd" clip-rule="evenodd" d="M176.827 56.6356C178.904 57.1724 179.037 54.3328 176.726 54.3281C175.181 54.3251 175.666 56.336 176.827 56.6356Z" fill="black"/>
<path fill-rule="evenodd" clip-rule="evenodd" d="M160.945 47.8083C160.17 47.9217 159.896 48.4083 160.062 49.1848C160.254 50.0808 160.74 50.0882 161.609 50.1719C163.705 50.1785 162.337 47.605 160.945 47.8083Z" fill="black"/>
<path fill-rule="evenodd" clip-rule="evenodd" d="M179.341 42.9998C179.533 43.5316 180.574 43.7719 181.118 43.5691C181.766 43.3278 181.9 42.7415 181.316 42.203C180.816 41.7419 180.126 41.8634 179.499 41.9062C179.52 42.1075 179.221 42.669 179.341 42.9998Z" fill="black"/>
<path fill-rule="evenodd" clip-rule="evenodd" d="M114.167 103.609C115.157 103.608 114.222 101.932 113.406 101.828C113.423 102.347 113.389 103.611 114.167 103.609Z" fill="black"/>
</g>
<defs>
<clipPath id="clip0_3_638">
<rect width="304" height="228" fill="white"/>
</clipPath>
</defs>
</svg>
