<svg width="304" height="228" viewBox="0 0 304 228" fill="none" xmlns="http://www.w3.org/2000/svg">
<g clip-path="url(#clip0_3_702)">
<path fill-rule="evenodd" clip-rule="evenodd" d="M110.472 57.7337C110.263 61.1571 110.053 64.5802 109.844 68.0037C111.191 67.6156 119.763 65.0936 119.233 67.6508C118.853 69.4848 116.443 71.4688 115.216 72.7457C114.086 73.9214 112.922 75.0662 111.729 76.1777C113.922 75.3383 116.133 74.5433 118.361 73.7995C120.046 73.2368 121.744 72.6874 123.47 72.2656C124.111 72.1089 125.842 71.4697 126.448 71.9056C128.039 73.0508 119.405 81.4858 118.222 82.6748C119.895 81.8971 121.607 81.1906 123.349 80.5844C124.606 80.1466 128.491 78.4739 129.604 79.9023C130.795 81.4306 127.844 84.9401 127.026 86.0529C125.854 87.6472 124.583 89.1768 123.25 90.6394C128.791 95.6164 135.302 100.046 142.232 102.8C147.314 104.818 152.305 105.332 157.667 104.225C163.175 103.086 168.457 100.903 173.479 98.4075C176.428 96.9415 179.338 95.3554 182.111 93.5735C180.968 92.1831 179.858 90.764 178.78 89.323C177.241 87.2656 175.35 85.0176 174.472 82.5684C173.614 80.1713 176.835 80.6393 178.381 80.7695C180.619 80.958 182.85 81.3581 185.043 81.8366C183.493 80.7581 181.97 79.6364 180.478 78.4782C178.534 76.9691 175.94 75.2624 174.667 73.0912C173.548 71.1819 176.004 71.6641 177.14 71.9142C179.848 72.5109 182.483 73.5274 185.066 74.5189C186.958 75.2451 188.838 76.0056 190.699 76.8065C189.544 75.802 188.427 74.7494 187.354 73.6579C185.911 72.191 183.965 70.3995 183.318 68.3794C182.001 64.2656 190.862 67.3688 192.375 68.0037C192.095 63.742 191.816 59.4804 191.537 55.2188C179.804 58.3408 168.071 61.4631 156.337 64.5855C155.07 64.923 153.483 65.6578 152.16 65.697C150.962 65.7328 149.516 65.1935 148.348 64.9705L127.115 60.9137C121.568 59.8537 116.02 58.7937 110.472 57.7337Z" fill="#7ED321"/>
<path fill-rule="evenodd" clip-rule="evenodd" d="M236.578 204.314C235.312 205.039 233.828 205.598 232.421 205.974C231.594 206.195 230.229 206.876 229.503 206.251C229.154 205.952 229.074 205.271 228.868 204.876C228.543 204.251 228.08 203.712 227.647 203.159C226.596 201.821 225.503 200.531 224.359 199.272C223.817 198.675 222.827 197.282 221.872 197.374C220.681 197.488 220.71 199.136 221.008 199.978C221.958 202.658 224.833 204.994 226.712 207.013C226.234 207.748 223.611 207.661 222.883 207.489C221.771 207.226 221.659 206.435 221.151 205.529C219.965 203.412 217.557 202.228 215.577 200.984C214.856 200.53 213.322 199.272 212.381 199.589C211.49 199.889 211.529 201.027 211.813 201.771C212.241 202.894 213.461 203.674 214.363 204.384C215.566 205.33 216.666 206.361 217.669 207.519C216.224 207.637 214.784 207.841 213.343 207.96C211.6 208.103 210.147 207.147 208.543 206.605C207.052 206.101 205.566 205.675 204.1 205.095C202.454 204.443 200.73 204.216 199.07 203.644C192.554 201.4 186.169 198.577 179.89 195.732C176.898 194.376 173.967 193.02 170.85 191.959C168.578 191.185 165.007 189.644 164.464 186.938C164.178 185.508 165.222 183.97 165.376 182.541C165.557 180.86 165.415 179.011 164.903 177.399C164.451 175.978 163.703 174.662 163.114 173.298C162.428 171.709 163.042 171.734 164.376 171.554C165.973 171.337 167.836 170.438 169.337 169.853C171.065 169.178 172.779 168.236 174.362 167.267C175.795 166.39 177.041 165.261 178.181 164.034C179.34 162.785 180.091 161.306 181.212 160.028C185.351 165.117 189.284 170.284 193.681 175.153C195.757 177.451 198.013 179.352 200.571 181.099C201.639 181.829 202.698 182.663 203.862 183.24C205.317 183.962 206.943 184.41 208.439 185.069C214.172 187.595 219.645 190.357 224.994 193.617C227.582 195.194 229.754 197.002 232.032 198.98C232.742 199.596 238.552 203.185 236.578 204.314ZM169.317 162.621C168.39 163.04 167.507 163.586 166.518 163.855C166.798 162.15 168.39 159.578 170.43 159.861C171.209 159.969 171.797 160.574 171.455 161.408C171.143 162.167 169.977 162.322 169.317 162.621ZM104.82 116.37C103.769 116.95 102.79 117.287 102.174 116.043C102.631 115.951 104.703 115.675 104.82 116.37ZM103.07 112.85C102.259 112.604 102.908 112.345 103.187 112.048C103.405 111.817 104.125 111.006 104.378 110.872C105.491 110.282 106.352 112.477 106.884 113.189C105.624 113.077 104.298 113.222 103.07 112.85ZM111.75 120.45C110.212 120.71 110.382 118.785 110.428 117.81C110.753 118.206 112.95 120.246 111.75 120.45ZM116.849 117.125C114.973 117.441 113.734 114.2 114.07 112.782C114.366 111.534 115.82 110.836 116.977 110.652C118.099 110.473 119.661 110.717 119.994 112.011C120.288 113.154 118.1 116.913 116.849 117.125ZM161.254 166.05C159.906 166.465 158.585 166.517 157.23 166.923C155.693 167.385 154.27 167.344 152.73 167.658C152.103 167.785 150.412 168.699 149.801 168.495C149.196 168.293 148.319 166.414 147.971 165.925C150.697 164.792 153.021 163.329 154.818 160.942C156.246 159.044 157.778 156.2 156.88 153.75C155.866 150.988 152.372 150.388 150.043 151.542C148.941 152.088 147.849 152.766 146.94 153.597C145.901 154.548 145.493 155.586 144.82 156.758C144.139 157.944 143.662 157.284 142.982 156.277C142.401 155.417 142.476 154.548 141.75 153.698C141.38 153.265 140.806 152.847 140.613 152.287C140.49 151.933 140.748 151.304 140.516 151.024C140.189 150.632 139.791 151.093 139.517 150.742C139.318 150.488 139.383 149.908 139.178 149.589C138.999 149.408 138.801 149.253 138.582 149.125C138.316 148.994 138.268 148.829 138.436 148.632C138.225 148.24 138.428 148.108 137.976 147.632C137.27 146.89 136.626 146.178 136.123 145.302C135.894 144.901 135.917 144.306 135.631 143.959C135.24 143.482 134.587 143.554 134.251 142.964C133.951 142.438 134.151 141.519 133.657 141.042C133.396 140.967 133.135 140.894 132.874 140.822C132.678 140.631 132.564 140.4 132.531 140.128C132.256 139.705 132.202 139.208 131.855 138.761C131.191 137.907 130.298 137.117 129.712 136.216C129.096 135.27 129.423 135.11 130.493 134.771C131.459 134.465 132.34 134.181 133.235 133.661C137.373 131.253 141.296 124.866 134.728 122.914C132.291 122.19 130.289 120.243 127.586 121.008C126.415 121.34 125.304 122.047 124.43 122.885C123.826 123.465 123.267 125.015 122.525 125.312C121.192 125.845 121.756 124.512 121.378 123.899C121.197 123.606 120.47 123.27 120.2 123.003C119.884 122.691 119.578 122.297 119.359 121.911C118.951 121.195 118.702 120.796 118.114 120.212C117.892 119.992 116.786 118.854 117.784 119.003C117.38 117.771 117.969 117.586 118.784 116.686C119.742 115.63 120.73 114.162 120.735 112.681C120.747 109.838 117.378 108.565 115.263 110.252C114.832 110.595 112.286 113.91 112.807 111.796C113.088 110.656 115.689 107.68 116.894 108.45C115.543 106.481 112.439 111.262 111.715 112.241C111.098 111.105 111.054 110.216 110.034 109.337C109.203 110.67 109.642 109.214 109.458 108.917C109.063 108.278 109.28 109.009 109.065 108.782C108.798 108.499 108.377 108.276 108.093 107.902C107.606 108.563 107.801 107.851 107.651 107.605C107.302 107.027 107.437 106.693 106.839 106.191C106.404 105.826 105.547 105.259 104.961 105.207C104.286 105.148 104.099 105.406 103.41 105.215C102.535 104.971 101.433 104.597 101.857 106.062C102.165 107.126 103.416 107.73 103.69 108.818C103.966 109.912 102.884 111.015 102.359 111.912C101.684 113.063 101.133 112.969 99.9119 113.229C99.1313 113.395 98.0897 113.749 98.7589 114.696C99.237 115.373 100.357 115.23 100.988 115.631C101.873 116.193 101.861 117.578 102.99 117.819C104.234 118.084 104.947 116.699 105.996 116.365C106.741 116.127 109.052 116.154 109.638 116.714C110.438 117.477 109.747 118.934 109.949 119.882C110.248 121.288 111.199 121.373 112.402 121.418C113.882 121.474 114.403 122.895 115.199 124.023C117.064 126.664 118.685 129.48 120.595 132.086C121.441 133.24 122.678 134.266 123.37 135.518C124.225 137.065 123.038 137.957 122.014 139.067C120.675 140.518 119.676 142.168 118.515 143.754C117.483 145.163 116.201 144.812 114.552 144.812C114.92 144.054 115.362 143.582 116.266 143.674C115.321 142.52 114.565 143.84 113.952 144.571C113.065 145.629 111.908 145.884 110.769 146.579C110.366 146.825 108.17 148.42 108.837 148.964C108.913 149.026 112.547 146.635 112.961 146.416C112.961 147.299 112.768 148.216 112.892 149.093C112.983 149.737 113.435 150.408 113.339 151.077C113.156 152.34 111.524 153.335 110.823 154.32C110.295 155.06 110.423 155.645 110.154 156.44C109.909 157.165 110.038 156.946 109.428 157.17C108.186 157.626 106.095 157.38 104.97 156.731C104.272 156.328 103.736 155.692 103.169 155.131C102.742 154.708 101.667 153.986 101.548 153.394C101.345 152.375 103.367 150.482 103.768 149.431C104.898 146.466 102.959 144.16 99.9427 143.992C100.872 143.275 102.025 143.815 103.005 144.089C101.33 141.767 98.4682 143.678 97.0471 145.255C96.076 142.801 95.6077 140.211 95.0146 137.651C94.6105 135.909 93.0725 132.797 93.7584 131.003C94.0901 130.135 95.0263 129.652 95.674 129.05C96.4099 128.366 97.04 127.549 97.5779 126.703C98.8455 124.709 99.5774 122.193 97.8322 120.229C98.3625 120.141 98.893 120.054 99.4232 119.967C98.5607 119.157 97.2 119.552 96.0806 119.311C95.3704 119.159 93.3268 119.258 92.8527 118.856C92.2824 118.372 92.648 116.149 92.6684 115.491C92.7152 113.953 92.8438 112.474 93.0136 110.945C93.1745 109.501 93.1422 107.941 93.4406 106.522C93.6829 105.371 94.457 105.02 95.3503 104.341C97.4854 102.719 99.2253 100.746 98.4963 97.9499C98.7546 97.9088 99.0129 97.8678 99.2713 97.8268C98.4358 97.2227 97.3547 97.4423 96.4256 97.123C97.2789 94.7212 99.1661 90.4992 102.23 90.2718C102.336 91.3454 102.264 92.6224 102.988 93.5112C103.813 94.5229 105.26 94.625 106.378 94.0897C107.391 93.6035 108.343 92.5733 108.81 91.5555C109.126 90.8666 109.069 89.7017 109.624 89.1556C110.368 88.4232 115.498 88.865 115.341 90.1012C115.249 90.828 113.877 92.0498 113.493 92.694C112.792 93.8728 112.23 95.1479 111.972 96.502C111.581 98.5579 111.808 101.272 113.896 102.353C116.27 103.583 119.164 102.02 121.112 100.669C122.181 99.9271 123.217 99.1087 124.194 98.2491C124.714 97.7919 125.237 97.3205 125.696 96.8003C126.034 96.4162 126.305 95.797 126.722 95.5095C127.706 94.8301 128.672 95.9828 129.505 96.5649C130.862 97.5133 132.213 98.4139 133.67 99.2031C136.626 100.805 139.329 102.926 141.943 105.032C144.572 107.151 147.283 109.331 149.413 111.97C148.123 112.764 148.353 112.97 147.779 114.385C147.372 115.39 146.811 116.245 146.746 117.361C146.634 119.287 147.871 120.929 149.748 121.355C150.797 121.594 151.797 121.403 152.77 120.974C153.525 120.64 154.279 119.819 155.068 119.615C156.536 119.237 157.71 122.009 158.533 122.986C162.187 127.324 166.049 131.49 169.49 136.005C169.871 136.505 171.003 137.482 171.095 138.144C171.227 139.095 169.731 140 169.111 140.546C168.785 140.832 165.331 144.081 166.491 144.598C166.821 144.745 167.789 142.751 168.031 142.581C168.937 141.942 168.252 143.194 168.198 143.826C168.063 145.398 169.143 146.255 170.661 146.056C172.281 145.843 173.723 144.564 174.725 143.356C175.982 144.811 177.945 147.011 178.309 148.955C178.541 150.196 177.466 153.235 179.472 153.488C179.778 153.527 180.886 152.705 181.093 153.172C181.265 153.561 180.067 154.227 179.894 154.356C179.156 154.907 178.711 155.497 178.115 156.165C177.415 156.948 176.459 157.608 175.672 158.358C174.843 159.149 173.203 161.297 172.109 160.259C171.559 159.738 171.703 159.056 170.823 158.75C170.021 158.471 169.005 158.825 168.259 159.134C167.42 159.481 164.656 160.751 164.35 161.796C163.927 163.238 166.211 161.505 166.617 161.251C166.154 162.427 165.898 164.129 164.718 164.815C163.738 165.385 162.329 165.72 161.254 166.05ZM145.588 157.158C146.372 154.637 150.998 150.142 153.921 151.548C150.514 152.262 147.81 154.594 145.588 157.158ZM147.318 164.377C146.178 163.742 146.239 161.896 145.841 160.817C145.613 160.197 145.156 159.745 145.29 159.057C145.448 158.251 146.475 157.355 147.023 156.774C148.745 154.945 151.775 152.445 154.547 152.864C158.074 153.398 155.683 158.134 154.481 159.765C153.458 161.156 149.512 165.6 147.318 164.377ZM139.088 161.294C135.273 161.039 131.47 160.698 127.707 159.998C126.373 159.75 125.255 159.786 126.019 158.252C126.271 157.746 127.791 154.573 128.134 154.664C128.337 154.718 128.291 156.899 128.35 157.149C128.62 158.271 129.376 159.318 130.652 159.246C132.738 159.13 134.083 156.432 135.182 154.984C136.062 156.167 136.699 157.482 137.584 158.646C138.007 159.202 139.479 160.496 139.088 161.294ZM116.72 146.318C116.08 147.787 114.793 149.184 113.898 150.514C113.392 149.443 113.036 146.983 114.236 146.191C114.691 145.891 117.125 145.389 116.72 146.318ZM129.952 150.692C130.129 150.126 130.324 149.565 130.541 149.015C130.915 150.19 131.105 150.224 129.952 150.692ZM133.218 151.895C133.681 152.68 134.453 153.452 134.332 154.437C134.24 155.184 133.565 155.95 133.083 156.47C132.285 157.331 130.518 158.984 129.362 157.841C128.396 156.886 128.732 154.259 129.181 153.185C129.823 151.649 132.114 150.025 133.218 151.895ZM130.953 150.286C131.218 150.181 130.66 148.468 131.178 148.297C131.629 149.326 132.055 149.605 130.953 150.286ZM123.662 127.23C123.49 126.598 123.096 126.625 123.238 125.843C123.331 125.331 123.738 124.784 124.047 124.378C124.661 123.568 125.472 122.901 126.349 122.396C128.201 121.331 130.744 120.888 132.401 122.557C130.851 122.801 126.101 124.331 126.07 126.451C127.794 126.119 129.149 124.388 130.877 123.842C132.296 123.394 133.835 123.426 135.246 123.899C139.109 125.193 137.503 128.532 135.322 130.7C134.028 131.988 132.476 132.95 130.779 133.613C129.994 133.92 129.512 133.954 128.74 133.8C128.595 133.771 128.427 133.502 128.253 133.445C127.823 133.302 127.947 133.786 127.593 133.568C127.283 133.379 126.623 132.158 126.412 131.808C126.077 131.251 125.921 130.71 125.51 130.202C125.098 129.693 124.897 129.012 124.516 128.552C124.334 128.33 123.832 128.339 123.698 128.123C123.496 127.799 123.753 127.562 123.662 127.23ZM117.729 152.133C118.607 150.607 120.11 149.312 121.272 147.978C121.343 150.17 119.772 151.671 117.729 152.133ZM118.916 152.837C120.729 152.199 121.728 150.673 121.913 148.822C122.148 146.477 123.62 145.247 124.506 143.141C124.846 142.334 125.242 139.678 126.559 140.438C127.011 140.699 127.279 141.679 127.515 142.122C128.084 143.194 128.732 144.233 129.336 145.286C129.828 146.143 130.566 147.004 130.349 148.036C130.159 148.935 129.55 149.893 129.194 150.741C128.351 152.745 127.245 154.59 126.32 156.549C125.947 157.339 125.506 159.21 124.367 159.201C123.466 159.193 123.567 158.208 122.973 157.87C122.224 157.443 121.372 158.255 120.757 158.591C121.465 157.395 122.704 156.717 124.097 156.942C122.429 155.282 121.303 157.522 119.872 158.021C118.516 158.494 116.111 156.264 114.969 155.632C115.406 154.893 115.801 153.988 116.552 153.502C117.264 153.04 118.138 153.111 118.916 152.837ZM104.174 168.011C104.372 167.055 104.933 166.49 105.289 165.622C105.702 166.675 104.736 167.296 104.174 168.011ZM132.983 173.878C132.886 177.098 132.623 180.309 132.528 183.529C132.484 185.015 132.221 186.431 132.047 187.899C131.899 189.141 131.974 190.36 131.193 191.421C129.96 193.093 127.565 193.574 125.705 194.193C124.34 194.648 122.958 195.061 121.61 195.566C120.396 196.021 119.418 196.71 118.264 197.25C117.232 197.734 116.118 198.02 115.09 198.536C114.028 199.069 113.188 199.718 112.096 200.193C110.789 200.761 109.712 201.771 108.55 202.574C107.527 203.28 106.445 203.825 105.565 204.713C104.739 205.546 103.695 205.912 102.759 206.652C101.77 207.435 100.735 207.943 99.6427 208.557C97.4047 209.815 94.3851 211.963 91.6917 210.741C92.4621 209.757 94.0386 208.811 94.1586 207.456C94.3145 205.69 92.7775 206.34 91.8875 206.904C90.5394 207.758 89.7937 208.789 88.7675 209.927C87.5677 211.258 86.0522 210.363 84.5842 209.988C85.5879 209.085 86.5837 208.173 87.5855 207.268C88.4314 206.504 89.7256 205.678 90.2407 204.621C90.6088 203.866 90.5909 202.83 89.7025 202.438C88.7086 202 87.5846 202.924 86.8485 203.475C84.8943 204.937 83.6073 206.791 82.3242 208.826C81.6417 209.908 81.3273 209.825 80.0717 209.609C78.7412 209.379 77.4104 209.135 76.0688 208.974C77.846 207.149 79.8322 205.172 81.2357 203.036C81.6904 202.344 82.2836 200.521 80.8982 200.353C80.3272 200.284 79.1906 201.451 78.7501 201.766C76.8256 203.142 74.9753 204.877 73.6997 206.885C73.2786 207.548 73.1463 208.285 72.3309 208.34C71.2649 208.413 69.284 207.395 68.2556 207.081C70.2211 204.603 72.1728 202.107 74.4691 199.922C76.579 197.915 78.6835 196.456 81.151 194.916C83.7956 193.265 86.259 191.365 88.687 189.415C91.0111 187.548 93.439 185.787 95.5785 183.703C99.8517 179.54 103.658 174.751 106.81 169.688C107.547 168.504 108.242 167.288 108.842 166.028C109.405 164.844 109.665 163.428 110.426 162.351C110.689 161.979 111.059 161.703 111.294 161.315C111.515 160.949 111.44 160.507 111.777 160.184C112.556 159.435 113.975 159.887 114.703 160.411C115.875 161.254 116.823 162.278 118.11 162.984C119.405 163.694 120.806 164.21 122.239 164.559C125.591 165.373 128.913 166.042 132.327 166.537C131.976 167.84 132.839 168.045 133.124 169.218C133.471 170.64 133.027 172.429 132.983 173.878ZM100.715 152.152C99.9547 151.023 99.2768 149.843 98.5299 148.706C98.0752 148.014 97.5113 147.271 97.9001 146.425C98.5548 144.998 100.865 144.744 102.118 145.366C104.968 146.78 102.321 150.824 100.715 152.152ZM93.1718 126.333C92.9094 124.127 93.7532 122.562 95.7492 121.405C97.1719 120.58 98.3175 121.707 98.1233 123.21C97.8276 125.5 95.3805 128.047 93.513 129.242C93.3909 128.274 93.2874 127.303 93.1718 126.333ZM92.8675 120.02C93.4563 119.553 95.0331 120.149 95.7153 120.19C94.7773 121.01 93.8389 121.829 92.9005 122.649C92.8391 122.087 92.3243 120.452 92.8675 120.02ZM96.0335 98.7113C100.781 98.0939 95.3158 103.189 93.94 103.988C94.1638 102.903 94.7138 98.8831 96.0335 98.7113ZM108.673 89.7911C108.035 92.4024 103.079 95.2513 103.027 90.9737C103.008 89.3799 103.903 89.5088 105.21 89.3558C105.956 89.2688 109.037 88.2982 108.673 89.7911ZM91.5539 93.8352C90.9975 95.2954 90.5514 96.7935 90.0061 98.2556C89.7644 98.9029 89.4802 99.3477 89.0301 99.8608C88.6534 100.29 88.2052 100.398 88.22 101.076C88.6919 100.985 89.0612 100.703 89.4426 100.432C89.3501 101.776 88.8751 103.222 88.6451 104.562C88.3695 106.168 88.1401 107.776 88.055 109.404C87.8704 112.947 87.8689 116.476 87.9465 120.02C87.9863 121.826 88.0042 123.633 88.1016 125.437C88.1503 126.335 88.2052 127.236 88.3162 128.128C88.3612 128.488 88.6226 129.254 88.461 129.592C87.8269 130.917 85.0179 127.278 83.7981 127.812C83.9735 126.804 83.5687 127.024 82.8927 126.528C82.5653 126.288 82.3523 125.879 82.0107 125.665C81.9075 125.554 81.7937 125.455 81.6698 125.368C81.5286 125.175 81.3797 125.196 81.2231 125.429C79.8488 124.608 79.4937 122.857 78.756 121.679C78.3765 121.073 78.01 120.979 77.9452 120.141C77.8891 119.412 77.9989 118.668 77.9693 117.936C77.9357 117.109 77.8873 116.198 77.6554 115.397C77.3863 114.468 77.0161 114.544 76.295 114.049C76.5173 113.952 76.6637 113.789 76.7346 113.559C76.5044 113.6 75.8046 113.886 75.6307 113.681C75.2888 113.278 76.0956 113.224 76.3077 113.063C75.4029 112.661 75.5977 112.331 75.9242 111.595C76.0167 111.387 76.1048 111.076 76.1834 110.9C76.3551 110.516 76.4538 110.759 76.5105 110.283C76.5645 109.828 76.1616 108.935 76.0429 108.451C75.8437 107.638 75.7337 106.936 75.9125 106.09C76.0574 105.405 76.447 104.784 76.4741 104.08C76.4818 103.882 76.1804 103.816 76.1763 103.625C76.1705 103.346 76.431 103.223 76.4988 102.965C76.6717 102.305 76.5938 101.607 76.8897 100.98C77.156 100.418 77.694 99.6896 78.0747 99.1984C78.3386 98.8581 78.986 98.4746 79.0569 98.0254C79.1037 97.7277 78.6404 97.762 78.661 97.5377C78.6891 97.2341 78.9437 97.1357 79.0137 96.9102C79.2064 96.291 79.2548 95.6958 79.7526 95.2213C80.3797 94.624 80.6522 94.8743 80.6781 93.8892C80.6907 93.4085 80.3063 93.3344 80.5122 92.7803C80.6241 92.4795 80.9543 92.3018 81.1654 92.0886C81.7925 91.4562 82.2151 90.8944 82.6615 90.1129C83.0564 89.4224 83.6862 89.0208 84.0907 88.4244C84.6175 87.6472 83.8299 87.2619 84.8989 87.0425C84.747 86.56 84.5854 86.1701 84.9853 85.7616C85.2374 85.504 85.8774 85.6616 86.1006 85.3636C86.3565 85.0214 85.9782 84.2107 86.3639 83.9885C86.6774 83.8084 87.1469 84.3643 87.6395 84.0891C88.015 83.8793 88.5819 82.7208 88.461 82.2951C89.4318 82.8412 89.1898 82.4651 89.6544 81.7644C89.7586 81.6074 90.0742 81.5725 90.1639 81.414C90.3434 81.0971 90.3024 80.7741 90.5607 80.5165C90.9914 80.0876 91.6958 80.1978 92.1696 79.8914C92.5611 79.6384 92.5404 79.3657 92.8527 79.1269C93.1197 78.923 93.558 78.8838 93.8176 78.6725C94.3259 78.2584 94.3309 77.8213 94.9668 77.4646C95.72 77.0426 96.3871 76.6835 97.072 76.1238C97.5187 75.7591 97.9426 75.1125 98.4651 74.8718C99.1877 74.539 99.7506 74.5155 100.458 74.0407C100.968 73.6973 101.451 73.1309 101.953 72.8415C102.331 72.6237 102.597 72.6706 103.074 72.5354C103.932 72.292 104.141 71.4834 104.841 71.1542C105.321 70.9281 106.021 71.1351 106.549 71.0163C108.191 70.6476 109.814 69.8523 111.462 69.4117C113.474 68.8743 115.5 68.4035 117.527 67.9284C115.664 70.4533 113.291 72.7314 110.885 74.7367C110.095 75.3951 105.767 78.396 108.1 79.6776C109.036 80.1919 111.071 78.5306 111.827 78.1245C113.349 77.3067 114.927 76.652 116.521 75.9905C119.1 74.9209 122.458 73.0186 125.324 73.1716C123.58 75.3118 121.402 77.0299 119.407 78.9205C117.573 80.6581 114.81 82.2877 115.675 85.1316C113.099 84.4763 110.786 83.7019 108.109 83.8735C106.909 83.9503 105.709 83.8059 104.515 83.974C103.217 84.1576 101.994 84.592 100.746 84.9733C99.7593 85.2747 98.6686 85.2985 97.7604 85.7998C97.3214 86.0423 96.7789 86.3885 96.3846 86.6893C95.859 87.0904 95.7394 87.356 95.3266 87.8845C93.854 89.7701 92.4291 91.5379 91.5539 93.8352ZM83.4988 129.525C83.4183 129.199 83.3452 128.901 83.2531 128.528C84.0728 129.033 84.0728 129.033 83.4988 129.525ZM77.304 119.13C77.2029 119.27 76.7784 119.315 76.6551 119.194C76.5016 119.044 76.9051 118.461 76.9698 118.337C77.1298 118.459 77.4979 118.861 77.304 119.13ZM75.549 115.347C75.6575 114.949 75.7663 114.551 75.8749 114.152C76.008 114.521 76.6089 114.93 76.6221 115.282C76.6304 115.515 75.6677 115.399 75.549 115.347ZM75.8974 115.894C76.8379 116.513 76.9362 117.244 76.9643 118.313C75.8388 117.94 76.0003 116.85 75.8974 115.894ZM92.2537 73.7202C92.1588 73.9771 91.7559 74.7778 91.4605 74.2178C91.3662 74.0385 92.0574 73.7939 92.2537 73.7202ZM91.9837 72.8474C92.2161 72.6379 92.6847 72.8986 92.9477 72.7292C93.132 72.6104 93.071 72.4901 93.1576 72.4198C93.1749 72.4056 93.4255 71.8984 93.5281 71.7833C93.7094 71.5809 94.1049 71.4547 94.3253 71.2721C94.9413 70.7615 95.289 70.0901 95.6765 69.4074C96.1389 68.592 96.2863 68.4976 97.032 68.1243C97.5462 67.867 97.9448 67.552 98.3631 67.1145C98.8452 66.6107 98.8098 66.25 99.2056 65.6993C99.401 65.4275 99.6825 65.3939 99.9103 65.1748C100.183 64.9126 100.322 64.5458 100.575 64.2811C100.684 64.1666 101.034 64.1669 101.1 64.0688C101.184 63.9448 101.25 63.4487 101.329 63.3574C101.479 63.561 101.63 63.7646 101.781 63.9682C102.375 62.923 102.809 62.0594 103.803 61.3637C104.847 60.6332 105.748 59.5645 106.827 58.9104C107.069 58.7636 107.563 58.7015 107.748 58.485C108.062 58.1184 107.79 57.7923 108.019 57.481C108.278 57.1281 108.78 57.4138 109.11 57.2617C109.527 57.0692 109.646 56.5068 110.183 56.5688C108.417 58.6577 108.44 61.908 108.346 64.5171C108.305 65.6413 109.013 66.2081 107.968 67.033C107.079 67.7349 105.825 67.5267 104.774 67.9885C103.454 68.5685 102.042 68.8771 100.695 69.3827C99.3021 69.9053 98.1818 70.8207 96.8411 71.4263C95.6589 71.9601 94.8515 72.719 93.7701 73.378C93.3681 73.623 92.7454 73.9787 92.2661 73.6859C91.9658 73.5023 91.5919 73.2009 91.9837 72.8474ZM111.926 55.3319C112.003 55.0351 113.51 54.2552 113.881 54.0007C114.437 53.6181 115.261 52.6839 115.882 53.0551C116.097 52.1931 116.937 51.2339 117.679 51.0512C118.502 50.8482 119.914 50.1424 120.724 49.5262C120.961 49.3464 121.039 49.0832 121.317 48.9145C121.802 48.6204 122.283 48.7809 122.749 48.3801C122.821 48.319 123.467 47.2525 123.492 47.2627C123.525 47.3771 123.556 47.4928 123.582 47.6091C124.072 47.3373 124.508 47.121 124.814 46.7743C124.883 46.6956 124.434 46.4911 124.576 46.3353C124.749 46.1446 125.137 46.3578 125.312 46.1767C124.767 48.8855 125.173 52.372 127.921 53.7452C124.653 54.0985 121.461 53.1158 118.153 53.7193C116.569 54.0084 114.959 54.4826 113.519 55.211C112.636 55.6574 111.508 57.2561 110.629 56.4799C110.978 56.015 111.509 55.7262 111.926 55.3319ZM127.783 47.5391C129.005 46.0443 130.859 45.4529 132.726 45.9882C134.911 46.6151 133.99 48.1422 133.659 49.8378C133.029 48.9132 131.662 47.996 130.499 47.9682C128.85 47.9291 129.473 49.3032 130.464 49.7956C131.364 50.2429 132.908 50.3676 133.553 51.1811C134.18 51.9728 133.94 53.2673 134.041 54.2009C133.553 54.1284 133.065 54.0559 132.577 53.9834C132.987 51.8046 131.185 51.6991 129.505 51.0849C127.808 50.4644 126.393 49.2402 127.783 47.5391ZM133.257 42.174V44.196C132.578 43.8085 131.898 43.4213 131.218 43.0338C131.898 42.7472 132.578 42.4606 133.257 42.174ZM138.72 58.3307C140.989 58.9456 143.242 59.5962 145.424 60.4447C146.216 60.7529 147.084 60.8618 147.86 61.2098C148.599 61.5408 148.71 61.5063 148.447 62.1542C147.711 63.9692 145.966 63.6557 144.437 63.378C142.045 62.9433 139.701 62.3408 137.338 61.7738C135.029 61.22 132.671 60.8568 130.396 60.1627C128.062 59.4506 125.787 58.7762 123.386 58.306C122.685 58.1687 117.142 57.6603 117.184 57.0809C120.675 56.6274 124.269 57.0741 127.776 57.1213C131.42 57.1704 135.185 57.3725 138.72 58.3307ZM135.64 51.3098C135.683 50.0618 135.7 48.8099 135.855 47.5693C136.894 48.8512 137.831 49.235 139.141 48.0333C140.394 46.8832 140.674 46.2834 142.263 47.3648C143.64 48.3027 144.944 48.2595 146.407 47.4385C147.299 46.9378 148.733 44.8917 149.671 45.3128C150.118 45.5137 150.446 46.3229 150.897 46.6206C151.464 46.9936 152.335 47.2525 152.995 47.3972C154.554 47.7387 155.482 46.736 156.461 45.6636C157.88 44.1084 157.838 45.0117 159.154 46.09C160.621 47.2929 161.848 46.7052 163.177 45.6787C163.986 48.0503 164.289 50.6403 164.518 53.1266C164.595 53.9661 164.883 55.1582 164.129 55.7518C163.598 56.1705 162.47 56.1868 161.829 56.4182C159.542 57.2453 157.344 58.4186 155.431 59.9208C154.686 60.5061 154.036 61.2227 153.017 61.0895C152.046 60.9624 151.103 60.1497 150.322 59.6132C149.475 59.0313 148.618 58.3705 147.628 58.0463C147.048 57.8562 146.119 57.925 145.612 57.5767C144.668 56.9291 145.778 55.2304 145.543 54.0901C145.366 53.2244 144.867 51.4193 143.675 51.9268C141.901 52.6818 142.933 55.629 143.909 56.549C141.913 56.1945 139.703 55.6768 137.778 55.0191C136.291 54.511 135.586 52.832 135.64 51.3098ZM169.117 57.3882C173.215 56.2377 177.049 55.4618 181.313 55.2523C183.201 55.1595 185.028 55.2181 186.895 55.235C187.97 55.2449 188.788 54.3783 187.93 53.3815C186.742 52.0012 183.118 52.5266 181.512 52.4646C177.208 52.2983 173.261 52.7876 169.185 54.2064C169.616 53.4123 170.651 53.3093 171.361 52.8986C172.232 52.3945 172.824 51.5643 173.196 50.6428C174.164 48.2462 173.189 45.9879 172.177 43.7986C174.166 44.3336 176.223 45.505 178.222 45.8024C178.641 45.8648 178.91 45.8247 179.281 45.9774C179.508 46.0709 179.58 46.3945 179.862 46.4651C179.999 46.4994 180.326 46.1915 180.48 46.235C181.089 46.4071 180.607 46.4528 180.992 46.7021C181.298 46.8998 181.273 47.1544 181.834 47.0609C182.082 47.0198 182.352 46.6354 182.483 46.625C182.649 46.6114 182.611 46.4084 182.866 46.4676C183.33 46.5756 183.289 47.1738 183.444 47.4681C183.609 47.7816 183.375 48.1984 183.876 48.3699C184.25 48.4983 184.344 48.1027 184.663 48.1311C184.856 48.1484 185.257 48.427 185.428 48.5967C185.978 49.1434 186.732 49.7471 187.472 50.1029C187.399 50.0297 187.82 49.8536 187.72 49.8122C187.652 49.7848 188.094 49.8915 188.088 49.89C188.515 49.9872 188.741 50.6431 188.956 50.8822C189.353 51.3206 189.97 51.7834 190.527 51.9768C191.489 52.3115 191.459 51.9114 191.811 53.0548C192.495 51.9793 192.757 53.7804 193.605 53.9788C194.045 54.0815 193.993 53.8933 194.393 54.1231C194.667 54.2808 194.85 54.7636 195.056 54.9966C195.145 54.6606 195.233 54.3243 195.322 53.9886C195.933 55.1462 197.252 56.9819 198.698 56.6499C198.698 56.9658 198.568 57.3434 198.812 57.6131C198.983 57.8016 199.26 57.5875 199.394 57.697C199.51 57.7927 199.789 58.1734 199.878 58.236C200.054 58.3594 200.374 58.4495 200.527 58.5726C200.662 58.6809 200.728 59.1983 200.878 59.3852C201.159 59.7366 201.644 59.8063 201.874 60.2278C201.926 59.8122 201.979 59.3963 202.031 58.9808C202.486 59.3328 202.526 59.6061 202.637 60.121C202.797 60.8544 202.585 60.6825 203.091 60.992C203.588 61.2965 203.847 61.2622 204.303 61.7904C204.75 62.3081 204.754 62.6271 205.398 62.0878C205.518 62.4867 205.557 63.0029 205.877 63.3086C206.118 63.5397 207.119 63.5496 207.215 64.0953C205.335 62.5086 206.572 64.9185 207.216 64.0994C207.352 64.9762 207.994 65.2594 208.727 65.8838C209.41 66.4657 209.522 66.4234 209.755 67.4011C209.75 67.3795 210.099 67.5958 210.124 67.639C209.458 67.734 210.49 68.4781 210.665 68.6142C210.792 68.7135 210.958 68.4763 211.17 68.637C211.412 68.8209 211.609 69.2389 211.806 69.491C212.339 70.1744 212.734 70.7615 213.296 71.3171C213.902 71.9169 214.197 72.6749 214.779 73.3759C215.424 74.1542 215.773 75.0492 216.313 75.8943C216.826 76.698 217.508 77.3431 218.102 78.0789C219.05 79.25 219.372 81.8292 221.138 81.8971C221.034 82.0042 221.178 82.8035 221.195 82.951C221.279 83.6769 221.223 84.3754 221.653 85.0329C221.751 84.2829 222.143 84.5719 222.484 84.9659C223.051 85.6215 222.553 85.4565 222.583 86.1207C222.62 86.9259 222.711 86.303 223.018 87.0061C223.258 87.5568 223.39 87.9141 223.519 88.5253C222.521 88.6043 222.064 87.7892 221.696 86.9994C221.541 86.6689 221.488 86.1259 221.215 85.8677C220.925 85.5928 220.526 85.5712 220.228 85.2646C219.655 84.6753 219.407 83.7565 218.732 83.183C217.969 82.5351 217.8 82.2291 217.169 81.4544C216.472 80.5976 215.509 79.996 214.778 79.1673C214.045 78.3371 214.104 78.7903 213.184 78.4898C212.205 78.1699 210.622 75.0924 209.389 76.2778C209.438 75.5025 208.277 74.7731 207.69 74.4921C207.436 74.3708 207.141 74.4807 206.887 74.2986C206.611 74.1012 206.592 73.7205 206.314 73.4835C206.314 73.4838 205.888 73.5869 205.802 73.5434C205.626 73.4542 205.625 73.1389 205.469 73.0352C205.04 72.748 204.527 72.4469 204.071 72.2023C202.963 71.6077 201.983 70.8756 200.913 70.1599C199.997 69.5465 198.888 68.439 197.829 68.1156C196.904 67.8333 196.322 67.9771 195.564 67.4116C195.152 67.1037 195.273 67.0003 194.61 66.8088C193.979 66.6264 193.624 66.7202 193.29 66.0507C192.705 64.8793 193.074 62.5929 192.961 61.2792C192.841 59.885 192.698 58.4563 192.334 57.1006C191.904 55.4985 191.336 54.6609 189.618 55.0382C186.213 55.7867 182.849 56.4987 179.428 57.1559C172.612 58.4652 165.913 60.602 159.246 62.4991C158.739 62.6438 155.906 63.2923 156.485 61.8274C156.751 61.1518 158.544 60.9 159.144 60.6878C162.439 59.5216 165.749 58.3335 169.117 57.3882ZM167.972 54.4067C167.474 54.5964 166.976 54.7862 166.479 54.9762V53.5919C166.976 53.8634 167.474 54.1349 167.972 54.4067ZM165.903 47.0871C166.336 47.4407 167.215 46.5898 167.583 46.4173C168.211 46.123 169.011 45.8703 169.713 45.9308C171.007 46.0428 171.954 47.3173 171.717 48.6093C171.316 50.7955 168.201 51.8293 166.483 52.6839C166.428 51.9092 166.178 50.9778 166.721 50.3077C167.193 49.7259 168.107 49.7681 168.542 49.1492C169.638 47.5937 166.669 47.4527 166.006 48.6895C165.744 47.8991 165.483 47.1087 165.221 46.3183C165.852 46.2137 165.575 46.8193 165.903 47.0871ZM168.967 42.808C168.349 43.2075 167.73 43.607 167.113 44.0066C166.806 42.6235 167.85 42.4415 168.967 42.808ZM225.28 90.9465C224.471 91.3328 224.269 90.4103 223.687 90.3705C224.374 89.9478 224.374 89.9478 225.28 90.9465ZM228.572 111.088C228.673 112.413 228.594 113.755 228.77 115.075C228.905 116.08 229.312 117.014 229.355 118.03C229.45 120.255 228.699 122.521 227.182 124.152C225.746 125.695 223.693 127.023 221.755 127.672C220.882 127.964 219.971 128.611 219.123 128.851C218.185 129.116 217.293 128.539 216.52 129.573C216.004 125.137 216.381 120.502 216.34 116.038C216.299 111.565 216.347 107.09 215.591 102.664C214.917 98.723 213.588 94.2899 211.139 91.0656C210.144 89.7563 208.919 88.6839 207.628 87.6799C206.958 87.1592 206.287 86.6023 205.541 86.191C204.392 85.558 203.413 85.6456 202.164 85.4651C200.376 85.2069 198.713 84.9887 196.919 85.4922C195.248 85.9612 193.408 86.4952 191.911 87.3097C190.42 88.1214 188.689 88.4559 187.142 89.1827C186.089 89.6773 183.902 91.3294 182.734 91.032C181.603 90.7438 179.929 88.8249 179.207 87.9653C178.285 86.8667 177.522 85.5934 176.703 84.4115C176.416 83.9966 175.83 83.3551 175.755 82.8223C175.625 81.8974 175.996 82.1997 176.879 82.3031C179.151 82.5697 181.288 82.9911 183.465 83.7062C184.549 84.062 186.668 85.5015 187.751 84.6389C189.406 83.3218 186.892 81.0582 185.971 80.2977C184.402 79.002 182.578 78.0397 180.906 76.8883C179.129 75.6647 176.78 74.3622 175.636 72.4781C178.975 73.4638 182.311 74.5926 185.552 75.8634C187.035 76.4447 188.501 77.0589 189.894 77.8321C190.676 78.2662 192.257 79.4404 193.199 78.8779C195.248 77.6553 190.544 74.1046 189.865 73.3789C188.81 72.2513 187.777 71.1345 186.618 70.1114C185.836 69.4213 184.607 68.936 184.244 67.9179C185.542 68.3877 186.591 69.3081 187.806 69.9334C188.443 70.2611 189.023 70.4496 189.726 70.5498C190.475 70.6572 190.565 70.7766 191.155 71.0743C191.615 71.3066 192.087 71.617 192.603 71.775C192.971 71.8876 193.613 71.907 193.935 72.1156C194.099 72.35 194.268 72.5805 194.444 72.8069C194.64 72.8646 194.833 72.931 195.023 73.0066C195.308 73.2608 195.477 73.6113 195.755 73.8735C197.768 75.777 200.46 77.1395 202.717 78.7342C204.852 80.2428 207.118 81.6077 209.169 83.2543C211.528 85.1495 213.978 87.1863 215.985 89.4588C217.119 90.7432 218.052 92.1994 219.005 93.6195C219.695 94.6478 220.698 95.5008 221.294 96.5612C222.594 98.8729 223.674 101.372 225.073 103.646C226.5 105.964 228.358 108.267 228.572 111.088ZM209.389 124.501C209.778 122.897 211.972 121.023 213.374 120.316C212.667 122.064 210.785 123.256 209.389 124.501ZM213.007 130.097C211.811 132.578 206.553 132.862 207.266 129.191C207.616 127.392 209.1 126.288 210.373 125.11C210.962 124.567 212.404 122.62 213.315 122.934C213.272 124.333 213.19 125.738 213.193 127.138C213.195 128.072 213.43 129.219 213.007 130.097ZM211.487 101.501C211.972 102.591 212.456 103.498 211.556 104.473C211.15 104.913 209.826 105.875 209.227 105.662C207.305 104.976 210.969 101.991 211.487 101.501ZM199.862 91.8054C200.325 91.7801 200.774 91.8489 201.232 91.8209C201.687 91.7925 201.735 91.7116 202.158 91.7693C202.203 91.8341 202.247 91.8989 202.292 91.9637C202.349 92.3984 202.578 92.4456 202.976 92.1056C203.531 92.229 203.892 92.3114 204.422 92.611C202.991 93.643 201.249 94.8428 199.494 95.1892C196.721 95.7366 197.487 91.9362 199.862 91.8054ZM157.346 115.013C157.059 115.591 156.232 114.146 156.027 113.876C156.409 113.875 157.637 114.429 157.346 115.013ZM179.63 99.7846C181.784 98.5274 184.343 97.4232 186.658 96.4872C187.064 98.4478 185.08 100.979 183.857 102.32C182.869 103.405 181.677 104.531 180.337 105.155C178.888 105.83 177.305 105.534 177.375 103.639C177.401 102.947 177.559 101.833 177.84 101.2C178.204 100.385 178.891 100.215 179.63 99.7846ZM150.503 64.1213C150.824 64.1024 154.307 63.652 154.289 64.0855C154.234 65.3883 150.852 64.3653 150.503 64.1213ZM125.868 89.2777C127.708 87.0074 130.678 84.5568 130.722 81.3837C130.786 76.7146 125.604 79.0442 122.999 79.2383C124.376 77.8848 131.299 72.2066 127.204 70.1898C126.027 69.6101 124.355 70.1765 123.174 70.4801C121.078 71.0191 119.13 71.9524 117.072 72.6018C118.542 71.0361 121.084 69.2565 121.001 66.8853C120.899 63.9988 118.529 64.6966 116.481 65.1202C115.693 65.2831 112.176 66.6823 111.516 65.7323C111.274 65.3843 111.665 64.9422 111.748 64.6325C111.894 64.0842 111.849 63.893 111.854 63.333C111.864 62.2032 112.615 60.7526 112.003 59.7018C111.863 59.9405 111.743 60.1889 111.643 60.4471C111.441 59.8357 111.577 59.1871 111.375 58.5757C116.49 59.8838 121.693 60.5998 126.84 61.7164C129.446 62.2816 131.898 63.2549 134.539 63.693C137.203 64.1345 139.821 64.8105 142.489 65.2316C144.924 65.6157 147.257 66.2553 149.668 66.7458C152.019 67.224 154.43 66.176 156.724 65.6453C161.862 64.4569 166.999 63.2395 172.145 62.0863C178.082 60.755 184.259 59.6169 189.942 57.3968C190.052 60.3558 190.289 63.3092 190.651 66.2479C188.141 65.0613 184.416 63.5141 181.878 65.6373C180.863 66.4867 180.55 67.9534 180.951 69.2007C181.388 70.5585 182.726 71.1891 183.609 72.2112C180.922 71.5223 173.99 66.6653 172.756 71.5747C171.884 75.0422 176.136 77.282 178.214 79.2337C176.15 78.8295 173.386 77.1793 172.174 79.8316C171.126 82.1245 172.388 84.6194 173.68 86.5107C174.381 87.5352 175.168 88.4997 175.913 89.4925C176.306 90.0176 176.691 90.5501 177.104 91.0597C177.519 91.571 178.302 92.1062 178.593 92.6563C179.178 93.7657 177.997 93.8336 177.078 94.2344C175.931 94.7348 174.946 95.5752 173.897 96.245C171.495 97.7786 169.396 99.203 166.557 99.6933C163.635 100.198 160.821 100.725 157.937 101.428C155.062 102.13 152.715 102.804 149.776 101.897C148.437 101.484 147.345 101.116 145.924 101.194C144.431 101.276 143.559 101.199 142.332 100.274C137.05 96.2965 131.318 93.0327 125.868 89.2777ZM116.347 85.2846C118.388 84.2606 120.443 83.2314 122.551 82.3515C124.296 81.6228 126.946 80.7741 128.856 81.0934C128.318 82.4768 127.335 83.6118 126.281 84.6306C125.349 85.5314 124.184 86.8911 123.056 87.5198C122.032 88.0906 120.84 87.1866 119.83 86.8078C118.72 86.3919 117.192 86.1978 116.347 85.2846ZM116.86 90.451C117.877 90.0284 120.063 91.4466 120.988 91.8153C122.806 92.5403 124.634 93.2974 126.236 94.4411C124.28 96.7019 122.064 98.769 119.431 100.221C117.699 101.177 114.78 102.272 113.146 100.538C111.093 98.3577 113.561 93.9157 115.014 92.0476C115.062 92.3672 115.111 92.6866 115.159 93.0062C115.623 92.2639 115.977 90.8182 116.86 90.451ZM154.199 109.801C152.931 110.068 152.499 109.827 151.662 108.854C151.095 108.196 150.539 107.513 149.901 106.922C149.249 106.318 147.64 104.863 149.69 105.701C151.559 106.465 153.16 106.847 155.216 106.547C157.567 106.205 159.759 105.211 162.076 104.708C160.806 105.82 159.544 106.943 158.271 108.052C156.926 109.223 155.908 109.441 154.199 109.801ZM154.49 118.744C151.709 120.837 146.111 120.61 147.995 116.006C148.281 115.306 148.682 114.648 149.145 114.053C149.299 113.854 149.574 113.441 149.794 113.308C150.41 112.935 150.239 112.89 150.83 113.512C151.34 114.048 155.327 118.432 154.49 118.744ZM153.665 110.743C153.92 110.661 154.993 110.038 155.238 110.383C155.485 110.731 153.381 111.937 153.665 110.743ZM173.909 142.659C173.284 144.155 168.28 146.32 169.212 143.305C169.625 141.969 170.014 140.957 171.572 140.856C172.471 140.798 174.459 141.341 173.909 142.659ZM182.885 122.385C183.709 121.186 186.429 119.564 187.59 121.352C188.15 122.214 186.792 122.656 185.971 122.434C185.53 122.315 185.169 122.051 184.69 122.031C184.074 122.006 183.471 122.49 182.885 122.385ZM185.069 123.576C184.509 124.143 181.13 126.985 180.583 126.547C181.686 124.97 182.953 123.208 185.069 123.576ZM179.551 152.342C178.378 152.408 178.964 150.641 179.077 149.934C179.361 150.426 180.855 152.268 179.551 152.342ZM182.532 149.174C182.152 148.498 181.13 147.493 181.361 146.624C181.538 145.96 183.134 145.067 183.802 145.448C184.69 145.954 183.403 149.286 182.532 149.174ZM210.367 142.092C209.866 143.821 209.346 143.375 207.772 143.71C206.193 144.046 205.102 145.387 203.712 146.106C204.195 145.085 204.495 143.841 205.303 143.013C205.49 142.822 206.635 142.445 205.983 142.001C205.412 141.614 204.592 142.871 204.347 143.213C203.143 144.899 202.301 146.957 201.606 148.896C201.264 149.849 200.99 150.819 200.829 151.819C200.684 152.71 200.84 153.643 200.693 154.511C200.456 155.909 198.557 155.917 197.415 156.277C196.381 156.603 195.352 156.957 194.279 157.133C193.348 157.285 192.383 157.008 191.481 157.191C190.505 157.389 190.066 157.969 188.956 157.838C188.052 157.731 187.205 157.315 186.288 157.273C185.43 157.235 184.574 157.532 183.721 157.29C182.86 157.046 182.901 156.952 183.097 156.106C183.219 156.334 183.342 156.562 183.465 156.79C183.808 156.521 184.045 155.701 184.255 155.316C184.582 154.719 184.847 154.512 184.726 153.769C184.548 152.672 183.559 151.891 183.334 150.847C183.1 149.757 183.906 148.867 184.382 147.957C185.032 146.712 185.024 145.789 184.478 144.502C184.89 144.61 185.301 144.719 185.712 144.828C185.149 143.604 183.237 144.1 182.278 144.463C181.796 144.645 181.032 145.361 180.514 145.342C179.802 145.317 179.43 144.381 179.124 143.865C178.238 142.373 177.227 140.899 176.178 139.513C175.89 139.132 175.513 138.887 175.612 138.453C175.697 138.085 176.523 137.562 176.791 137.335C177.797 136.485 179.076 136.014 180.02 135.119C181.447 133.767 183.093 132.798 184.551 131.473C186.071 130.092 187.638 128.824 189.221 127.52C190.826 126.198 192.215 124.641 193.808 123.306C194.221 124.054 195.02 126.732 195.934 126.939C197 127.18 196.969 125.919 196.916 125.16C196.84 124.078 196.24 123.028 196.173 121.995C196.101 120.891 197.163 120.398 197.965 119.759C199.203 118.772 201.944 116.525 200.471 114.675C199.202 113.082 195.075 116.137 193.937 117.055C192.97 117.836 192.223 118.542 191.135 119.158C190.369 119.59 189.085 121.254 188.178 121.101C187.099 120.918 186.677 119.739 185.357 119.778C184.067 119.816 182.971 120.745 182.171 121.678C180.363 123.787 179.741 126.609 178.093 128.807C177.28 129.891 176.226 130.785 175.345 131.811C174.377 132.936 174.172 134.233 173.217 135.334C170.486 131.696 167.51 128.251 164.63 124.731C163.191 122.974 161.783 121.196 160.375 119.414C159.848 118.746 159.253 118.119 158.77 117.418C158.108 116.457 158.227 115.685 157.967 114.614C157.852 114.139 157.313 113.57 157.458 113.116C157.652 112.506 159.015 112.027 159.507 111.778C161.515 110.759 163.336 109.485 165.208 108.24C168.675 105.934 172.183 103.772 175.87 101.803C175.806 102.651 175.254 103.531 175.625 104.382C175.798 103.892 176.071 101.711 176.725 101.617C176.6 101.635 176.703 104.415 176.804 104.811C177.106 105.996 177.981 106.806 179.234 106.798C181.62 106.782 183.758 104.187 185.083 102.467C185.979 101.303 186.84 99.9497 187.156 98.4929C187.44 97.1847 187.128 96.2749 188.487 95.6107C191.278 94.248 194.09 93.1376 197.074 92.4151C196.94 93.701 196.568 95.284 197.736 96.2089C199.026 97.2298 200.714 96.32 201.929 95.6446C203.132 94.9757 204.987 93.1382 206.401 93.672C207.791 94.1971 208.758 95.9402 209.536 97.0977C210.222 98.118 210.968 98.8538 210.174 99.991C209.284 101.265 208.705 102.509 207.992 103.894C207.718 104.426 207.456 104.773 207.65 105.318C207.713 105.495 208.427 106.549 208.621 106.7C209.859 107.663 211.531 105.831 212.415 105.135C212.726 108.131 212.796 111.113 212.922 114.118C213.014 116.319 213.866 118.486 212.06 120.095C210.254 121.703 208.747 123.354 207.647 125.532C207.059 126.695 206.532 127.889 205.896 129.029C205.471 129.79 204.575 130.906 205.123 131.802C205.702 131.253 205.874 130.418 206.356 129.799C206.645 131.084 206.936 132.509 208.295 133.054C209.859 133.68 211.413 132.596 212.798 131.993C212.302 135.428 211.333 138.766 210.367 142.092ZM208.769 146.041C207.696 148.335 206.726 151.101 204.744 152.79C204.309 153.161 202.46 154.609 201.756 154.366C201.159 154.16 201.488 152.953 201.592 152.436C202.12 149.811 203.033 148.159 205.162 146.485C206.043 145.791 207.174 144.905 208.31 144.734C209.533 144.55 209.181 145.16 208.769 146.041ZM239.042 200.49C236.26 196.706 232.327 193.765 228.61 190.922C226.926 189.635 225.071 188.669 223.37 187.381C221.447 185.925 219.494 184.52 217.34 183.423C213.256 181.342 208.801 179.891 204.947 177.43C203.067 176.23 201.011 175.071 199.244 173.723C198.468 173.131 197.782 172.374 197.081 171.697C196.429 171.067 195.03 170.152 194.771 169.23C195.855 169.053 196.472 168.001 197.44 167.893C197.759 167.858 199.757 168.386 199.484 167.417C200.208 167.399 200.293 167.388 200.9 167.23C201.152 167.164 201.45 167.267 201.704 167.176C202.093 167.039 202.358 166.642 202.751 166.49C203.03 166.382 204.068 166.503 204.225 166.368C204.654 166.002 204.198 166.034 203.942 165.576C204.776 165.555 205.349 165.976 206.186 165.528C206.441 165.391 206.656 165.077 206.903 164.914C207.341 164.624 207.499 165.073 207.799 164.472C208.079 165.301 208.072 165.072 208.748 164.828C209.422 164.585 209.908 164.41 210.675 164.349C212.508 164.204 214.348 164.427 216.172 164.296C216.839 164.249 217.41 164.097 218.073 164.184C218.657 164.261 218.481 164.667 218.966 164.12C219.079 163.993 218.714 163.645 218.889 163.463C218.966 163.382 219.217 163.438 219.313 163.397C220.166 163.025 220.169 163.545 220.321 164.223C220.821 164.105 221.331 163.999 221.766 163.706C221.546 163.51 221.179 163.294 221.391 162.936C222.112 163.209 222.584 163.083 222.223 163.875C222.949 164.115 223.085 163.802 223.737 163.734C224.123 163.693 224.661 163.933 224.982 163.625C225.333 163.289 224.78 162.923 225.424 162.634C225.556 162.701 225.654 162.803 225.718 162.938C226.066 163.044 226.003 163.181 225.53 163.349C226.797 164.006 226.5 163.272 227.032 162.495C227.155 162.316 227.705 161.76 227.956 162.029C228.336 162.436 227.56 162.565 227.726 162.97C228.015 163.673 229.022 162.773 229.331 162.417C229.565 162.148 229.66 161.633 229.912 161.432C230.262 161.153 230.766 161.584 231.204 161.507C233.206 161.156 235.097 158.464 233.589 156.662C233.183 156.178 232.84 156.274 232.357 155.968C231.88 155.666 231.612 155.143 231.229 154.712C230.354 153.727 229.282 152.989 228.059 152.517C225.222 151.422 222.165 150.624 219.185 150.036C217.805 149.764 216.337 149.348 214.924 149.351C214.091 149.353 212.838 150 212.06 149.69C210.547 149.087 212.768 146.001 213.135 145.005C214.211 142.076 215.023 138.954 215.556 135.88C215.66 135.279 215.62 134.499 215.837 133.926C216.086 133.267 216.139 133.36 216.671 133.307C217.633 133.209 218.685 133.714 219.687 133.539C220.797 133.346 221.996 133.436 223.117 133.093C223.632 132.935 224.11 132.764 224.449 132.329C224.556 132.192 224.437 132.074 224.504 131.978C224.525 131.948 224.908 131.535 224.921 131.511C224.917 131.297 224.936 131.085 224.977 130.875C225.365 131.198 225.173 131.874 225.828 131.89C225.945 131.169 225.946 131.023 226.419 130.618C226.383 130.649 226.776 130.315 226.725 130.351C226.749 130.222 226.796 130.102 226.867 129.991C227.088 129.884 227.322 129.828 227.568 129.821C228.079 129.295 227.867 129.015 227.867 128.307C228.279 128.521 228.692 128.736 229.105 128.95C229.205 126.852 230.482 125.704 231.331 124.004C231.692 123.279 232.061 122.713 232.147 121.84C232.197 121.335 232.067 120.891 232.275 120.416C232.465 119.985 232.888 119.752 233.065 119.283C233.414 118.359 233.154 117.179 233.173 116.22C233.199 114.889 233.332 113.563 233.376 112.233C233.461 109.622 233.198 106.939 232.808 104.358C232.621 103.124 232.308 101.926 232.063 100.705C231.861 99.7007 231.378 98.7591 231.205 97.8252C231.134 97.4371 231.245 97.0888 231.128 96.6596C230.973 96.0954 230.716 95.5406 230.524 94.9865C230.076 93.6923 229.634 92.3999 229.13 91.1258C228.154 88.6564 227.012 86.2611 225.927 83.8392C224.883 81.5102 224.019 79.109 222.667 76.9343C221.335 74.7923 219.901 72.6863 218.434 70.6359C216.905 68.5007 214.972 66.6659 213.49 64.5109C210.706 60.4647 206.823 57.1306 202.761 54.3774C194.379 48.6957 185.321 43.023 175.269 41.075C173.754 40.7816 172.22 40.578 170.676 40.5401C169.719 40.5163 168.131 40.9794 167.224 40.6551C166.209 40.292 166.301 39.1511 166.047 38.2561C165.72 37.1057 164.983 36.3519 164.145 35.5387C163.263 34.6826 162.463 33.6827 161.363 33.1005C160.249 32.5109 158.934 32.2903 157.7 32.112C156.597 31.9525 154.95 32.1015 153.943 31.6211C153.026 31.1834 153.479 30.7277 154.338 31.1025C154.401 30.7237 154.452 30.479 154.694 30.1862C154.816 30.0391 155.392 29.8327 155.406 29.6954C155.422 29.5346 154.939 29.0768 154.87 28.8695C154.722 28.4231 154.806 27.8048 154.982 27.3858C155.848 28.1556 156.099 28.4965 157.066 27.7607C157.475 27.45 157.6 27.313 158.073 27.1563C158.201 27.1137 158.488 27.2451 158.6 27.1714C159.028 26.89 158.635 26.9564 158.838 26.6238C158.787 26.7077 159.145 25.8238 159.128 26.0086C159.172 25.5378 159.311 25.6825 159.027 25.104C158.47 23.9724 157.052 23.9261 157.775 22.6347C158.059 22.1265 158.31 22.1771 158.39 21.4404C158.433 21.0443 158.379 20.5901 158.377 20.1872C158.374 19.3631 158.529 18.7862 157.757 18.3666C157.015 17.9631 156.33 18.4058 156.029 17.405C155.713 16.3548 156.031 15.0084 154.894 14.2893C154.062 13.7639 152.862 14.2131 151.943 13.9561C151.023 13.6988 150.176 12.7569 149.242 13.48C148.578 13.994 148.226 15.2577 146.975 14.5743C146.411 14.2661 146.1 13.2314 145.744 12.651C145.177 11.7261 144.722 11.392 143.849 12.2929C143.311 12.8485 142.177 14.201 142.107 14.9702C142.031 15.8192 142.772 16.174 141.842 16.6763C140.917 17.1761 140.398 16.8095 139.647 17.8239C138.902 18.8303 139.478 19.3863 138.616 20.3492C137.537 21.5527 136.963 22.0722 136.978 23.6938C136.989 24.806 136.006 25.7667 136.579 26.8219C137.222 28.0044 139.096 28.4962 140.233 28.9775C139.854 29.6787 139.333 30.1282 139.776 30.8502C140.178 31.5039 141.312 31.6397 142.015 31.5209C142.488 31.4413 142.505 31.5129 142.877 31.1803C143.121 30.9625 142.787 30.6907 143.289 30.57C143.824 30.4411 144.677 31.4888 145.024 31.7507C144.249 32.7574 142.118 32.9456 140.991 33.4559C140.304 33.7672 139.673 34.2275 138.973 34.5058C138.339 34.7581 137.567 34.6995 136.992 35.0901C135.998 35.7645 135.585 37.4355 134.976 38.4178C134.286 39.5297 133.618 40.0461 132.296 40.2769C130.646 40.5647 129.317 40.6804 127.779 41.399C125.9 42.2764 124.048 43.2029 122.202 44.1488C119.225 45.6744 116.461 47.2404 113.697 49.0857C110.805 51.0164 107.992 53.0316 105.202 55.049C102.443 57.0442 100.126 59.4987 97.7287 61.9117C95.7909 63.8621 94.0904 65.9674 92.16 67.9173C89.8813 70.2197 88.2052 73.1256 86.0923 75.5682C84.9362 76.9044 83.8302 78.2183 83.1048 79.7924C82.5169 81.0684 81.4947 82.3204 80.8122 83.659C79.9401 85.3707 79.1148 87.0549 78.1357 88.7098C77.7341 89.3888 77.2565 89.9716 76.8327 90.6198C76.2895 91.45 76.3215 92.2519 76.1754 93.2089C76.0228 92.9753 75.8705 92.7418 75.7179 92.5085C75.4414 93.1126 75.1069 93.7068 74.8674 94.3254C74.7145 94.72 74.7386 95.2803 74.585 95.6255C74.3924 96.059 74.1578 96.0013 73.9176 96.3622C73.6608 96.7482 73.5782 97.2668 73.3076 97.6808C72.1377 99.4702 71.6876 101.741 71.0864 103.783C70.28 106.522 70.4073 109.67 70.4511 112.495C70.4976 115.478 70.6607 118.462 71.1093 121.414C71.5156 124.087 72.3843 126.651 73.7444 128.995C74.9294 131.037 76.5635 132.228 78.6567 133.274C79.6179 133.754 80.5101 133.606 81.519 133.683C82.6242 133.767 83.3779 134.067 84.5472 133.803C85.1083 133.676 85.3737 133.267 85.8194 133.131C86.0954 133.047 86.2439 133.185 86.5087 133.153C86.8876 133.107 87.6756 132.921 88.0865 132.966C89.3649 133.105 89.1503 135.038 89.2761 136.025C89.4697 137.545 89.6115 139.081 89.8726 140.592C90.4217 143.769 91.607 146.737 92.3074 149.859C89.0606 150.255 86.2757 150.861 83.2327 152.09C80.1799 153.323 77.0935 153.741 73.8806 154.354C70.875 154.927 67.984 155.998 65.5782 157.939C64.4506 158.848 63.2791 159.912 64.1071 161.409C64.6368 162.367 65.5912 162.61 66.4152 163.167C66.5816 162.956 66.1001 162.51 66.012 162.386C66.7046 162.528 66.6834 162.851 67.1893 163.133C67.6313 163.379 67.9932 163.37 68.4772 163.544C69.6588 163.968 70.2393 165.027 71.4074 165.325C71.7748 165.418 72.2554 165.642 72.6312 165.705C73.0825 165.782 73.4204 165.584 73.8779 165.668C74.1248 165.83 74.3918 165.947 74.6788 166.016C74.8668 165.929 75.0527 165.837 75.2358 165.74C75.893 165.808 76.299 166.221 76.833 166.561C76.8687 166.133 76.8172 165.688 77.2223 165.409C77.3805 165.825 77.1249 166.089 77.5565 166.375C78.1034 166.738 78.8216 166.285 79.3112 166.056C79.4496 167.439 82.6519 167.357 83.6671 167.338C85.0728 167.31 86.477 166.753 87.8951 167.064C88.6186 167.222 89.3908 167.388 90.1109 167.594C90.9781 167.842 92.0265 168.063 92.8801 168.376C93.2196 168.5 93.6354 168.899 93.9967 168.872C94.2843 168.85 94.3614 168.426 94.6962 168.438C95.075 168.452 95.2024 168.874 95.5304 169.001C96.0211 169.191 96.4725 168.83 96.9389 169.012C97.1066 169.078 97.3338 169.359 97.5483 169.45C97.8742 169.589 98.5188 169.591 98.8813 169.658C99.3952 169.753 99.8554 169.689 100.296 169.721C100.651 169.746 100.643 169.985 100.813 170C101.008 170.018 101.347 169.348 101.609 169.25C101.99 169.107 102.682 169.447 103.071 169.507C100.254 173.326 96.8575 176.701 93.1758 179.656C89.2043 182.844 85.1375 186.027 80.8787 188.823C77.0121 191.362 73.269 193.558 70.2711 197.142C67.7432 200.163 63.7193 203.397 64.3396 207.777C64.9595 212.153 69.7115 213.934 73.5193 214.77C78.3084 215.82 83.2383 215.397 88.0402 215.988C90.0881 216.24 92.3635 216.106 94.4249 215.891C96.8596 215.637 98.9463 214.049 101.04 212.9C104.804 210.833 108.023 208.068 111.732 205.936C116.375 203.268 120.97 200.44 126.06 198.653C128.428 197.821 130.867 196.872 132.777 195.162C133.061 194.908 133.273 194.524 133.594 194.314C134.14 193.958 134.286 194.319 134.603 194.211C134.847 194.128 135.083 193.864 135.294 193.785C135.828 193.585 136.067 193.668 136.665 193.668C136.152 193.372 135.682 192.609 136.214 191.987C137.127 190.922 137.284 192.624 137.627 193.018C137.917 192.645 137.806 192.313 137.731 191.889C137.977 192.051 138.223 192.213 138.468 192.375C138.299 191.554 138.46 190.798 138.895 190.082C139.296 189.423 139.395 189.516 139.506 188.602C140.751 189.739 140.995 186.979 141.107 185.973C141.216 184.997 141.108 184.296 141.75 183.443C142.439 182.526 143.487 181.947 144.361 181.236C145.743 180.111 147.263 178.69 149.174 179.769C150.682 180.621 151.503 182.708 152.918 183.781C153.776 184.432 154.682 184.498 155.23 185.507C155.672 186.323 155.816 187.299 156.233 188.137C157.245 190.167 158.702 192.491 160.363 194.048C161.91 195.498 163.896 195.49 165.705 196.389C167.497 197.28 169.359 198.244 171.256 198.889C173.327 199.594 175.561 199.893 177.577 200.747C178.615 201.186 179.542 201.848 180.589 202.268C181.717 202.721 182.906 203.041 184.05 203.456C188.581 205.102 193.016 207.12 197.776 208.033C199.888 208.437 201.842 209.536 203.969 209.768C204.881 209.867 205.626 209.993 206.518 210.221C207.919 210.579 207.622 210.769 208.138 211.937C208.987 213.859 211.06 212.721 212.658 212.769C215.215 212.846 217.734 212.433 220.287 212.413C224.753 212.379 229.053 211.876 233.372 210.41C237.709 208.938 242.647 205.391 239.042 200.49Z" fill="black"/>
<path fill-rule="evenodd" clip-rule="evenodd" d="M187.424 50.29C187.485 50.3512 187.628 50.3883 187.424 50.29V50.29Z" fill="black"/>
<path fill-rule="evenodd" clip-rule="evenodd" d="M108.764 132.167C109.734 131.185 113.861 131.383 114.172 133.142C114.52 135.104 110.833 138.068 109.483 138.899C107.747 139.969 105.627 140.169 105.935 137.484C106.168 135.456 107.383 133.567 108.764 132.167ZM112.172 130.144C112.298 130.688 111.37 130.503 111.115 130.374C110.995 130.127 112.046 129.598 112.172 130.144ZM105.056 133.743C105.879 133.817 106.822 132.497 107.443 132.047C107.717 132.471 105.907 134.803 105.708 135.335C105.211 136.664 104.934 138.344 105.612 139.67C107.594 143.545 112.664 138.012 113.933 136.079C114.82 134.727 115.434 133.051 114.181 131.726C113.735 131.254 112.998 131.123 112.583 130.674C112.037 130.085 112.467 129.323 111.37 129.452C110.613 129.541 109.704 130.224 108.968 130.471C108.081 130.769 107.284 131.077 106.509 131.629C106.335 131.753 104.039 133.652 105.056 133.743Z" fill="black"/>
<path fill-rule="evenodd" clip-rule="evenodd" d="M163.228 135.044C162.71 137.706 160.072 140.437 157.296 140.543C154.532 140.649 153.637 137.752 154.125 135.444C154.541 133.475 156.243 130.054 158.67 130.431C160.579 130.727 163.671 132.762 163.228 135.044ZM161.467 130.594C159.715 129.238 157.293 128.61 155.261 129.686C154.595 130.039 151.936 131.595 152.745 132.649C153.836 131.803 154.778 130.63 156.196 130.349C155.957 131.448 154.596 132.436 154.116 133.507C153.555 134.757 153.249 136.188 153.34 137.562C153.504 140.007 155.142 141.907 157.677 141.571C159.999 141.263 162.028 139.484 163.136 137.483C164.614 134.812 163.781 132.384 161.467 130.594Z" fill="black"/>
<path fill-rule="evenodd" clip-rule="evenodd" d="M145.19 141.096C143.942 142.944 142.039 144.682 139.839 145.253C136.991 145.991 137.791 143.637 138.642 141.948C139.395 140.455 140.686 137.886 142.652 137.899C143.319 137.904 144.562 138.226 145.147 138.583C146.3 139.287 145.847 140.123 145.19 141.096ZM142.532 137.035C142.98 136.536 144.963 134.397 145.229 136.064C145.798 135.404 145.349 134.856 144.62 134.786C143.74 134.702 142.779 135.682 142.144 136.168C140.838 137.169 139.832 138.194 138.966 139.598C138.012 141.145 135.579 144.642 137.708 146.178C140.01 147.837 143.361 144.772 144.802 143.192C145.724 142.181 146.945 140.696 146.595 139.213C146.164 137.392 144.046 137.201 142.532 137.035Z" fill="black"/>
<path fill-rule="evenodd" clip-rule="evenodd" d="M132.709 107.255C131.421 108.724 128.805 110.866 126.648 110.614C124.682 110.384 125.449 108.176 126.146 107.108C127.191 105.503 128.592 103.995 130.616 103.908C131.489 103.87 132.621 103.887 133.298 104.549C134.222 105.453 133.39 106.478 132.709 107.255ZM132.572 103.171C131.064 102.65 130.471 102.451 129.004 103.28C127.826 103.946 126.782 104.886 125.974 105.955C124.764 107.554 123.545 111.15 126.65 111.6C130.057 112.094 138.16 105.103 132.572 103.171Z" fill="black"/>
<path fill-rule="evenodd" clip-rule="evenodd" d="M137.215 112.348C136.236 113.349 135.012 114.165 133.616 114.444C134.207 113.126 135.526 110.246 137.09 109.845C137.81 109.66 138.631 109.902 138.572 110.723C138.529 111.317 137.602 111.953 137.215 112.348ZM138.477 108.863C137.666 108.457 137.922 108.179 136.977 108.498C136.233 108.749 135.295 109.185 134.676 109.688C134.338 109.962 133.285 110.934 133.414 111.428C133.648 112.327 134.432 110.95 134.639 110.685C134.992 110.973 133.184 113.561 133.077 113.987C132.676 115.572 133.92 115.74 135.14 115.221C136.785 114.522 141.657 110.457 138.477 108.863Z" fill="black"/>
<path fill-rule="evenodd" clip-rule="evenodd" d="M162.596 151.533C162.718 150.482 162.89 149.371 163.855 148.78C164.724 148.248 165.625 148.325 165.753 149.417C165.873 150.43 164.88 152.23 164.077 152.783C162.958 153.553 162.743 152.593 162.596 151.533ZM164.033 153.925C166.329 152.582 167.777 146.42 163.544 148.147C161.139 149.128 162.023 155.102 164.033 153.925Z" fill="black"/>
<path fill-rule="evenodd" clip-rule="evenodd" d="M144.422 128.372C144.784 127.63 145.198 127.384 145.932 127.059C145.443 127.521 144.943 127.948 144.422 128.372ZM144.951 126.543C144.432 127.065 143.24 127.86 143.407 128.757C143.559 129.575 144.184 129.528 144.75 129.273C145.939 128.739 146.601 126.4 147.844 126.18C146.465 125.306 146.143 125.347 144.951 126.543Z" fill="black"/>
<path fill-rule="evenodd" clip-rule="evenodd" d="M145.134 80.0876C145.2 82.5787 145.259 85.0695 145.313 87.5605C145.333 88.4361 145.124 89.6841 145.387 90.5227C145.503 90.8921 146.552 92.4934 146.924 92.597C148.227 92.9595 147.761 89.6943 147.77 88.8903C147.802 86.1778 147.762 83.4623 147.751 80.7495C147.745 79.3517 148.14 67.6303 146.326 67.6875C146.013 67.6975 145.244 69.0377 145.128 69.3063C144.763 70.1501 144.898 71.4009 144.906 72.3002C144.931 74.8949 145.065 77.4932 145.134 80.0876Z" fill="black"/>
<path fill-rule="evenodd" clip-rule="evenodd" d="M156.116 87.3492C156.219 88.0379 156.165 89.1864 156.94 89.5435C157.615 89.854 157.873 89.4846 158.126 88.9075C158.706 87.5798 158.496 85.5501 158.486 84.1774C158.464 81.4569 158.158 78.7479 157.946 76.0376C157.853 74.8484 158.047 73.654 157.898 72.4096C157.833 71.8635 157.768 69.6668 156.755 69.7691C155.84 69.8614 155.923 72.1639 155.873 72.7571C155.458 77.6951 155.386 82.4199 156.116 87.3492Z" fill="black"/>
<path fill-rule="evenodd" clip-rule="evenodd" d="M199.318 144.055C198.93 146.039 192.601 152.945 191.007 149.082C190.062 146.791 192.111 144.296 193.709 142.969C194.698 142.148 195.934 141.343 197.282 141.591C198.427 141.802 199.564 142.796 199.318 144.055ZM196.05 140.498C195.602 140.604 191.866 143.227 191.832 143.193C191.507 142.867 193.864 139.354 194.106 139.047C196.104 136.516 197.43 138.432 198.68 140.422C198.414 139.234 197.682 137.508 196.458 137.006C194.914 136.371 193.709 137.937 192.966 139.064C191.916 140.655 191.337 142.383 190.753 144.179C190.475 145.036 190.158 145.812 189.687 146.584C189.221 147.346 188.407 148.187 188.528 149.151C189.189 148.783 189.54 148.063 189.957 147.471C190.421 147.659 190.262 149.141 190.356 149.518C190.593 150.466 191.241 151.208 192.243 151.371C194.11 151.675 196.125 149.947 197.374 148.774C198.689 147.538 200.105 145.843 200.094 143.941C200.082 141.953 198.127 140.006 196.05 140.498Z" fill="black"/>
<path fill-rule="evenodd" clip-rule="evenodd" d="M201.111 108.63C200.052 110.252 198.193 112.195 196.226 112.572C194.783 112.848 193.83 111.778 194.41 110.334C194.9 109.113 196.569 108.342 197.663 107.805C198.531 107.379 202.577 106.387 201.111 108.63ZM200.332 105.979C198.162 105.897 196.412 107.466 194.794 108.718C195.159 107.279 195.986 105.715 197.15 104.778C198.734 103.504 200.235 104.295 201.903 104.933C201.491 103.634 199.645 103.167 198.468 103.351C196.981 103.583 195.911 104.853 195.159 106.081C194.262 107.547 193.955 109.273 192.899 110.648C192.415 111.277 189.421 113.631 190.099 114.594C191.218 113.407 192.336 112.22 193.454 111.032C193.744 112.436 194.064 114.033 195.855 113.897C197.286 113.787 198.917 112.571 199.964 111.642C201.315 110.441 203.973 106.116 200.332 105.979Z" fill="black"/>
<path fill-rule="evenodd" clip-rule="evenodd" d="M169.935 119.822C169.016 120.245 166.993 120.819 166.479 119.549C165.765 117.785 168.062 114.692 169.156 113.517C169.828 112.794 170.285 112.42 171.222 112.888C171.971 113.261 173.071 114.323 173.358 115.139C173.975 116.892 171.373 119.161 169.935 119.822ZM172.044 111.351C172.793 111.52 172.885 112.471 171.949 112.106C171.247 111.832 171.084 111.135 172.044 111.351ZM172.984 112.69C172.705 111.837 173.273 110.5 171.897 110.439C171.117 110.404 169.688 111.197 169.007 111.519C168.063 111.966 167.174 112.648 166.682 113.608C166.225 114.498 166.551 114.733 167.247 113.994C167.332 114.052 165.673 118.331 165.658 118.76C165.594 120.719 166.981 122.01 168.929 121.662C170.719 121.343 172.333 119.879 173.318 118.401C173.816 117.653 174.226 116.797 174.263 115.881C174.321 114.475 173.384 113.911 172.984 112.69Z" fill="black"/>
<path fill-rule="evenodd" clip-rule="evenodd" d="M181.572 111.971C180.817 110.517 182.567 108.069 184.134 108.785C187.397 110.276 182.563 113.879 181.572 111.971ZM184.503 110.072C184.153 110.087 181.939 110.942 182.265 111.521C182.712 112.317 184.328 110.392 184.503 110.072Z" fill="black"/>
<path fill-rule="evenodd" clip-rule="evenodd" d="M77.4683 107.383C77.3808 106.764 75.9919 107.663 76 108.062C76.2297 107.603 77.6505 108.675 77.4683 107.383Z" fill="black"/>
<path fill-rule="evenodd" clip-rule="evenodd" d="M153.427 60.5611C155.195 60.4311 152.942 51.5105 151.653 52.2994C150.257 53.1544 151.804 60.6802 153.427 60.5611Z" fill="black"/>
<path fill-rule="evenodd" clip-rule="evenodd" d="M156.729 56.3956C158.385 56.6329 158.122 52.8289 157.231 52.1482C155.587 50.8915 154.718 56.1075 156.729 56.3956Z" fill="black"/>
</g>
<defs>
<clipPath id="clip0_3_702">
<rect width="304" height="228" fill="white"/>
</clipPath>
</defs>
</svg>
