<svg width="354" height="266" viewBox="0 0 354 266" fill="none" xmlns="http://www.w3.org/2000/svg">
<g clip-path="url(#clip0_3_396)">
<path d="M354 0H0V266H354V0Z" fill="white"/>
<path fill-rule="evenodd" clip-rule="evenodd" d="M305.268 237.312C307.041 238.226 308.697 238.225 310.441 238.936C312.171 239.642 312.622 242.568 314.102 242.918C307.243 243.641 300.487 245.173 293.544 244.411C294.146 241.957 293.066 239.445 294.512 237.142C298.378 233.477 300.892 235.056 305.268 237.312ZM276.304 68.6341C276.393 70.3596 276.52 71.0454 277.743 72.1586C278.701 73.0307 279.24 71.7305 279.331 73.4339C279.383 74.4165 278.364 74.9097 277.97 75.7039C276.003 79.6606 277.36 84.7711 278.327 88.7126C280.286 96.7047 285.072 105.394 281.7 113.518C281.36 114.337 281.087 116.113 280.43 116.74C279.564 116.281 278.932 116.482 278.533 117.341C278.293 117.61 278.054 117.88 277.815 118.149C276.299 119.553 274.686 120.075 272.675 119.329C268.619 117.824 267.948 113.105 267.927 109.39C267.903 105.295 268.774 101.006 269.704 97.0168C270.153 95.0959 270.843 92.8661 269.558 91.054C268.345 89.3423 266.846 90.3072 265.651 89.5432C264.379 88.7299 266.211 82.7529 264.958 81.168C262.77 78.4006 262.008 85.1704 261.973 86.5531C261.935 88.0677 262.017 89.8348 262.729 91.2077C263.289 92.2863 265.111 93.2329 265.423 94.3218C265.716 95.3394 264.433 97.9828 264.235 99.0748C263.93 100.757 263.824 102.476 263.737 104.182C263.441 109.943 264.344 116.006 268.302 120.477C270.037 122.438 272.979 124.664 275.731 124.307C278.16 123.992 280.601 122.678 282.866 121.785C284.39 127.649 286.678 133.328 289.116 138.865C291.236 143.679 293.228 148.609 295.454 153.363C300.146 163.385 307.762 171.922 313.712 181.189C319.457 190.135 322.679 200.401 323.452 210.962C323.634 213.459 322.906 216.877 323.487 219.212C324.031 221.401 324.509 222.352 324.153 224.739C323.757 227.392 322.989 229.839 323.319 232.539C323.611 234.934 324.75 238.502 323.506 240.721C322.01 239.124 320.517 238.373 319.61 236.243C318.689 234.082 319.051 232.306 316.963 231.356C315.18 230.544 313.9 230.721 312.326 229.393C310.414 227.779 309.111 225.807 308.169 223.497C306.561 219.555 306.329 215.281 307.688 211.232C308.778 207.986 311.961 201.91 316.425 204.085C315.762 202.721 315.321 201.238 314.056 200.351C312.954 199.579 311.307 199.328 310.077 198.45C308.702 197.469 307.145 196.421 305.611 195.703C305.015 195.425 304.451 195.285 303.835 195.095C303.097 194.866 301.696 195.03 301.605 195.016C298.969 194.617 296.029 193.346 294.419 191.429C293.207 189.987 292.136 188.641 291.211 186.991C290.01 184.849 289.548 184.978 287.244 184.469C283.895 183.731 281.771 183.227 279.092 180.738C276.121 177.977 273.948 174.537 271.774 171.15C270.5 169.166 269.381 169.045 267.305 168.252C266.098 167.792 264.427 165.73 263.329 165.577C263.012 165.532 261.493 166.225 260.979 166.308C260.061 166.457 259.264 166.43 258.344 166.333C256.233 166.111 254.367 165.551 252.948 163.896C248.577 158.8 247.244 146.788 253.229 142.453C254.369 141.627 255.957 141.247 256.63 139.875C257.401 138.3 257.05 135.335 256.988 133.675C256.918 131.781 256.829 129.72 256.547 127.852C256.417 126.994 256.32 126.633 255.97 125.774C255.277 124.07 255.074 124.318 253.645 123.908C251.608 123.324 250.687 123.554 249.438 121.616C248.442 120.071 247.976 118.124 247.885 116.297C247.801 114.592 248.568 113.016 247.927 111.472C246.989 109.213 245.249 107.502 244.486 105.029C243.843 102.947 242.183 98.2983 243.82 96.3767C244.553 95.5157 245.855 95.3896 246.582 94.2373C247.849 92.2309 248.361 91.1336 250.241 89.5522C251.628 88.3853 252.96 86.6466 254.631 85.9331C256.276 85.2314 257.827 86.3608 259.162 86.0512C260.617 85.7132 260.235 82.3324 260.638 80.8098C261.183 78.757 262.351 76.6169 263.765 75.015C264.237 74.4799 264.826 74.377 265.193 73.6656C265.692 72.7024 265.494 71.3298 265.882 70.2765C266.346 69.0179 267.471 66.8511 268.729 66.1611C272.404 64.1453 273.508 69.3396 276.304 68.6341ZM267.703 217.696C268.222 219.095 267.935 221.345 268.532 222.55C269.007 223.51 270.916 224.119 271.852 225.263C273.855 227.714 274.619 231.651 273.891 234.678C271.439 234.071 269.8 233.683 267.306 234.003C267.055 228.518 267.29 223.179 267.703 217.696ZM237.397 221.83C239.065 223.694 239.893 225.89 239.652 228.382C239.566 229.269 239.295 230.513 239.035 231.365C238.748 232.3 237.324 234.051 237.876 234.552C236.32 234.459 234.491 234.64 233.37 233.632C232.363 232.726 231.659 230.394 231.25 229.158C232.036 227.586 232.822 226.015 233.608 224.444C234.12 225.257 235.622 227.381 236.863 226.701C237.798 226.19 237.043 222.864 237.397 221.83ZM295.953 207.301C297.862 209.078 298.515 212.283 298.417 214.771C298.449 218.199 297.264 225.062 292.815 225.292C289.24 225.477 285.427 220.347 285.025 217.176C284.584 213.7 285.731 205.387 290.28 204.672C291.954 204.409 294.746 206.177 295.953 207.301ZM263.995 211.734C264.071 213.982 264.109 216.144 263.931 218.384C263.783 220.256 264.277 222.468 263.859 224.261C261.214 221.296 257.73 218.068 257.836 213.71C257.935 209.59 261.342 209.941 263.995 211.734ZM237.338 162.204L239.552 164.635C239.615 168.051 239.547 171.429 240.586 174.723C241.678 178.188 243.509 181.529 245.321 184.663C248.843 190.754 249.684 196.499 250.108 203.464C243.483 200.491 239.87 190.329 237.684 183.973C236.527 180.608 235.326 177.24 234.235 173.854C233.158 170.515 231.255 166.152 232.508 162.634C234.915 164.407 235.956 165.321 237.338 162.204ZM278.621 186.18C281.856 188.758 282.101 192.702 283.262 196.306C282.592 196.842 281.857 197.314 281.252 197.925C280.879 198.302 279.998 199.847 279.711 200.006C278.565 200.641 277.564 199.826 276.444 198.802C274.24 196.785 272.864 192.505 272.967 189.545C273.088 186.088 275.528 183.715 278.621 186.18ZM323.883 171.034C328.088 173.447 326.991 180.124 326.466 183.89C326.137 186.251 326.867 188.653 326.816 190.898C326.759 193.433 325.447 192.908 324.607 194.481C323.878 192.573 322.541 190.276 322.236 188.276L321.753 187.01C322.162 186.846 322.38 186.56 322.405 186.152C322.577 185.182 322.574 184.194 322.628 183.205C322.851 179.121 323.159 175.062 323.883 171.034ZM259.819 175.543C259.354 177.321 259.013 180.666 256.399 179.635C254.335 178.821 253.837 175.536 253.833 173.705C253.829 172.201 254.076 169.44 256.175 169.35C258.751 169.239 259.671 173.806 259.819 175.543ZM239.917 126.047C238.178 128.838 236.971 132.961 237.792 136.265C238.655 139.736 241.338 140.575 243.724 138.022C245.694 141.129 241.656 146.661 238.046 143.707C237.266 143.069 236.742 141.848 235.778 141.45C234.987 141.124 234.286 141.567 233.478 141.383C230.994 140.817 230.056 138.373 229.08 136.321C229.348 134.648 229.632 132.99 229.993 131.334C230.185 130.454 230.385 129.575 230.58 128.695C230.911 127.2 230.808 127.386 231.89 126.645C234.744 124.692 236.707 124.595 239.917 126.047ZM241.39 127.554L243.478 132.204C242.34 131.93 241.101 135.349 240.359 136.016C240.011 133.17 240.843 130.321 241.39 127.554ZM240.234 111.669C242.121 112.465 242.497 115.918 242.563 117.588C242.044 119.346 241.56 121.595 239.366 120.357C237.902 119.53 237.275 116.808 237.225 115.321C237.162 113.457 237.861 110.667 240.234 111.669Z" fill="#7ED321"/>
<path fill-rule="evenodd" clip-rule="evenodd" d="M226.095 71.281C225.317 71.6311 226.801 74.2478 227.032 74.7279C227.634 75.981 228.369 78.5703 229.796 77.8576C228.562 75.6655 227.328 73.473 226.095 71.281ZM43.552 223.104C42.5121 222.642 41.1213 226.616 40.936 227.423C40.4192 229.673 40.8517 231.184 42.649 232.638C41.905 229.424 42.7963 226.221 43.552 223.104ZM283.595 52.9097C282.302 51.2278 280.434 48.105 277.821 49.7582C276.789 50.4114 275.995 52.5051 275.359 53.5279C274.359 55.1336 273.392 56.6794 272.631 58.408C273.923 57.876 274.685 56.7192 275.84 56.0868C276.629 55.6549 277.349 55.6133 278.109 55.2985C279.79 54.603 282.092 53.921 283.595 52.9097ZM72.7452 218.623C73.4449 221.367 74.0921 224.102 74.6334 226.882C74.9995 228.762 76.2299 231.419 75.5879 233.259C77.2511 233.035 78.9143 232.812 80.5775 232.587C79.3436 229.774 78.6944 226.773 78.328 223.734C78.1036 221.874 78.3912 221.343 76.9925 220.309C75.9094 219.507 74.0025 219.122 72.7452 218.623ZM63.5461 113.601C66.7438 116.808 69.5405 120.463 72.9388 123.451C74.7047 125.004 76.5148 126.513 78.3269 128.011C79.8636 129.28 82.3074 132.08 84.3073 132.468C84.5544 131.445 85.139 129.769 84.9824 128.72C85.566 128.116 85.3848 127.674 84.439 127.395C83.8603 126.949 83.2881 126.496 82.7215 126.035C80.4986 124.176 78.395 122.157 76.2887 120.168C74.1947 118.192 72.2578 116.124 70.4401 113.891C69.4825 112.715 68.9224 111.536 67.3519 111.191C65.4861 110.78 64.8653 112.238 63.5461 113.601ZM127.456 232.673C127.366 234.416 131.643 235.484 132.943 235.588C136.456 235.871 138.737 234.327 139.946 231.283C142.463 224.948 146.492 219.367 148.178 212.705C148.678 210.728 149.11 209.829 147.329 208.822C146.598 208.409 144.694 207.488 143.899 208.013C143.142 208.514 142.523 210.766 142.036 211.584C141.264 212.884 140.385 214.121 139.546 215.379C135.623 221.264 131.669 226.995 127.456 232.673ZM76.6928 145.427L93.1151 154.835C93.7999 152.466 94.1149 149.997 94.7568 147.609C95.2138 145.912 96.3896 143.516 96.3152 142.026C96.2043 139.802 94.4851 136.85 93.7356 134.73C92.8015 132.088 91.8674 129.446 90.9333 126.804C89.6684 128.016 88.212 128.862 88.1964 130.441C88.1878 131.344 88.7883 131.907 88.4401 132.929C88.1957 133.647 87.1565 134.599 86.6546 135.132C85.1885 136.691 85.2344 136.769 83.6936 135.311C81.3601 138.683 79.0263 142.055 76.6928 145.427ZM94.7599 189.537C94.995 187.271 95.2968 185.098 95.8057 182.874C96.1185 181.507 97.4398 178.702 97.0053 177.415C96.6858 176.469 94.7872 175.646 94.0478 175.131C91.9086 173.642 89.8195 172.076 87.7017 170.556C85.8446 169.224 83.9598 167.923 82.1376 166.543C80.4499 165.265 79.176 163.675 77.1336 163.128C75.3466 162.648 73.0792 162.961 71.2283 162.899C68.7444 162.816 66.2221 162.789 63.7407 162.911C55.413 163.319 46.0839 162.735 38.0722 165.063C34.2857 166.162 31.8447 166.81 29.728 170.403C27.2801 174.559 25.1886 178.877 23.4079 183.366C23.1479 184.022 22.5602 184.968 22.582 185.684C22.6255 187.052 23.114 186.736 24.4232 187.516C25.8378 188.359 27.2244 189.359 28.5758 190.308C30.893 191.936 33.77 193.634 36.174 194.903C39.0665 196.43 41.9804 197.799 44.9227 199.337C46.7871 200.311 48.7168 201.108 50.5455 202.178C52.5309 203.341 54.7538 203.672 56.894 204.58C63.5212 207.391 69.935 209.989 76.4384 213.196C82.7862 216.327 89.2069 218.972 95.7016 221.734C104.096 225.302 112.407 228.603 121.161 231.071C121.802 231.252 123.149 231.889 123.782 231.86C125.136 231.797 125.442 230.807 126.256 229.69C127.853 227.495 129.392 225.259 130.921 223.016C134.236 218.15 137.477 213.23 141.046 208.545C130.933 205.717 121.555 200.501 112.665 195.147C112.286 196.213 111.985 198.574 110.772 198.93C109.271 199.372 108.181 197.289 107.509 196.331C106.872 197.919 105.783 203.274 103.746 203.157C100.932 202.995 101.429 198.557 101.078 196.796C99.5268 198.862 97.7288 201.238 95.6204 198.061C94.1591 195.858 94.3212 191.993 94.7599 189.537ZM211.939 164.229C210.635 163.82 209.339 163.457 208.064 163C207.728 162.287 207.172 162.071 206.393 162.351C205.756 162.408 205.136 162.33 204.533 162.114C201.869 161.658 198.918 161.065 196.372 160.296C194.105 159.61 191.967 159.005 189.663 158.49C188.295 158.184 182.203 156.457 181.302 157.474C181.025 157.786 181.502 161.578 181.435 162.253C181.315 163.455 181.256 165.433 180.497 166.433C180.205 166.817 179.096 167.242 178.695 167.541C177.392 168.512 176.188 169.718 174.891 170.725C172.062 172.922 169.305 175.203 166.418 177.328C164.377 178.831 162.041 179.574 159.774 180.666C161.387 180.955 164.543 179.4 166.171 178.917C168.279 178.293 170.348 177.598 172.505 177.026C176.926 175.853 181.456 174.529 185.95 173.28C188.71 172.513 191.625 171.714 194.301 170.698C195.487 170.248 196.419 169.2 197.203 170.267C197.829 171.118 197.072 172.237 196.591 172.868C193.786 176.546 186.167 177.441 182.089 178.967C177.487 180.689 172.947 182.503 168.208 183.712C162.674 185.125 156.667 186.206 151.51 188.687C147.232 190.745 142.385 191.543 137.836 192.751C133.564 193.885 128.498 194.112 124.461 196.038C126.205 197.418 128.785 198.138 130.818 199.066C133.307 200.201 135.821 201.237 138.282 202.441C139.329 202.953 140.426 203.714 141.486 204.14C142.831 204.681 142.658 204.396 144.048 204.286C146.211 204.115 149.13 203.726 150.887 205.304C153.006 207.207 151.663 209.292 151.974 211.621C152.188 213.217 152.297 212.961 154.066 213.205C155.695 213.429 157.321 213.69 158.928 214.039C160.911 214.47 162.941 215.193 164.873 215.815C167.869 216.781 168.194 217.918 171.317 216.671C180.209 213.12 189.407 210.202 198.356 206.842C202.478 205.294 206.618 202.309 210.498 200.066C215.476 197.189 219.977 194.076 223.348 189.285C224.884 187.102 226.486 183.413 226.163 180.703C225.874 178.278 224.084 175.584 222.93 173.499C221.457 170.838 220.159 169.805 217.905 168.037C216.337 166.808 213.915 164.212 211.939 164.229ZM112.905 184.829C113.042 186.168 112.262 191.684 113.035 192.533C114.357 193.984 117.601 192.29 118.856 191.858C122.932 190.454 127.671 190.761 131.822 189.649C135.849 188.571 139.788 187.173 143.837 186.075C146.01 185.485 148.072 184.561 150.208 183.859C152.587 183.077 155.242 182.648 157.448 181.473C157.175 180.793 147.63 182.428 146.546 182.516C142.778 182.823 139.23 182.241 135.517 181.557C127.326 180.047 119.608 176.468 111.523 174.146C111.902 177.882 122.395 178.626 121.145 182.961C120.796 184.17 116.102 186.145 114.549 185.387C111.395 183.846 115.254 181.677 116.826 181.137C114.433 179.762 112.142 178.27 109.958 176.576C107.619 174.763 106.613 172.219 105.359 169.593C102.739 164.104 96.5386 160.911 91.7222 157.494C86.5142 153.799 80.9688 150.658 75.7639 146.971C74.835 146.313 74.4011 146.615 74.0748 145.414C73.7256 144.127 75.0085 142.492 75.6311 141.511C77.2677 138.931 79.1739 136.488 81.3359 134.329C78.5478 132.427 75.5361 130.858 72.9215 128.706C70.2714 126.525 68.0782 123.862 65.7402 121.365C62.0053 129.507 56.7706 137.059 52.6599 145.044C51.0361 148.198 50.1777 152.969 52.6471 156.025C55.2457 159.241 60.0914 157.989 63.7597 158.16C67.6312 158.34 71.1629 158.779 74.9816 159.879C76.709 160.377 78.2816 160.23 79.9421 161.03C81.8894 161.967 83.8046 163.171 85.6572 164.282C89.3006 166.467 92.7044 169.202 96.1448 171.695C97.556 172.717 105.208 178.779 99.1555 177.843C99.1555 183.515 98.1637 189.324 97.6431 194.969C99.0785 193.252 100.102 191.507 100.97 189.444C101.487 188.216 101.494 185.084 103.215 185.826C105.804 186.943 103.787 195.149 103.787 197.369C104.429 196.127 104.878 194.789 105.34 193.473C105.69 192.476 106.127 189.649 106.857 188.98C109.302 186.742 109.644 192.846 109.644 194.12C110.436 191.869 110.581 189.468 110.661 187.09C110.692 186.152 110.461 184.693 110.697 183.785C111.091 182.273 111.044 182.371 112.625 181.732C112.718 182.764 112.812 183.797 112.905 184.829ZM188.408 232.698C188.602 234.617 189.343 236.006 188.084 237.733C190.518 237.558 192.915 237.344 195.353 237.406C197.311 237.455 200.239 237.904 202.066 237.064C202.81 236.722 203.063 237.311 203.446 236.657C203.809 236.035 202.956 233.973 202.853 233.462C202.361 231.007 202.121 228.488 201.673 226.018C201.366 224.32 200.464 220.981 201.598 219.377C203.267 217.016 204.001 220.342 204.436 221.818C205.868 226.683 205.785 231.303 205.785 236.301C207.941 236.301 210.774 235.358 212.853 234.789C215.721 234.003 218.784 233.196 221.563 232.171C224.185 231.204 226.493 229.794 228.15 227.523C229.39 225.825 232.138 221.634 231.455 219.756C230.618 217.454 226.627 215.87 224.495 215.617C221.73 215.288 218.895 215.845 216.065 216.079C213.036 216.329 210.097 217.005 207.1 217.33C204.189 217.646 200.282 218.619 197.454 217.89C197.381 219.055 198.353 220.622 198.692 221.808C199.136 223.364 199.533 224.934 199.893 226.511C200.28 228.199 202.67 234.268 200.496 235.481C197.944 236.905 196.726 230.807 196.409 229.32C195.651 225.775 195 222.234 195.793 218.671C192.536 218.083 188.608 218.956 185.249 219.188C186.501 223.604 187.308 228.229 188.408 232.698ZM48.1301 234.618C49.2626 235.122 50.819 234.852 52.05 234.949C53.9739 235.1 55.9174 235.448 57.8541 235.386C60.8091 235.292 63.907 234.918 66.8645 234.579C65.1774 231.531 64.1538 228.645 63.9433 225.151C63.8676 223.896 63.2028 216.113 65.5141 216.446C66.6294 216.606 66.3926 223.252 66.609 224.477C66.9236 226.253 67.3294 228.071 67.8234 229.81C68.1819 231.071 69.4016 232.959 69.0891 234.323C70.5801 234.081 72.0714 233.839 73.5628 233.597C72.4033 231.281 71.5563 229.205 71.1221 226.622C70.9123 225.375 71.0461 223.823 70.6392 222.639C70.3827 221.893 69.7978 221.191 69.7196 220.565C69.6294 219.843 70.419 218.068 70.1269 217.427C69.8399 216.796 67.8421 216.213 67.1421 215.865C65.2127 214.907 64.0819 214.665 61.9195 215.216C57.7486 216.278 51.1771 217.031 48.0665 219.896C44.9849 222.733 43.8634 232.305 48.1301 234.618ZM230.287 96.287C231.442 96.1565 232.585 96.0758 233.745 96.0159C232.05 93.6253 230.51 91.1267 229.104 88.5547C228.415 87.2947 227.764 86.0145 227.141 84.7206C226.426 83.2357 226.445 82.2663 224.892 81.9712C222.741 81.5628 219.863 82.3789 217.65 82.286C215.94 82.214 212.101 80.6021 210.724 81.1864C211.98 83.7653 210.971 87.7778 211.021 90.5539C211.07 93.3146 210.727 95.9833 210.242 98.7056C213.176 98.7056 216.849 97.6908 219.81 97.2374C223.258 96.7096 226.774 96.6822 230.287 96.287ZM183.712 238.01C184.842 237.865 185.916 237.82 187.057 237.82C184.487 233.645 182.546 228.977 182.524 224.002C182.522 223.352 183.302 219.613 183.044 219.302C182.54 218.697 180.451 219.175 179.879 219.232C177.538 219.466 174.936 219.449 172.732 220.293C171.211 220.877 171.195 220.524 170.59 222.317C170.232 223.378 169.975 224.589 169.968 225.704C169.953 227.958 170.671 230.592 171.598 232.621C172.481 234.553 173.876 236.624 175.794 237.662C178.005 238.858 181.12 238.146 183.712 238.01ZM207.082 82.9199C206.637 81.2567 206.829 81.6321 205.351 81.4257C205.04 81.3824 201.655 81.4527 201.461 81.6515C201.237 81.8808 201.322 85.2671 201.293 85.6547C201.193 86.9829 201.044 88.3077 200.9 89.6319C200.314 95.0073 199.202 100.211 198.368 105.542C200.428 104.261 203.406 106.007 205.166 104.621C206.557 103.526 206.348 100.02 206.452 98.4729C206.799 93.2956 206.917 88.1055 207.082 82.9199ZM281.475 76.6425C281.29 76.9407 281.104 77.239 280.919 77.5372C281.638 77.9992 285.85 73.2988 286.786 72.4579C288.034 71.3381 290.008 69.8429 290.57 68.2057C291.224 66.3032 290.581 63.2996 290.422 61.3323C290.309 59.9244 290.55 57.9772 289.404 56.9935C288.35 56.0885 285.752 56.1127 284.503 56.3064C280.756 56.8875 278.502 59.9749 276.61 62.9169C278.531 62.6803 285.302 59.5832 286.089 61.2582C287.232 63.6917 280.12 65.8675 279.417 68.0027C280.873 68.5178 284.084 66.52 283.18 69.844C283.026 70.3091 282.757 70.6942 282.374 70.9994C281.709 71.2353 281.552 71.6796 281.902 72.3329C281.604 73.6348 281.665 75.2821 281.475 76.6425ZM324.607 194.481C324.627 195.27 324.699 196.025 325.343 196.582C326.771 192.052 327.217 187.52 327.808 182.809C328.4 178.098 329.03 173.269 329.123 168.561C329.229 163.285 328.731 157.546 327.879 152.333C327.213 148.258 326.697 143.243 324.272 139.775C325.65 148.763 325.221 157.285 324.293 166.305C323.8 171.094 323.104 175.846 322.785 180.657C322.7 181.927 322.673 183.213 322.563 184.481C322.498 185.228 321.76 186.643 321.753 187.01C321.717 189.046 323.893 192.611 324.607 194.481ZM251.333 187.481C252.478 190.121 253.78 192.722 254.467 195.53C255.192 198.494 254.88 201.256 254.996 204.26C255.189 209.244 254.79 214.199 254.86 219.191C254.919 223.445 254.756 227.593 254.799 231.802C254.826 234.465 254.68 237.118 254.689 239.779C254.689 239.771 254.795 242.168 254.612 242.29C253.792 242.835 252.895 242.06 252.644 241.314L250.212 244.07C251.487 243.749 253.054 243.079 254.364 243.02C254.866 242.835 255.366 242.83 255.863 243.004C256.357 243.304 256.724 243.721 256.962 244.256C260.395 244.989 262.455 241.927 263.072 239.19C264.41 233.251 263.928 227.388 263.831 221.392C263.62 208.366 265.686 195.418 265.491 182.392C265.453 179.871 265.357 177.38 265.735 174.864C266.437 170.19 267.473 174.468 267.639 176.674C268.139 183.303 269.01 190.142 268.531 196.812C268.1 202.821 268.14 208.886 267.841 214.914C267.524 221.321 267.012 227.591 267.307 234.003C269.024 233.783 274.547 233.455 275.122 235.872C275.624 237.98 273.605 237.2 272.557 237.111C270.857 236.966 269.196 237.366 267.337 237.032C267.474 239.867 267.865 243.67 265.336 245.584C264.092 246.526 262.032 247.376 260.579 247.931C259.154 248.475 256.742 249.681 255.258 249.615C254.208 249.569 253.804 249.002 252.652 249.093C250.943 249.227 249.463 250.373 247.651 249.427C244.215 247.632 245.904 242.413 248.074 240.321C248.633 239.782 249.262 239.192 250.012 238.929C250.369 238.804 251.862 238.955 252.034 238.767C252.67 238.076 251.876 234.035 251.792 233.267C251.346 229.243 250.861 225.134 250.678 221.092C250.506 217.292 250.315 213.484 250.184 209.682C250.156 208.855 250.522 207.153 250.176 206.429C249.601 205.227 247.075 204.461 245.98 203.901C246.956 213.482 248.39 223.78 244.857 232.905C244.155 234.718 243.368 237.304 241.588 238.312C239.911 239.262 235.962 239.128 233.953 239.241C231.792 239.362 229.677 238.857 228.487 236.824C227.55 235.225 228.111 233.306 230.035 232.609C231.186 232.191 231.41 232.46 232.419 232.956C232.638 233.312 232.792 233.695 232.88 234.104H233.656C234.707 234.574 238.907 235.099 240.062 234.35C241.401 233.482 241.692 231.136 242.262 229.741C243.322 227.151 243.603 225.049 243.988 222.28C244.59 217.947 243.98 212.922 243.992 208.407C243.995 207.135 244 205.863 244.002 204.592C244.004 202.671 244.171 202.683 243.078 201.301C241.429 199.217 239.55 197.088 237.786 195.09C238.741 200.926 238.35 207.07 237.971 212.884C237.758 216.151 237.316 219.477 237.114 222.7C237.053 223.668 237.748 226.339 236.625 226.767C235.486 227.201 234.069 225.175 233.608 224.444C231.097 229.464 228.1 234.306 222.919 236.904C220.255 238.239 217.481 238.842 214.574 239.365C211.88 239.851 209.391 240.736 206.736 241.154C201.24 242.018 196.178 242.14 190.647 241.951C185.43 241.773 180.433 242.739 175.232 241.523C173.202 241.049 171.151 240.178 169.764 238.621C169.007 237.772 168.672 236.434 167.908 235.651C167.736 234.638 167.141 234.325 166.122 234.713C165.483 234.742 164.846 234.721 164.211 234.65C158.994 234.375 153.197 234.681 148.142 233.188C146.223 232.622 144.081 231.688 145.039 229.283C145.875 227.18 148.184 227.818 150.077 228.002C155.576 228.536 160.989 229.509 166.567 229.999C166.388 227.079 166.542 224.1 167.685 221.369C163.815 220.882 159.803 220.148 156.121 218.91C154.984 218.528 153.852 218.131 152.724 217.722C150.865 217.048 151.252 216.874 150.175 218.05C148.822 219.526 147.993 222.608 147.013 224.392C145.91 226.401 144.851 228.386 143.922 230.482C143.042 232.466 142.386 235.123 141.045 236.833C138.096 240.593 131.286 240.919 127.277 239.442C125.314 238.718 124.606 238.605 123.416 236.842C122.112 234.91 121.788 234.798 119.386 234.535C115.05 234.062 110.956 232.971 106.894 231.465C102.602 229.874 98.1941 228.634 93.9143 226.917C89.908 225.308 86.0358 223.691 81.8904 222.436C81.3985 225.568 83.4368 229.101 83.4368 232.33C85.8487 232.088 88.0979 231.876 90.4888 231.492C91.3413 231.355 96.7125 230.147 97.2365 230.86C99.4211 233.83 89.4814 235.227 87.9278 235.62C82.9493 236.878 77.8727 238.048 72.8628 239.021C67.7491 240.014 62.7641 241.003 57.573 241.181C48.789 241.483 36.6732 240.974 37.0925 229.412C37.2571 224.881 39.1201 219.965 42.6849 217.01C44.903 215.171 47.6689 214.161 50.3806 213.329C51.3825 213.021 56.6603 212.303 56.8207 211.907C55.3335 210.84 52.7916 210.561 51.0271 209.738C49.3449 208.953 47.5697 208.661 45.8478 207.87C42.407 206.289 39.0838 204.358 35.9023 202.403C33.3721 200.849 30.8138 199.133 28.4845 197.285C26.6336 195.817 24.8598 194.405 23.3802 192.728C22.6058 191.85 21.2351 191.072 20.6149 190.316C18.437 187.66 20.7338 182.376 21.6614 179.285C23.0162 174.766 24.8242 169.958 27.4906 166.043C29.9427 162.443 32.6765 160.018 37.0749 159.175C41.1345 158.396 45.2165 158.15 49.3684 157.931C48.6708 155.272 47.6887 153.396 47.9379 150.479C48.173 147.729 49.5593 144.996 50.6472 142.49C52.6699 137.834 54.5782 133.276 57.3445 128.988C58.8649 126.632 60.5727 124.395 62.2324 122.137C62.5 121.773 64.1635 120.108 64.0999 119.639C64.0366 119.173 62.3662 117.753 62.1103 117.428C60.3925 115.243 59.2051 112.891 61.2222 110.553C62.2739 109.334 65.3658 106.872 66.8541 108.421C68.4633 105.163 71.278 102.942 73.4695 100.17C76.2016 96.7141 78.8102 93.2055 81.3677 89.5858C83.9142 85.9816 85.9943 82.1097 89.3697 79.2052C93.1313 75.9685 96.6724 76.2484 101.292 77.6321C101.556 75.8466 101.923 76.0842 103.647 75.4881C104.951 75.0368 106.219 74.5014 107.502 73.9919C108.866 73.4498 110.246 73.1423 111.64 72.7163C113.496 72.1489 113.775 72.3342 114.077 69.9184C114.442 66.9993 113.195 63.913 112.391 61.1633C111.994 59.8066 111.718 58.1178 110.825 57.2051C110.018 56.3798 108.585 56.004 107.702 55.0913C100.089 47.2288 99.9686 30.441 108.078 23.1336C109.654 21.7132 110.954 19.8024 112.916 18.8433C115.07 17.79 117.911 16.9384 120.284 16.442C125.174 15.4196 130.659 15.7441 134.524 19.1883C136.431 20.8868 137.594 23.5866 138.243 25.9983C138.864 28.3019 138.731 32.1956 136.378 28.6354C134.894 26.39 133.604 24.0999 131.092 22.9892C128.847 21.9969 126.106 21.461 123.66 21.6716C117.895 22.1676 113.224 23.8634 109.234 28.1377C104.822 32.8637 104.598 40.409 105.549 46.4186C106.387 44.6411 106.955 41.8267 109.304 41.4872C111.262 41.2043 114.349 43.7091 113.298 45.8655C108.53 44.6477 107.135 51.872 111.258 52.307C112.507 52.4386 114.088 50.2123 115.237 50.7307C117.387 51.6998 114.506 55.0394 113.938 56.1391C113.636 56.3251 113.334 56.5111 113.032 56.6974C113.33 57.3894 113.63 58.0804 113.933 58.77C114.3 59.6494 114.65 60.5308 114.973 61.4279C115.759 63.611 116.574 65.8619 117.047 68.1361C117.529 70.4483 117.779 73.1485 116.641 75.3209C115.39 77.7086 114.213 77.4149 113.252 75.1435C110.737 76.7316 108.209 78.4249 105.253 79.0514C108.353 84.262 112.366 88.7414 118.399 90.3803C123.513 91.7696 129.951 91.7186 134.83 89.4206C139.894 87.0359 142.68 81.4624 142.077 75.9173C141.882 74.1214 140.839 67.8836 143.321 72.3959C144.682 74.8706 144.781 78.8848 144.471 81.5985C142.987 94.5792 129.853 99.4354 118.528 96.3106C112.719 94.7073 108.532 90.416 105.416 85.3644C104.689 84.1865 104.023 82.9708 103.374 81.7485C103.114 81.2601 102.886 80.5782 102.539 80.1497C101.182 78.4709 102.515 79.4064 101.074 79.1962C98.8437 78.8713 95.3338 80.5827 93.6775 81.9386C89.1837 85.6173 86.6947 91.5018 83.2456 96.1381C79.5735 101.074 74.91 105.466 70.232 109.405C75.5236 114.835 80.815 120.265 86.1066 125.695C87.1998 124.483 89.2778 121.712 89.5685 120.091C89.7389 119.141 88.9739 116.014 91.3268 117.406C92.9153 118.346 93.5178 122.368 94.0132 124.013C94.7786 126.555 96.0674 128.948 96.9005 131.463C98.4458 136.13 100.35 140.756 101.933 145.456C102.576 147.367 104.412 149.739 102.648 151.357C99.9679 153.815 99.1711 148.975 98.4614 147.126C97.473 148.503 97.6013 150.735 97.0917 152.341C96.7806 153.322 95.833 154.848 95.8644 155.815C95.918 157.467 97.4153 157.959 98.7646 158.882C101.275 160.6 103.851 162.277 106.15 164.278C107.109 165.113 107.992 165.957 108.692 167.031C109.303 167.969 109.487 170.082 110.162 170.734C111.046 171.587 114.312 170.993 116.037 171.179C118.917 171.489 121.836 172.515 124.632 173.252C129.579 174.557 134.668 176.435 139.85 177.132C144.939 177.816 149.714 177.477 154.786 176.565C157.556 176.067 160.532 175.472 163.06 174.137C165.972 172.6 168.554 170.141 171.274 168.284C172.491 167.452 173.736 166.667 174.981 165.879C176.645 164.826 176.21 165.054 176.318 163.381C176.443 161.444 177.25 157.747 175.959 156.023C175.42 155.304 173.766 154.778 172.987 154.254C171.855 153.493 170.839 152.608 169.626 151.995C168.301 151.327 168.262 151.856 167.648 150.215C167.089 148.725 166.72 147.165 166.208 145.659C163.862 138.773 163.256 131.779 162.284 124.588C161.832 121.248 160.724 116.703 161.979 113.45C163.724 108.924 165.184 115.253 165.552 116.875C167.218 114.016 168.176 110.837 169.909 108.014C170.919 106.369 171.413 105.528 171.983 103.725C172.213 102.995 172.306 102.388 172.793 101.782C173.824 100.499 173.977 101.23 175.049 101.198C178.422 101.099 181.737 101.186 185.113 101.343C186.979 101.429 188.845 101.475 190.724 101.468C191.639 101.465 192.566 101.42 193.481 101.473C193.974 101.467 194.464 101.504 194.952 101.583C195.96 102.054 196.344 101.648 196.106 100.365C196.983 98.5269 196.925 95.594 197.235 93.5886C197.547 91.5701 197.837 89.548 198.099 87.5219C198.238 86.4388 199.41 82.3522 198.788 81.4624C198.171 80.5802 194.96 80.778 194.009 80.6197C187.691 79.5675 181.814 76.9591 175.905 74.8221C172.995 73.7702 170.234 72.3498 167.443 71.0593C165.991 70.3874 164.618 69.0037 163.087 68.5728C161.155 68.0291 158.59 68.8984 156.664 69.2257C152.994 69.8495 149.455 70.3957 145.731 70.5987C144.416 70.6704 141.914 71.0399 140.727 70.1342C138.343 68.3151 141.058 67.2515 142.616 67.0219C149.508 66.0063 156.379 65.4227 163.324 64.9988C163.65 64.9791 164.842 64.7363 165.239 64.8616C166.143 65.1477 165.779 65.4795 166.321 65.7746C167.325 66.3212 168.47 66.7236 169.744 67.0627C173.381 68.0304 177.044 69.6541 180.693 70.9301C187.259 73.2258 195.104 76.886 201.671 76.2425C203.292 76.0839 204.625 75.8809 206.319 76.0454C208.303 76.2383 209.461 77.258 210.986 77.5545C213.028 77.9514 215.95 77.6532 218.1 77.7294C220.15 77.8021 222.201 77.8974 224.252 77.8974C222.451 74.269 221.354 70.8622 220.342 66.9654C219.79 64.8402 218.959 62.9099 219.319 60.6718C219.489 59.6154 219.911 58.6228 220.37 57.6686C221.064 56.2281 221.261 56.5294 221.507 54.9341C221.846 52.7386 221.36 50.4235 221.626 48.2214C221.899 45.9614 223.604 43.9471 223.794 41.7865C223.895 40.6369 223.253 39.6987 223.445 38.4587C223.617 37.3497 224.272 36.187 224.861 35.2532C226.232 33.0774 227.902 31.8437 230.219 30.9574C232.081 30.2449 234.458 29.5914 236.34 30.7451C238.26 31.922 238.122 34.2907 239.042 36.019C241.02 39.7354 245.584 43.0566 249.222 44.9546C252.564 46.6981 256.165 47.7995 259.748 48.9366C261.929 49.6286 264.172 50.1222 266.315 50.9129C267.858 51.4823 270.374 52.8632 271.945 52.0244C273.315 51.2932 274.912 49.062 276.267 48.0261C277.853 46.8142 279.967 45.6314 281.964 46.6871C283.96 47.7424 283.796 51.6327 285.349 52.3642C285.89 52.6191 287.497 51.8723 288.235 51.9901C289.426 52.1799 290.246 52.9187 290.961 53.8282C293.628 57.227 294.454 62.618 294.571 66.8078C294.629 68.9005 294.578 71.5033 293.303 73.2801C291.815 75.3527 288.999 75.404 287.089 76.8625C285.561 78.029 284.479 79.936 282.928 81.1791C281.973 81.9452 281.605 81.3568 281.209 82.5507C280.951 83.3272 281.472 84.8421 281.625 85.5934C282.575 90.2283 284.354 94.5033 286.041 98.9187C286.836 100.999 287.511 103.08 287.874 105.285C288.112 106.732 287.837 107.997 287.952 109.389C288.034 110.38 288.455 111.235 288.362 112.252C288.166 114.403 287 116.304 286.258 118.197C285.412 120.355 286.574 124.092 287.425 126.323C289.466 131.67 292.337 137.071 294.887 142.208C297.392 147.254 299.255 152.627 302.174 157.475C305.008 162.183 308.343 166.792 311.568 171.245C313.362 173.721 315.266 176.077 316.891 178.675C317.247 179.243 319.673 183.954 320.302 183.791C319.531 175.57 320.311 167.02 320.656 158.805C321.087 148.521 319.781 139.206 316.892 129.39C316.217 127.095 315.615 124.747 315.14 122.401C314.808 120.759 313.869 119.41 316.174 120.128C319.99 121.316 323.349 128.534 325.289 131.676C329.634 138.713 333.264 148.097 333.751 156.351C334.229 164.452 333.817 172.203 332.806 180.185C332.307 184.123 331.502 188.513 330.271 192.278C329.637 194.216 328.877 196.222 328.033 198.078C327.677 198.862 326.895 199.747 326.76 200.608C326.547 201.973 327.545 203.816 327.795 205.165C328.612 209.577 328.8 214.151 328.521 218.629C328.372 221.031 328.041 223.179 327.259 225.438C326.262 228.316 326.725 230.514 327.14 233.481C327.584 236.655 328.009 243.872 324.714 245.675C324.482 245.652 324.248 245.627 324.015 245.603C323.427 244.924 322.904 244.964 322.448 245.725C321.595 246.003 320.763 246.72 319.866 247.029C317.783 247.746 315.535 247.789 313.363 248.104C309.111 248.721 304.873 249.809 300.696 249.94C295.75 250.096 290.59 249.902 285.753 249.033C284.754 248.854 283.585 248.379 282.585 248.288C281.228 248.164 280.276 249.068 278.875 248.855C276.704 248.526 275.332 246.224 275.19 244.338C274.738 238.327 278.067 235.571 283.506 234.503C279.991 229.462 275.945 225.326 275.01 218.852C274.089 212.482 276.085 205.109 279.711 200.006C283.192 195.107 289.131 191.831 295.256 193.074C298.099 193.651 311.51 197.618 308.917 202.118C308.342 200.06 304.807 200.458 303.099 200.161C300.265 199.668 297.431 198.924 294.556 199.077C288.901 199.378 283.435 202.73 280.697 207.803C277.54 213.652 278.981 219.488 282.781 224.482C286.256 229.048 289.839 233.845 294.512 237.142C293.609 238.581 293.935 239.033 292.141 238.775C290.909 238.598 289.756 237.636 288.511 237.396C285.929 236.899 281.865 239.019 280.269 241.139C279.327 242.391 279.362 243.01 281.1 243.781C282.382 244.35 284.402 244.056 285.78 244.18C289.207 244.486 292.699 244.589 296.138 244.576C302.089 244.555 307.624 243.598 313.513 242.979C316.124 242.704 318.854 243.021 321.408 242.058C324.867 240.755 324.02 236.927 323.571 233.825C323.127 230.754 323.579 228.371 324.061 225.329C324.27 224.008 324.66 222.482 324.384 221.152C324.056 219.572 323.468 218.873 323.543 217.111C323.81 210.839 323.024 204.235 321.365 198.182C317.762 185.035 308.963 174.659 301.625 163.486C299.552 160.33 297.373 157.339 295.723 153.921C294.16 150.683 293.084 147.259 291.532 144.012C288.111 136.855 284.866 129.483 282.866 121.785C280.601 122.678 278.16 123.992 275.731 124.307C272.979 124.664 270.037 122.438 268.302 120.477C264.344 116.006 263.441 109.943 263.737 104.182C263.825 102.476 263.93 100.757 264.235 99.0749C264.433 97.9828 265.716 95.3394 265.424 94.3218C265.111 93.2329 263.289 92.2863 262.729 91.2078C262.017 89.8348 261.935 88.0677 261.973 86.5531C262.008 85.1705 262.77 78.4006 264.958 81.1677C266.211 82.7529 264.379 88.7296 265.651 89.5432C266.796 90.275 268.372 89.3808 269.558 91.054C270.84 92.8623 270.154 95.0911 269.704 97.0168C268.775 100.999 267.903 105.3 267.927 109.39C267.948 113.114 268.613 117.822 272.675 119.329C274.727 120.09 276.284 119.566 277.815 118.149C278.166 117.744 278.524 117.346 278.888 116.955C279.223 116.378 279.737 116.306 280.43 116.74C280.942 116.332 281.702 113.513 281.959 112.883C285.105 105.159 280.145 96.2909 278.327 88.7126C277.214 84.0774 276.245 79.4279 278.496 74.9544C278.86 74.2302 279.864 73.6009 279.262 72.5618C279.103 72.2885 277.588 72.1604 277.229 71.8428C276.06 70.8089 276.303 68.8814 276.303 67.5012C273.6 68.3366 272.821 66.2291 273.172 63.6459C271.155 63.9663 269.755 64.5842 269.008 62.2463C268.346 60.1731 269.346 58.0589 270.009 56.1269C260.677 55.1249 250.599 53.841 243.162 47.3898C241.329 45.799 239.804 43.7967 238.533 41.7224C238.303 41.3473 237.222 38.7067 236.864 38.5689C235.799 38.1591 234.905 40.247 233.958 40.7641C233.117 41.2233 231.921 41.4765 230.986 41.7564C230.106 42.0199 227.005 42.0726 226.455 42.5301C225.08 43.6745 225.188 50.2902 225.177 51.8256C225.14 57.1137 226.318 62.3835 228.497 67.1982C230.549 71.7326 233.689 77.9684 237.794 80.9359C238.831 81.6861 239.765 82.0751 241.079 82.0131C242.018 81.9691 242.949 81.3103 243.927 81.6529C246.401 82.5202 245.516 84.2433 243.614 85.0579C238.177 87.3875 233.595 82.2663 230.452 78.6885C229.531 82.9334 233.8 87.9565 236.058 91.4201C237.498 93.6274 238.921 95.8368 240.29 98.0891C241.284 99.725 243.238 102.746 239.767 101.482C238.093 110.287 233.497 117.988 231.15 126.545C228.74 135.328 226.64 145.357 226.64 154.505C228.475 153.225 229.4 147.394 231.868 151.857C232.134 152.34 232.051 153.139 232.403 153.561C232.889 154.144 233.475 153.982 234.221 154.398C235.403 155.057 236.166 156.372 235.109 157.511C236.47 157.194 237.896 157.356 238.189 158.968C238.354 159.874 237.031 164.068 236.043 164.41C233.033 165.454 229.696 159.434 228.881 157.519C227 159.41 224.834 160.864 223.101 157.806C221.809 155.527 222.559 152.079 222.741 149.598C223.108 144.6 223.587 139.725 224.307 134.775C225.657 125.494 229.082 117.239 233.29 108.885C234.448 106.585 235.732 104.231 236.766 101.879C238.327 98.3288 235.885 99.1663 233.499 99.6817C228.823 100.692 223.926 101.476 219.202 101.834C216.735 102.02 213.577 102.131 211.207 102.846C209.541 103.348 209.827 103.001 209.158 104.789C208.858 105.589 208.52 106.44 207.993 107.125C205.3 110.621 198.327 110.036 194.476 109.775C194.709 108.301 194.939 106.826 195.181 105.354C192.217 106.051 188.695 106.537 185.642 106.502C183.998 106.483 182.25 106.232 180.61 106.095C179.402 105.994 177.11 105.136 175.972 105.47C174.653 105.857 172.658 110.636 171.903 112.177C170.487 115.071 167.956 118.285 167.062 121.332C166.27 124.033 167.887 128.694 168.395 131.383C169.129 135.27 169.798 139.164 171.028 142.932C171.919 145.665 172.947 149.431 175.686 150.794C178.414 152.153 180.375 152.917 183.328 152.64C188.528 152.153 194.06 152.953 199.194 153.966C204.48 155.009 209.321 155.478 214.341 157.337C225.727 161.553 232.977 174.541 228.684 186.439C226.215 193.282 222.148 198.368 216.181 202.601C213.14 204.759 209.548 206.509 206.215 208.171C204.685 208.935 203.18 209.861 201.62 210.539C200.48 211.035 198.521 212.175 197.283 212.3C198.658 212.955 199.874 212.342 201.304 212.139C203.327 211.85 205.394 211.789 207.424 211.537C210.585 211.145 213.699 210.849 216.862 210.456C219.56 210.12 222.606 210.001 225.288 210.388C226.584 210.575 228.534 210.943 229.688 211.569C230.595 212.06 231.427 213.194 232.403 213.755C233.477 209.339 232.975 203.895 233.025 199.357C233.066 195.652 233.231 192.029 233.579 188.342C233.969 184.218 231.451 179.528 230.521 175.489C229.651 171.708 227.332 166.917 228.185 162.971C229.262 157.997 232.078 166.933 232.465 168.21C233.678 172.208 235.085 176.11 236.428 180.06C238.027 184.759 239.637 189.312 241.964 193.715C243.901 197.379 246.127 201.677 250.108 203.465C249.78 198.076 249.415 193.087 247.179 188.119C245.059 183.408 241.825 179.218 240.412 174.17C239.71 171.661 239.607 169.096 239.572 166.505C239.548 164.762 239.628 162.418 241.494 164.298C242.974 165.788 243.262 170.542 243.909 172.549C244.222 173.515 244.654 174.401 244.998 175.341C245.154 175.764 246.199 177.825 246.199 178.101C247.276 181.359 249.658 184.483 251.333 187.481Z" fill="black"/>
<path fill-rule="evenodd" clip-rule="evenodd" d="M137.057 68.7258C137.16 69.9876 137.89 73.2579 136.955 74.2564C135.715 75.5812 135.127 73.8771 134.591 72.5336C133.47 69.7261 132.913 64.2894 135.128 61.9497C137.44 59.5066 142.008 59.4408 144.475 57.0076C145.465 56.0302 145.37 56.2342 145.284 54.7061C145.235 53.8433 144.678 52.6969 144.409 51.9214C143.709 49.9063 142.941 47.9155 142.209 45.9122C140.93 46.4965 139.088 48.2989 137.828 46.7881C136.663 45.3912 138.601 43.1025 139.951 42.6942C139.246 41.1505 135.926 41.4359 135.293 39.1683C134.744 37.1975 136.323 37.9807 136.668 37.2045C137.075 36.2911 136.242 35.0564 136.67 34.2147C138.157 31.2926 139.804 36.6655 140.544 37.6246C141.922 39.4083 144.322 39.798 144.533 42.4961C144.663 44.1572 144.539 44.9296 145.222 46.5609C145.851 48.0627 146.598 49.5028 147.126 51.0482C147.92 53.3768 149.144 57.6144 147.592 59.8692C146.283 61.771 143.105 63.2209 141.039 64.0341C140.004 64.4411 138.569 64.6891 137.731 65.4819C136.639 66.5161 136.979 67.1516 137.057 68.7258Z" fill="black"/>
<path fill-rule="evenodd" clip-rule="evenodd" d="M244.432 139.138C244.196 138.766 243.96 138.395 243.724 138.022C242.089 139.772 240.278 140.492 238.625 138.268C236.923 135.98 237.562 132.548 238.224 130.048C238.564 128.762 240.287 123.69 241.391 127.554C241.634 128.406 240.82 130.305 240.673 131.14C240.383 132.777 240.155 134.348 240.359 136.016C242.276 134.296 243.215 129.938 245.161 134.464C245.866 136.105 245.944 138.808 247.822 136.315C248.825 134.984 248.89 132.526 249.359 130.957C252.561 131.724 251.978 136.469 250.909 138.78C249.207 142.461 246.891 141.276 244.432 139.138Z" fill="black"/>
<path fill-rule="evenodd" clip-rule="evenodd" d="M255.644 56.5709C256.783 58.4741 254.628 61.9546 254.238 63.9088C256.146 63.6874 260.868 59.0764 262.197 59.8367C264.964 61.4188 259.119 66.9369 257.997 67.7457C249.023 74.2079 250.64 55.5149 255.644 56.5709Z" fill="black"/>
<path fill-rule="evenodd" clip-rule="evenodd" d="M244.391 77.7653C247.743 76.8301 252.265 82.8588 250.09 85.8443C248.53 87.9858 246.602 86.7611 246.113 84.8759C245.864 83.9145 246.085 82.7559 245.759 81.6836C245.358 80.3633 244.82 79.0773 244.391 77.7653Z" fill="black"/>
<path fill-rule="evenodd" clip-rule="evenodd" d="M141.27 51.7793C143.82 53.9263 138.61 59.1608 135.998 55.062C135.28 53.9347 135.149 52.9056 136.214 52.4893C136.752 52.2794 138.021 52.9669 138.78 52.8454C139.612 52.712 140.516 52.1257 141.27 51.7793Z" fill="black"/>
<path fill-rule="evenodd" clip-rule="evenodd" d="M132.509 43.1938C131.52 41.9573 128.739 34.3514 132.185 36.0454C133.915 36.8961 135.345 43.3982 132.509 43.1938Z" fill="black"/>
<path fill-rule="evenodd" clip-rule="evenodd" d="M246.273 206.781C246.175 205.821 246.077 204.861 245.98 203.901C247.252 204.551 249.804 205.193 250.247 206.648C251.079 209.381 247.216 207.195 246.273 206.781Z" fill="black"/>
<path fill-rule="evenodd" clip-rule="evenodd" d="M283.204 91.0073C282.446 89.9818 280.089 81.4272 282.134 81.6229C282.492 84.7262 282.566 87.949 283.204 91.0073Z" fill="black"/>
<path fill-rule="evenodd" clip-rule="evenodd" d="M251.333 187.481C249.658 184.483 247.276 181.359 246.199 178.101C248.724 180.15 250.698 184.336 251.333 187.481Z" fill="black"/>
<path fill-rule="evenodd" clip-rule="evenodd" d="M319.996 180.532C320.098 181.618 320.2 182.705 320.302 183.791C318.785 184.183 319.903 180.89 319.996 180.532Z" fill="black"/>
<path fill-rule="evenodd" clip-rule="evenodd" d="M246.202 178.106C245.484 177.323 245.177 176.36 244.999 175.341C245.4 176.262 245.801 177.184 246.202 178.106Z" fill="black"/>
<path fill-rule="evenodd" clip-rule="evenodd" d="M254.885 227.289C254.912 226.322 254.939 225.355 254.966 224.391C254.939 225.358 254.912 226.323 254.885 227.289Z" fill="black"/>
<path fill-rule="evenodd" clip-rule="evenodd" d="M141.454 70.4396C142.096 70.5196 142.739 70.5997 143.381 70.6797C142.874 70.9176 141.679 71.2338 141.454 70.4396Z" fill="black"/>
<path fill-rule="evenodd" clip-rule="evenodd" d="M269.573 237.434C270.242 237.333 270.913 237.103 271.57 237.473C270.903 237.46 270.238 237.447 269.573 237.434Z" fill="black"/>
<path fill-rule="evenodd" clip-rule="evenodd" d="M250.473 215.596C250.482 216.312 250.491 217.028 250.499 217.741C250.489 217.025 250.481 216.311 250.473 215.596Z" fill="black"/>
<path fill-rule="evenodd" clip-rule="evenodd" d="M264.286 204.456C264.243 205.219 264.201 205.983 264.159 206.745C264.201 205.981 264.243 205.218 264.286 204.456Z" fill="black"/>
<path fill-rule="evenodd" clip-rule="evenodd" d="M255.192 207.444C255.155 206.779 255.119 206.115 255.082 205.452C255.119 206.117 255.155 206.78 255.192 207.444Z" fill="black"/>
<path fill-rule="evenodd" clip-rule="evenodd" d="M275.055 213.304C275.019 213.896 274.983 214.488 274.947 215.078C274.983 214.486 275.019 213.895 275.055 213.304Z" fill="black"/>
<path fill-rule="evenodd" clip-rule="evenodd" d="M155.034 228.252C154.383 228.58 153.734 228.613 153.085 228.248C153.735 228.249 154.384 228.251 155.034 228.252Z" fill="black"/>
<path fill-rule="evenodd" clip-rule="evenodd" d="M221.591 49.4617C221.6 50.0467 221.61 50.6317 221.619 51.2142C221.609 50.6285 221.6 50.0453 221.591 49.4617Z" fill="black"/>
<path fill-rule="evenodd" clip-rule="evenodd" d="M157.016 65.4227C156.35 65.4733 155.684 65.5235 155.018 65.5741C155.684 65.5235 156.35 65.4733 157.016 65.4227Z" fill="black"/>
<path fill-rule="evenodd" clip-rule="evenodd" d="M294.576 67.6741C294.572 67.0967 294.569 66.5193 294.566 65.943C294.872 66.5193 294.878 67.096 294.576 67.6741Z" fill="black"/>
<path fill-rule="evenodd" clip-rule="evenodd" d="M137.057 68.7258C137.027 68.1124 136.996 67.4994 136.966 66.887C136.997 67.5008 137.027 68.1131 137.057 68.7258Z" fill="black"/>
<path fill-rule="evenodd" clip-rule="evenodd" d="M300.696 249.941C301.146 249.944 301.596 249.947 302.041 249.95C301.59 249.947 301.143 249.944 300.696 249.941Z" fill="black"/>
<path fill-rule="evenodd" clip-rule="evenodd" d="M123.669 16.0347C123.077 16.0853 122.486 16.1359 121.894 16.1861C122.486 16.1359 123.077 16.0853 123.669 16.0347Z" fill="black"/>
<path fill-rule="evenodd" clip-rule="evenodd" d="M182.009 242.309C182.39 242.309 182.771 242.308 183.148 242.309C182.765 242.309 182.387 242.309 182.009 242.309Z" fill="black"/>
<path fill-rule="evenodd" clip-rule="evenodd" d="M241.079 82.0133C240.501 81.9554 239.922 81.8972 239.344 81.8391C239.923 81.8972 240.501 81.9554 241.079 82.0133Z" fill="black"/>
<path fill-rule="evenodd" clip-rule="evenodd" d="M267.368 241.298C267.404 240.82 267.44 240.343 267.475 239.867C267.44 240.345 267.404 240.822 267.368 241.298Z" fill="black"/>
<path fill-rule="evenodd" clip-rule="evenodd" d="M204.763 75.8979C204.193 75.8927 203.624 75.8878 203.055 75.883C203.627 75.5512 204.195 75.6461 204.763 75.8979Z" fill="black"/>
<path fill-rule="evenodd" clip-rule="evenodd" d="M128.79 16.1945C128.216 16.1761 127.609 16.4757 127.08 16.0199C127.65 16.0781 128.22 16.1363 128.79 16.1945Z" fill="black"/>
<path fill-rule="evenodd" clip-rule="evenodd" d="M113.29 72.5649C112.74 72.6155 112.189 72.6661 111.64 72.7163C112.19 72.6657 112.74 72.6155 113.29 72.5649Z" fill="black"/>
<path fill-rule="evenodd" clip-rule="evenodd" d="M147.943 227.757C147.364 227.818 146.784 227.878 146.205 227.939C146.785 227.878 147.364 227.818 147.943 227.757Z" fill="black"/>
<path fill-rule="evenodd" clip-rule="evenodd" d="M162.367 65.0732C161.802 65.0853 161.236 65.0974 160.672 65.1096C161.232 64.8848 161.793 64.6728 162.367 65.0732Z" fill="black"/>
<path fill-rule="evenodd" clip-rule="evenodd" d="M254.864 219.927C254.861 219.436 254.858 218.945 254.855 218.456C254.858 218.947 254.861 219.437 254.864 219.927Z" fill="black"/>
<path fill-rule="evenodd" clip-rule="evenodd" d="M320.204 178.309C320.143 178.902 320.082 179.495 320.021 180.089C320.082 179.496 320.143 178.902 320.204 178.309Z" fill="black"/>
<path fill-rule="evenodd" clip-rule="evenodd" d="M246.887 216.547C246.844 216.042 246.802 215.537 246.76 215.033C246.802 215.538 246.845 216.043 246.887 216.547Z" fill="black"/>
<path fill-rule="evenodd" clip-rule="evenodd" d="M56.8208 211.907C56.7174 212.411 56.351 212.51 55.7214 212.205L56.8208 211.907Z" fill="black"/>
<path fill-rule="evenodd" clip-rule="evenodd" d="M267.98 212.131C267.946 211.692 267.913 211.254 267.879 210.816C267.913 211.255 267.946 211.693 267.98 212.131Z" fill="black"/>
<path fill-rule="evenodd" clip-rule="evenodd" d="M149.589 66.1303C149.114 66.1951 148.638 66.2595 148.162 66.3243C148.638 66.2595 149.114 66.1951 149.589 66.1303Z" fill="black"/>
<path fill-rule="evenodd" clip-rule="evenodd" d="M250.186 208.391C250.186 208.822 250.185 209.253 250.184 209.682C250.185 209.251 250.186 208.821 250.186 208.391Z" fill="black"/>
<path fill-rule="evenodd" clip-rule="evenodd" d="M221.506 53.7135C221.506 54.1212 221.506 54.5285 221.507 54.9341C221.506 54.5261 221.506 54.1198 221.506 53.7135Z" fill="black"/>
<path fill-rule="evenodd" clip-rule="evenodd" d="M48.0796 149.192C48.0323 149.622 47.985 150.051 47.9381 150.479C47.9854 150.049 48.0323 149.621 48.0796 149.192Z" fill="black"/>
<path fill-rule="evenodd" clip-rule="evenodd" d="M332.916 178.719C332.891 178.315 332.865 177.91 332.84 177.508C332.865 177.913 332.891 178.316 332.916 178.719Z" fill="black"/>
<path fill-rule="evenodd" clip-rule="evenodd" d="M87.3388 232.11C86.8476 232.102 86.3564 232.095 85.8651 232.087C86.3622 231.746 86.8521 231.819 87.3388 232.11Z" fill="black"/>
<path fill-rule="evenodd" clip-rule="evenodd" d="M144.545 43.1035C144.537 42.6979 144.529 42.2923 144.521 41.8881C144.774 42.2895 144.855 42.6927 144.545 43.1035Z" fill="black"/>
<path fill-rule="evenodd" clip-rule="evenodd" d="M105.322 37.9595C105.356 37.5594 105.391 37.1594 105.425 36.7618C105.391 37.1625 105.356 37.5608 105.322 37.9595Z" fill="black"/>
<path fill-rule="evenodd" clip-rule="evenodd" d="M267.69 177.996C267.673 177.555 267.656 177.114 267.64 176.674C267.657 177.116 267.673 177.556 267.69 177.996Z" fill="black"/>
<path fill-rule="evenodd" clip-rule="evenodd" d="M264.528 200.774C264.516 201.19 264.504 201.606 264.491 202.019C264.503 201.603 264.515 201.188 264.528 200.774Z" fill="black"/>
<path fill-rule="evenodd" clip-rule="evenodd" d="M207.985 240.876C208.293 240.876 208.601 240.875 208.905 240.875C208.596 240.876 208.291 240.876 207.985 240.876Z" fill="black"/>
<path fill-rule="evenodd" clip-rule="evenodd" d="M58.194 241.087C58.5013 241.096 58.8083 241.104 59.1118 241.113C58.8034 241.104 58.4985 241.096 58.194 241.087Z" fill="black"/>
<path fill-rule="evenodd" clip-rule="evenodd" d="M244.002 204.592C241.006 202.272 238.394 198.804 237.786 195.09C239.074 196.549 240.157 198.176 241.446 199.634C241.958 200.212 242.586 200.711 243.078 201.301C244.199 202.645 244.002 202.705 244.002 204.592Z" fill="black"/>
<path fill-rule="evenodd" clip-rule="evenodd" d="M233.476 188.913C232.038 185.594 230.79 181.568 231.04 177.907C232.033 181.231 234.334 185.407 233.476 188.913Z" fill="black"/>
<path fill-rule="evenodd" clip-rule="evenodd" d="M238.301 208.429C238.277 209.392 238.252 210.356 238.229 211.317C238.254 210.352 238.278 209.39 238.301 208.429Z" fill="black"/>
<path fill-rule="evenodd" clip-rule="evenodd" d="M48.1302 234.618C49.1131 234.676 50.0963 234.735 51.0791 234.793C50.0918 234.807 49.0913 235.046 48.1302 234.618Z" fill="black"/>
<path fill-rule="evenodd" clip-rule="evenodd" d="M238.296 205.246C238.299 206.067 238.303 206.889 238.306 207.709C238.303 206.886 238.299 206.066 238.296 205.246Z" fill="black"/>
<path fill-rule="evenodd" clip-rule="evenodd" d="M197.913 109.982C197.359 109.953 196.806 109.924 196.257 109.896C196.811 109.924 197.362 109.953 197.913 109.982Z" fill="black"/>
<path fill-rule="evenodd" clip-rule="evenodd" d="M206.914 89.5463C206.912 88.8796 206.91 88.2128 206.907 87.5475C206.909 88.2146 206.912 88.8806 206.914 89.5463Z" fill="black"/>
<path fill-rule="evenodd" clip-rule="evenodd" d="M195.031 106.272C195.005 105.803 194.756 105.567 194.282 105.563C195.233 105.049 195.483 105.285 195.031 106.272Z" fill="black"/>
<path fill-rule="evenodd" clip-rule="evenodd" d="M223.223 143.364C223.26 142.771 223.298 142.177 223.335 141.585C223.297 142.179 223.26 142.772 223.223 143.364Z" fill="black"/>
<path fill-rule="evenodd" clip-rule="evenodd" d="M62.0848 235.037C62.7479 234.991 63.4109 234.945 64.074 234.898C63.4106 234.945 62.7479 234.991 62.0848 235.037Z" fill="black"/>
<path fill-rule="evenodd" clip-rule="evenodd" d="M201.347 154.487L203.32 154.474C202.662 154.478 202.004 154.483 201.347 154.487Z" fill="black"/>
<path fill-rule="evenodd" clip-rule="evenodd" d="M220.179 82.1879C219.72 82.1918 219.262 82.1956 218.807 82.1991C219.267 82.1953 219.723 82.1918 220.179 82.1879Z" fill="black"/>
<path fill-rule="evenodd" clip-rule="evenodd" d="M315.823 242.73C316.399 242.727 316.974 242.725 317.549 242.722C316.975 243.085 316.4 243.076 315.823 242.73Z" fill="black"/>
<path fill-rule="evenodd" clip-rule="evenodd" d="M74.3428 162.964C73.9529 162.976 73.5629 162.987 73.1768 162.998C73.5681 162.987 73.9553 162.976 74.3428 162.964Z" fill="black"/>
<path fill-rule="evenodd" clip-rule="evenodd" d="M281.475 76.6427C281.844 76.9995 281.359 77.8196 280.919 77.537C281.104 77.2388 281.29 76.9409 281.475 76.6427Z" fill="black"/>
<path fill-rule="evenodd" clip-rule="evenodd" d="M101.183 199.078C101.199 198.573 101.216 198.068 101.232 197.565C101.216 198.07 101.199 198.574 101.183 199.078Z" fill="black"/>
<path fill-rule="evenodd" clip-rule="evenodd" d="M233.025 199.357C233.052 198.83 233.079 198.304 233.105 197.778C233.078 198.305 233.051 198.831 233.025 199.357Z" fill="black"/>
<path fill-rule="evenodd" clip-rule="evenodd" d="M325.034 144.488C325.056 145.015 325.078 145.542 325.099 146.067C325.077 145.54 325.055 145.014 325.034 144.488Z" fill="black"/>
<path fill-rule="evenodd" clip-rule="evenodd" d="M147.365 204.188C147.954 204.238 148.542 204.288 149.131 204.339C148.542 204.288 147.953 204.238 147.365 204.188Z" fill="black"/>
<path fill-rule="evenodd" clip-rule="evenodd" d="M228.143 163.756C228.172 163.232 228.201 162.708 228.23 162.185C228.2 162.71 228.172 163.233 228.143 163.756Z" fill="black"/>
<path fill-rule="evenodd" clip-rule="evenodd" d="M125.8 173.717C126.387 173.771 126.974 173.825 127.561 173.88C126.974 173.825 126.387 173.771 125.8 173.717Z" fill="black"/>
<path fill-rule="evenodd" clip-rule="evenodd" d="M177.744 219.508C177.366 219.508 176.988 219.508 176.614 219.508C176.993 219.508 177.369 219.508 177.744 219.508Z" fill="black"/>
<path fill-rule="evenodd" clip-rule="evenodd" d="M211.089 91.5158C211.066 92.0052 211.044 92.4943 211.022 92.9812C211.045 92.4915 211.067 92.0035 211.089 91.5158Z" fill="black"/>
<path fill-rule="evenodd" clip-rule="evenodd" d="M219.464 210.22C220.045 209.806 220.61 210.079 221.177 210.259C220.606 210.246 220.035 210.233 219.464 210.22Z" fill="black"/>
<path fill-rule="evenodd" clip-rule="evenodd" d="M151.529 70.1939C151.147 70.1782 150.765 70.1622 150.387 70.1447C150.77 70.1604 151.15 70.1772 151.529 70.1939Z" fill="black"/>
<path fill-rule="evenodd" clip-rule="evenodd" d="M244.165 219.219C244.13 218.732 244.095 218.245 244.061 217.759C244.095 218.247 244.13 218.733 244.165 219.219Z" fill="black"/>
<path fill-rule="evenodd" clip-rule="evenodd" d="M212.876 164.221C212.561 164.223 212.246 164.225 211.935 164.228C212.252 164.226 212.564 164.223 212.876 164.221Z" fill="black"/>
<path fill-rule="evenodd" clip-rule="evenodd" d="M226.162 181.918C226.162 181.512 226.162 181.105 226.163 180.701C226.162 181.108 226.162 181.513 226.162 181.918Z" fill="black"/>
<path fill-rule="evenodd" clip-rule="evenodd" d="M206.01 211.721C206.482 211.66 206.954 211.598 207.425 211.537C206.953 211.598 206.481 211.66 206.01 211.721Z" fill="black"/>
<path fill-rule="evenodd" clip-rule="evenodd" d="M185.617 152.598C186.128 152.595 186.638 152.591 187.149 152.588C186.64 152.889 186.129 152.832 185.617 152.598Z" fill="black"/>
<path fill-rule="evenodd" clip-rule="evenodd" d="M212.085 102.854C211.79 102.851 211.495 102.848 211.203 102.846C211.5 102.848 211.792 102.851 212.085 102.854Z" fill="black"/>
<path fill-rule="evenodd" clip-rule="evenodd" d="M124.829 178.238C124.525 178.233 124.22 178.229 123.92 178.225C124.226 178.229 124.527 178.233 124.829 178.238Z" fill="black"/>
<path fill-rule="evenodd" clip-rule="evenodd" d="M66.0045 158.232C66.5144 158.237 67.0243 158.243 67.5342 158.248C67.0212 158.537 66.5113 158.544 66.0045 158.232Z" fill="black"/>
<path fill-rule="evenodd" clip-rule="evenodd" d="M325.083 159.077C325.051 159.467 325.018 159.857 324.987 160.244C325.02 159.854 325.051 159.466 325.083 159.077Z" fill="black"/>
<path fill-rule="evenodd" clip-rule="evenodd" d="M195.268 221.721C195.311 221.296 195.355 220.87 195.398 220.446C195.354 220.872 195.311 221.297 195.268 221.721Z" fill="black"/>
<path fill-rule="evenodd" clip-rule="evenodd" d="M112.817 171.009C113.332 171.016 113.848 171.023 114.363 171.031C113.843 171.39 113.33 171.164 112.817 171.009Z" fill="black"/>
<path fill-rule="evenodd" clip-rule="evenodd" d="M230.287 96.2872C230.789 96.2304 231.29 96.1736 231.791 96.1168C231.29 96.1736 230.789 96.2304 230.287 96.2872Z" fill="black"/>
<path fill-rule="evenodd" clip-rule="evenodd" d="M188.408 232.698C188.454 233.145 188.499 233.592 188.544 234.038C188.499 233.59 188.453 233.144 188.408 232.698Z" fill="black"/>
<path fill-rule="evenodd" clip-rule="evenodd" d="M233.033 203.29C233.033 202.873 233.032 202.456 233.031 202.041C233.032 202.459 233.033 202.874 233.033 203.29Z" fill="black"/>
<path fill-rule="evenodd" clip-rule="evenodd" d="M51.323 234.853C51.808 234.917 52.293 234.98 52.7777 235.045C52.2927 234.98 51.8077 234.917 51.323 234.853Z" fill="black"/>
<path fill-rule="evenodd" clip-rule="evenodd" d="M60.4221 235.049C60.9009 234.657 61.387 234.777 61.8748 235.028C61.3904 235.035 60.9061 235.042 60.4221 235.049Z" fill="black"/>
<path fill-rule="evenodd" clip-rule="evenodd" d="M147.915 177.583C148.39 177.525 148.864 177.467 149.338 177.408C148.863 177.467 148.389 177.525 147.915 177.583Z" fill="black"/>
<path fill-rule="evenodd" clip-rule="evenodd" d="M200.616 237.258C201.099 237.193 201.583 237.128 202.066 237.064C201.582 237.128 201.099 237.193 200.616 237.258Z" fill="black"/>
<path fill-rule="evenodd" clip-rule="evenodd" d="M183.712 238.01C184.205 237.947 184.697 237.883 185.19 237.82C184.697 237.883 184.205 237.947 183.712 238.01Z" fill="black"/>
<path fill-rule="evenodd" clip-rule="evenodd" d="M210.849 94.4738C210.827 94.8724 210.805 95.2714 210.784 95.6676C210.805 95.2679 210.827 94.8707 210.849 94.4738Z" fill="black"/>
<path fill-rule="evenodd" clip-rule="evenodd" d="M94.7599 189.537C94.804 189.114 94.8482 188.691 94.8923 188.269C94.8478 188.693 94.804 189.115 94.7599 189.537Z" fill="black"/>
<path fill-rule="evenodd" clip-rule="evenodd" d="M207.042 84.1615C207.055 83.7463 207.068 83.331 207.081 82.9178C207.069 83.3338 207.056 83.7476 207.042 84.1615Z" fill="black"/>
<path fill-rule="evenodd" clip-rule="evenodd" d="M112.905 184.829C112.948 185.253 112.992 185.677 113.036 186.099C112.992 185.675 112.948 185.252 112.905 184.829Z" fill="black"/>
<path fill-rule="evenodd" clip-rule="evenodd" d="M114.538 171.013C115.038 171.068 115.538 171.123 116.037 171.179C115.537 171.123 115.037 171.068 114.538 171.013Z" fill="black"/>
<path fill-rule="evenodd" clip-rule="evenodd" d="M194.116 232.812C194.401 233.649 194.296 235.596 193.488 236.186C191.811 237.411 191.638 235.175 191.305 233.967C190.382 230.616 188.895 226.874 188.516 223.428C188.4 222.372 188.337 220.392 189.732 220.036C191.079 219.692 191.761 221.83 192.226 222.928C193.514 225.974 194.262 229.509 194.116 232.812Z" fill="black"/>
<path fill-rule="evenodd" clip-rule="evenodd" d="M194.116 232.812C194.135 232.379 194.154 231.946 194.173 231.515C194.154 231.949 194.135 232.38 194.116 232.812Z" fill="black"/>
</g>
<defs>
<clipPath id="clip0_3_396">
<rect width="354" height="266" fill="white"/>
</clipPath>
</defs>
</svg>
